<?xml version="1.0" encoding="utf-8"?>
<!-- Generator: Adobe Illustrator 24.0.1, SVG Export Plug-In . SVG Version: 6.00 Build 0)  -->
<svg version="1.1" id="object" xmlns="http://www.w3.org/2000/svg" xmlns:xlink="http://www.w3.org/1999/xlink" x="0px" y="0px"
	 viewBox="0 0 1100 800" style="enable-background:new 0 0 1100 800;" xml:space="preserve">
<style type="text/css">
	.st0{opacity:0.14;fill:#D67086;}
	.st1{fill:#3B3387;}
	.st2{fill:#59595B;}
	.st3{fill:#FFFFFF;}
	.st4{fill:#E6E6E7;}
	.st5{opacity:0.26;fill:#272525;}
	.st6{fill:#EAC5B0;}
	.st7{fill:#292949;}
	.st8{fill:#353A85;}
	.st9{fill:#DDDAE8;}
	.st10{fill:#474EBB;}
	.st11{fill:#8CABEF;}
	.st12{fill:#B97262;}
	.st13{fill:#D67086;}
	.st14{opacity:0.06;}
	.st15{fill:#3A332D;}
	.st16{fill:#BABCBE;}
	.st17{fill:#3B455A;}
	.st18{fill:#EED5D5;}
	.st19{fill:#5D66D3;}
</style>
<path class="st0" d="M91.36,734.47c8.72-2.16,18.73-1.85,28.29-1.53c114,3.81,236.15-2.34,350.34-3.94
	c108.66-1.52,209.35,1.63,317.96-0.42c71.96-1.36,144.18-2.37,215.81,1.58c12.79,0.7,28.78,3.23,30.14,10.2
	c1.23,6.3-11.03,10.75-22.02,12.84c-25.4,4.82-46.02,9.22-72.9,9.81c-61.96,1.36-130.04,4.64-192,6c-84.15,1.84-150,0-240,0
	c-78.05,0-173.98-0.87-256-4c-41.09-1.57-84.52-0.61-124.99-4.63C108.29,758.61,49.46,744.83,91.36,734.47z"/>
<g>
	<g>
		
			<rect x="550.91" y="164.38" transform="matrix(0.9761 -0.2175 0.2175 0.9761 -36.9536 151.5518)" class="st1" width="238.24" height="158.56"/>
		
			<rect x="530.62" y="138.65" transform="matrix(0.9761 -0.2175 0.2175 0.9761 -17.6245 145.041)" class="st2" width="238.97" height="27.88"/>
		<g>
			<polygon class="st3" points="742.11,146.37 769.76,140.21 763.7,113 763.26,113.1 			"/>
			<polygon class="st4" points="530.45,164.97 535.58,188 553.48,159.84 			"/>
			<polygon class="st3" points="594.82,150.63 573.68,183.9 616.55,174.35 637.7,141.07 			"/>
			<polygon class="st3" points="679.04,131.86 657.89,165.13 700.77,155.58 721.92,122.31 			"/>
			<polygon class="st1" points="553.48,159.84 535.58,188 536.52,192.18 573.68,183.9 594.82,150.63 			"/>
			<polygon class="st1" points="637.7,141.07 616.55,174.35 657.89,165.13 679.04,131.86 			"/>
			<polygon class="st1" points="721.92,122.31 700.77,155.58 742.11,146.37 763.26,113.1 			"/>
		</g>
		<g>
			<polygon class="st4" points="555.99,152.34 530.59,164.9 518.24,139.91 518.64,139.71 			"/>
			<polygon class="st3" points="732.45,34 742.91,55.15 711.31,44.46 			"/>
			<polygon class="st3" points="673.34,63.23 710.68,75.86 671.3,95.33 633.96,82.7 			"/>
			<polygon class="st3" points="595.99,101.47 633.33,114.1 593.96,133.57 556.61,120.94 			"/>
			<polygon class="st1" points="711.31,44.46 742.91,55.15 744.81,58.99 710.68,75.86 673.34,63.23 			"/>
			<polygon class="st1" points="633.96,82.7 671.3,95.33 633.33,114.1 595.99,101.47 			"/>
			<polygon class="st1" points="556.61,120.94 593.96,133.57 555.99,152.34 518.64,139.71 			"/>
		</g>
		<polygon class="st1" points="536.52,192.18 518.25,139.95 543.64,127.38 592.72,179.66 		"/>
		<polygon class="st5" points="543.64,127.38 571.87,144.49 563.34,148.36 		"/>
		<polygon class="st5" points="570.55,156.04 600.89,177.84 592.72,179.66 		"/>
		<g>
			<path class="st3" d="M541.73,143.57c0.51,2.02-0.72,4.07-2.74,4.58c-2.02,0.51-4.07-0.72-4.58-2.74
				c-0.51-2.02,0.72-4.07,2.74-4.58C539.17,140.32,541.22,141.55,541.73,143.57z"/>
			<path class="st3" d="M546.24,176.97c0.51,2.02-0.72,4.07-2.74,4.58c-2.02,0.51-4.07-0.72-4.58-2.74
				c-0.51-2.02,0.72-4.07,2.74-4.58C543.68,173.72,545.73,174.95,546.24,176.97z"/>
			<path class="st3" d="M573.23,170.18c0.51,2.02-0.72,4.07-2.74,4.58c-2.02,0.51-4.07-0.72-4.58-2.74
				c-0.51-2.02,0.72-4.07,2.74-4.58C570.67,166.93,572.73,168.15,573.23,170.18z"/>
		</g>
		
			<rect x="571.67" y="287.51" transform="matrix(0.9761 -0.2175 0.2175 0.9761 -46.4274 154.7849)" class="st3" width="216.61" height="1.61"/>
		<g>
			
				<rect x="644.03" y="298.38" transform="matrix(0.9761 -0.2175 0.2175 0.9761 -52.3164 147.7177)" class="st3" width="1.78" height="26.31"/>
			
				<rect x="720.68" y="281.3" transform="matrix(0.9761 -0.2175 0.2175 0.9761 -46.7669 163.9769)" class="st3" width="1.78" height="26.31"/>
		</g>
		
			<rect x="549.67" y="188.7" transform="matrix(0.9761 -0.2175 0.2175 0.9761 -25.4831 147.638)" class="st3" width="216.61" height="1.78"/>
	</g>
	<g>
		<g>
			<g>
				<path class="st6" d="M772.31,359.81c-0.87-2.06-2.5-3.7-4.28-5.04c-6.69-5.05-15.78-6.34-23.95-4.45
					c-3.2,0.74-6.55,2.14-8.15,5.01c-0.91,1.63-1.15,3.55-1.36,5.41c-0.62,5.38-1.25,10.75-1.87,16.13c-0.15,1.3-0.3,2.63-0.01,3.91
					c0.91,4.06,5.55,5.87,9.54,7.03c-0.12,1.28-0.2,2.57-0.25,3.86c0.03,0.16,1.76,9.37,13.52,5.69c0.95-0.3,1.65-1.1,1.83-2.08
					c0.36-1.97,0.85-3.84,2.42-4.97c1.58-1.13,3.72-1.04,5.48-1.85c3.33-1.51,4.44-5.6,5.17-9.17c0.64-3.11,1.27-6.22,1.91-9.33
					C772.98,366.59,773.65,362.98,772.31,359.81z"/>
			</g>
		</g>
		<g>
			<path class="st7" d="M801.8,341.79c-0.11-3.66-0.82-7.33-1.73-10.62c-1.56-5.66-8.46-7.86-14.32-7.95
				c-12.67-0.19-25.16-5.26-37.25-0.17c-6.91,2.91-16.34,4.02-22.53,7.93c-2.58,1.63-4.58,4.07-6.1,6.72
				c-5.25,9.19-4.6,21.42,1.59,30c1.39,1.93,3.02,3.67,4.72,5.32c3.53,3.42,7.75,7.66,12.4,8.74c-0.12-4.1-4.56-16.8-1.6-20.33
				c4.69-5.6,16.07-4.37,22.34-3.4c6.83,1.06,13.11,5.5,19.86,6.15c4.86,0.47,10.87-2.23,14.83-4.95
				C800.2,354.97,801.99,348.39,801.8,341.79z"/>
		</g>
	</g>
	<g>
		<g>
			<g>
				<polygon class="st8" points="815.18,574.97 795.84,742.17 780.91,742.17 763.73,590.44 737.84,587.63 789.26,551.09 
					813.99,550.92 				"/>
			</g>
			<g>
				<polygon class="st7" points="780.89,741.86 780.99,742.08 787.1,754.9 796.55,755.77 802.27,751.32 795.36,741.86 				"/>
			</g>
		</g>
		<g>
			<g>
				<path class="st8" d="M687.73,556.17c-4.48,0.73-6.06,3.45-7.08,9.5c-1.34,7.94,17.08-3.63,21.73,3.37
					c5.91,8.9,4.8,27.54,7.58,41.4c1.74,8.66-1.76,20.22-2.37,29.01c-1.34,19.27-5.77,80.81-7.11,100.08l15.98,2.36l44.44-149.06
					l6.66-28.33l-19.42-10.7c-11.57,1.59-25.25,5.7-36.89,5.08c-6.66-0.36-13.06-2.75-19.73-2.92
					C690.08,555.93,688.82,555.99,687.73,556.17z"/>
			</g>
			<g>
				<polygon class="st7" points="700.52,739.19 700.59,739.44 705.11,754.13 715.08,756.56 721.91,752.71 716.01,741.48 				"/>
			</g>
		</g>
	</g>
	<g>
		<path class="st9" d="M831.06,568.75c-16.28-13.95-14.87-53.06-14.88-53.07l-15.15-77.91c-1.42-7.29-4.44-14.18-8.85-20.16
			l-10.61-14.4l-48.2-9.89c0,0-27.81-4.94-44.88,84.03c-3.72,19.41-9.72,42.57-10.75,66.65c-1.84,11.21-5.42,21.93-7.61,33.05
			c-0.63,3.23-1.78,8.83,1.08,11.41c3.48,3.14,10.28,1.86,13.95,0.76c12.72-3.83,25.22-9.77,38.06-13.18
			c14.44-3.83,29.22-7.79,44.15-9.08c11.64-1.01,20.79,2.6,31.89,4.89c6.51,1.35,8.32,4.24,14.91,5.14
			C830.33,579.19,842.62,578.66,831.06,568.75z"/>
	</g>
	<g>
		<g>
			<polygon class="st10" points="727.97,377.52 712.74,408.09 790.19,430.44 793.32,403.21 			"/>
		</g>
		<g>
			<polygon class="st10" points="768.06,382.76 750.1,388.66 722.02,410.77 718.8,538.33 770.05,531.01 758.11,422.73 
				785.19,406.33 792.51,397.69 			"/>
		</g>
	</g>
	<g>
		<g>
			<polygon class="st6" points="662.5,319.53 655.15,306.14 649.3,309.03 655.82,322.83 648.89,319.39 656.57,330.08 663.06,327.9 
							"/>
		</g>
		<g>
			<g>
				<path class="st9" d="M674.18,407.48l-21.42-80.15l13.11-3.67l46.88,84.43l-17.72,41.18
					C695.07,449.21,674.13,407.54,674.18,407.48z"/>
			</g>
		</g>
	</g>
	<g>
		<g>
			<path class="st6" d="M811.45,412l5.74-14.17c0,0,6.37,2.39,6.38,2.39c0.48,0.18,0.92,6.52,0.88,7.09
				c-0.09,1.19-3.97,15.18-5.54,14.81c0,0-6.94-1.62-6.94-1.62L811.45,412z"/>
		</g>
		<g>
			<g>
				<path class="st9" d="M814.05,487.61l8.4-68.6l-13.9-2.53l-28.25,77.97l33.91-6.68C814.16,487.72,814.11,487.66,814.05,487.61z"
					/>
			</g>
		</g>
	</g>
	<polygon class="st11" points="138.17,504 118.43,498.57 114.05,474.48 144.82,418.18 144.82,459.08 	"/>
	<g>
		<g>
			<polygon class="st7" points="136.16,738.09 135.79,746.34 153.95,755.32 160.55,747.43 152.66,738.82 137.52,729.93 			"/>
		</g>
		<g>
			<g>
				<polygon class="st8" points="230.93,549.98 248.59,578.57 217.38,741.69 202.12,740.97 197.63,572.91 201.9,525.28 				"/>
			</g>
			<g>
				<polygon class="st7" points="203.91,747.41 220.03,756.44 226.66,748.57 218.8,739.93 202.29,739.15 				"/>
			</g>
		</g>
	</g>
	<g>
		<path class="st8" d="M210.9,532.74l-19.04,7.13l-53.69-36.22l4.26,47.73l11.83,16.55c2.61,1.82-3.12,38.13-4.37,50.95
			l-13.26,115.84l16.23,3.99l43.87-138.38L210.9,532.74z"/>
	</g>
	<g>
		<g>
			<path class="st11" d="M258.3,526.32c-6.14-20.77-0.53-1.38-6.74-22.13c-6.86-23.04-13.78-46.17-24.05-67.9
				c-3.47-7.35-7.32-14.53-11.53-21.49c-2.66-4.39-8.25-17.16-13.19-19.01c-4.08-1.53-13.1,1.23-17.58,1.58
				c-7.5,0.57-15.05,1.42-22.21,3.88c-1.17,0.4-2.33,0.85-3.46,1.34c-1.14,0.51-15.78,7.46-17.56,31.21
				c-1.85,24.72,1.24,64.27-8.65,85.28c-9.89,21.01-18.39,42.86-13.52,66.23c0,0,0,0,0,0.01c11.86-8.2,26.26-12.69,40.68-12.62
				c13.89,0.07,107.08,20.91,116.23,5.9C278.72,575.32,260.17,532.65,258.3,526.32z"/>
		</g>
	</g>
	<g>
		<g>
			<path class="st12" d="M155.28,357.67c7.73-20.57,38.44-26.63,44.56-2.12c1.84,7.37,2.81,15.14,1.07,22.53
				c-1.74,7.39-6.57,14.35-13.64,17.13c-0.04,0.02-0.08,0.03-0.12,0.04c0.19,1.94,0.39,3.89,0.58,5.83
				c0.04,0.42,0.07,0.88-0.17,1.22c-0.28,0.39-0.81,0.47-1.29,0.52c-2.32,0.25-4.64,0.51-6.96,0.76c-1.15,0.13-2.35,0.25-3.43-0.15
				c-2.38-0.87-3.27-3.8-3.27-6.33c0-0.61,0.03-1.22,0.06-1.83C156.94,389.15,150.22,371.12,155.28,357.67z"/>
		</g>
		<g>
			<g>
				<path class="st7" d="M198.71,328.48c5.24,0,8.87,5.62,13.21,8.93c3.61,2.76,7.99,3.99,11.8,6.4c3.81,2.41,7.26,6.76,6.65,11.47
					c4.45-1.54,9.26-3.08,13.75-1.5c4.5,1.58,7.98,7.75,5.45,12.03c-2.26,3.84-7.72,4.01-10.09,7.76
					c-3.75,5.94,2.36,16.93-3.43,20.38c-1.39,0.83-3.12,0.82-4.5,1.68c-1.71,1.07-2.53,3.22-3.5,5.1
					c-4.39,8.51-14.3,13.03-23.05,10.5c-5.16-3.43-8.79-9.46-9.86-15.9c-1.29-7.77,3.06-9.77,4.77-16.63
					c1.86-7.5,0.64-15.91-3.27-22.53c-2.55-4.31-6.51-8.28-11.16-9.43c-1.89-0.47-1.52,1.22-3.46-0.58
					c-0.83-0.77-1.74-3.37-1.83-4.56C185.97,338.22,191.82,328.48,198.71,328.48z"/>
			</g>
			<g>
				<path class="st7" d="M141.81,330.1c-2.75,0.34-5.61-0.19-8.29,0.54c-4.03,1.1-4.38,5.06-5.96,8.31
					c-1.75,3.6-4.22,8.42-7.15,10.98c-2.11,1.85-4.8,2.68-7.23,3.99c-2.43,1.31-4.8,3.42-5.19,6.37c-0.37,2.8,1.13,5.58,0.99,8.41
					c-0.28,4.2-1.32,6.22-0.67,10.66c0.34,2.29,0.73,4.72,2.15,6.46c1.87,2.29,4.97,2.71,7.74,2.66c2.78-0.05,5.69-0.39,8.23,0.91
					c5.51,2.81,3.55,8.51,4.37,13.66c1.24,7.83,9.26,13.48,16.29,11.8c5.96-1.42,10.18-7.47,10.89-13.95
					c0.35-3.25-0.49-6.44-0.1-9.69c0.37-3.13,2.77-7.18,0.31-10.07c-0.6-0.7-1.43-1.15-1.95-1.93c-0.42-0.63-0.58-1.41-0.65-2.18
					c-0.22-2.66,0.76-5.39,2.58-7.13c1.3-1.25,3.02-2.06,3.94-3.67c1.06-1.84,0.79-4.22,0.98-6.41c0.46-5.28,4.09-9.98,8.75-11.36
					c3.07-0.9,5.77-1.31,8.59-2.96c0.43-0.25,6.89-4.45,6.87-3.34c0.03-1.94-0.84-3.76-1.73-5.45c-1.47-2.78-3.16-5.52-5.54-7.41
					c-7.69-6.1-9.77,5.11-16.29,2.63c-1.57-0.6-2.58-2.27-3.91-3.38c-2.52-2.09-6.01-2-9.02-1.16
					C147.78,328.23,144.91,329.72,141.81,330.1z"/>
			</g>
		</g>
	</g>
	<g>
		<g>
			<g>
				<path class="st13" d="M173.42,460.83l-6.1,2.24l-15.52-42.31c-1.44-3.48-1.64-11.49,7.69-17.58l22.65-16.02l3.74,5.21
					l-22.81,16.13c-7.32,4.74-5.28,9.75-5.26,9.8l0.06,0.16L173.42,460.83z"/>
			</g>
			<polygon class="st14" points="151.99,421.26 152.43,422.46 158.42,419.94 157.98,418.73 			"/>
			<path class="st14" d="M157.54,416.84l-6.47,0.36c0.02,0.45,0.06,0.87,0.12,1.28l6.55-0.36
				C157.68,417.88,157.57,417.44,157.54,416.84z"/>
			<path class="st14" d="M157.77,414.81l-6.17-1.85c-0.12,0.42-0.22,0.84-0.3,1.25l6.25,1.88
				C157.58,415.7,157.65,415.27,157.77,414.81z"/>
			<path class="st14" d="M158.62,412.83l-5.16-3.85c-0.24,0.37-0.47,0.74-0.67,1.11l5.25,3.91
				C158.19,413.63,158.38,413.23,158.62,412.83z"/>
			<path class="st14" d="M155.55,406.39l3.64,5.59c0.25-0.34,0.55-0.68,0.88-1.03l-3.57-5.47
				C156.17,405.77,155.85,406.08,155.55,406.39z"/>
		</g>
		<path class="st13" d="M246.44,571.35l-36.25-121.02l-75.28,27.61l51.14,115.56C186.05,593.5,216.67,591.94,246.44,571.35z"/>
		<polygon class="st3" points="212.33,440.38 209.24,441.52 207.34,436.35 128.05,465.43 129.94,470.6 191.67,447.96 126.85,471.73 
			129.81,479.8 215.29,448.46 		"/>
		<path class="st14" d="M134.91,477.93c0,0,59.14-18.98,78.34-17.4l-3.06-10.21L134.91,477.93z"/>
		<path class="st14" d="M186.05,593.5c0,0,30.62-1.56,60.39-22.15l-27.52-91.89C224.59,569.35,186.05,593.5,186.05,593.5z"/>
		<polygon class="st3" points="236.49,533.33 221.36,482.24 147.03,509.5 168.75,558.17 		"/>
		<path class="st14" d="M221.36,482.24c0,0,4.52,33.88-10.16,60.36l25.3-9.28L221.36,482.24z"/>
		<polygon class="st14" points="170.18,557.65 235.2,533.81 236.82,539.21 		"/>
		<path class="st14" d="M207.34,436.35l1.89,5.17l-37.42,13.72C171.82,455.24,203.3,443.58,207.34,436.35z"/>
	</g>
	<g>
		<g>
			<polygon class="st12" points="225.88,411.42 224.63,396.2 231.11,395.38 234.27,405.61 237.16,403.8 236.64,416.96 
				230.02,418.72 			"/>
		</g>
		<g>
			<g>
				<path class="st11" d="M260.91,477.28l-22.6-64.72l-12.96,4.16l8.52,81.91l27.25-21.28C261.05,477.33,260.98,477.3,260.91,477.28
					z"/>
			</g>
		</g>
	</g>
	<g>
		<g>
			<polygon class="st12" points="170.65,509.35 185.43,513.19 187.34,506.95 177.81,502.08 180.08,499.55 167.04,497.8 
				164.17,504.02 			"/>
		</g>
		<g>
			<g>
				<polygon class="st11" points="171.65,496.91 135.74,479.8 138.09,504.13 165.33,508.97 				"/>
			</g>
		</g>
	</g>
	<polygon class="st15" points="968.95,514.12 976.38,481.69 956.25,420.8 929.26,403.84 958.82,503.69 	"/>
	<g>
		<g>
			<polygon class="st6" points="867.01,401.45 869.96,386.52 864.01,384.87 859.86,394.6 857.39,392.44 856.33,405.54 862.3,408.15 
							"/>
		</g>
		<g>
			<g>
				<path class="st8" d="M855.29,400.97l-28.66,61.23c-0.03,0.01-0.06,0.01-0.09,0.02l30.62,24.5l9.72-79.93L855.29,400.97z"/>
			</g>
		</g>
	</g>
	<g>
		<g>
			<g>
				<polygon class="st7" points="868.4,745.28 858.04,760.55 866.09,764 881.04,753.07 882.19,741 				"/>
			</g>
			<g>
				<polygon class="st7" points="939.95,741.98 932.61,758.91 941.16,760.8 953.82,747.29 952.71,735.21 				"/>
			</g>
			<g>
				<path class="st16" d="M850.56,564.1l8.6,54.05l8.6,128.64h15.15l10.24-124.31l7.78-72.97
					C900.92,549.5,855.48,555.99,850.56,564.1z"/>
			</g>
			<g>
				<path class="st16" d="M887.52,568.05l33.19,111.74l18.01,64.5l15.18-2.87l-8.7-66.37V545.75
					C945.21,545.75,890.94,559.16,887.52,568.05z"/>
			</g>
		</g>
		<g>
			<g>
				<g>
					<path class="st6" d="M889.72,363.45c0.52-1.01,1.11-1.97,1.82-2.85c1.85-2.31,4.4-3.98,7.13-5.12
						c8.47-3.56,18.89-1.87,25.81,4.17c8.88,7.76,11.17,22.83,5.02,32.98c-1.11,1.83-2.67,3.33-4.37,4.59
						c-2.28,1.68-4.85,2.89-7.55,3.64c0.75,2.41,1.72,4.76,2.9,6.99c-5.22,0.59-10.45,1.18-15.67,1.78c-0.34-3-0.69-6.01-1.03-9.01
						c-1.41-0.45-2.78-1.02-4.08-1.74c-11.02-6.12-12.76-17.29-11.42-32C888.37,365.64,889.15,364.55,889.72,363.45z"/>
				</g>
			</g>
			<g>
				<path class="st7" d="M916.38,365.04c-6.8-1.16-13.5-0.44-21.39,1.13c-1.07,0.21-2.2,0.48-2.95,1.26
					c-0.86,0.89-1.02,2.22-1.13,3.45c-0.47,5.05,0.04,10.2-0.43,15.25c0.08-0.9-5.91-6.27-6.61-7.55
					c-1.96-3.63-2.85-7.76-4.54-11.35c-1.62-3.43-3.44-5.59-3.58-9.67c-0.13-3.94,0.86-7.83,1.93-11.62
					c0.89-3.14,1.99-6.49,4.62-8.41c2.51-1.84,5.86-1.95,8.97-1.82c11.99,0.51,23.83,3.75,34.45,9.32
					c3.96,2.08,10.93,5.08,12.69,9.31c1.16,2.78,1.88,7.86,2.36,12.78l-0.44,15.31l-10.39,9.54l-2.95-23.55
					C923.32,366.7,919.84,365.63,916.38,365.04z"/>
			</g>
			<g>
				<path class="st8" d="M889.62,407.09l39.64-3.25c0,0,12,19.16,25.39,78.86c13.26,59.09,11.5,121.34,11.5,121.34
					s-53.37-20.34-130.2-11.66l22.39-145.45L889.62,407.09z"/>
			</g>
		</g>
	</g>
	<g>
		<path class="st13" d="M1034.57,457.78c1.38-1.68,2.34-3.75,2.7-6.05c0.71-4.49-1.03-8.8-4.23-11.57c0.22-0.59,0.39-1.22,0.49-1.87
			c0.82-5.22-2.74-10.12-7.97-10.95c-0.5-0.08-1-0.12-1.49-0.12c-1.57-4.93-5.79-8.81-11.25-9.67c-3.08-0.49-6.08,0.07-8.66,1.4
			c0.18-0.58,0.32-1.18,0.42-1.79c1.09-6.93-3.64-13.42-10.56-14.51c-4.95-0.78-9.68,1.42-12.38,5.26
			c-2.24-3.04-5.62-5.24-9.64-5.87c-2.93-0.46-5.79-0.03-8.32,1.09c-1.79-3.47-5.15-6.08-9.31-6.73c-4.99-0.79-9.76,1.45-12.45,5.36
			c-0.85-0.42-1.77-0.72-2.75-0.87c-5.22-0.82-10.12,2.74-10.95,7.97c-0.12,0.75-0.14,1.49-0.09,2.21c-1.79-1.69-4.1-2.87-6.71-3.29
			c-6.93-1.09-13.42,3.64-14.51,10.56c-0.29,1.83-0.17,3.62,0.29,5.3c-5.17,0.93-9.43,5.03-10.29,10.52
			c-0.1,0.64-0.15,1.28-0.16,1.91L1034.57,457.78z"/>
		<path class="st14" d="M1034.05,458.37c1.65-1.78,2.81-4.06,3.22-6.64c0.63-3.97-0.66-7.79-3.18-10.54
			c-36.88,8.41-114.32-3.43-114.32-3.43l-0.7,2.5L1034.05,458.37z"/>
		<g>
			<path class="st11" d="M920.61,443.07l-12.65,127.64c3.24,1,6.8,2.04,10.63,3.07l15.74-128.55L920.61,443.07z"/>
			<path class="st11" d="M971.48,451.09l-20.43,129.66c3.7,0.58,7.48,1.09,11.32,1.51l24.85-128.69L971.48,451.09z"/>
			<path class="st11" d="M897.36,439.41l-9.94,124.13c0,0,3.72,1.55,10.16,3.78l12.48-125.91L897.36,439.41z"/>
			<path class="st11" d="M944.88,446.9l-15.86,129.52c3.68,0.87,7.54,1.7,11.52,2.48l20.4-129.47L944.88,446.9z"/>
			<path class="st11" d="M1035.07,461.11l-12.7-2L995.38,583.4c3.89-0.2,7.78-0.53,11.64-1.01L1035.07,461.11z"/>
			<path class="st11" d="M997.76,455.23l-24.71,127.97c3.76,0.24,7.55,0.39,11.36,0.42l27.4-126.18L997.76,455.23z"/>
			<path class="st3" d="M960.94,449.43l-20.4,129.47c3.41,0.66,6.92,1.29,10.51,1.84l20.43-129.66L960.94,449.43z"/>
			<path class="st3" d="M910.06,441.41l-12.48,125.91c2.93,1.02,6.42,2.17,10.39,3.39l12.65-127.64L910.06,441.41z"/>
			<path class="st3" d="M934.33,445.23l-15.74,128.55c3.29,0.89,6.78,1.78,10.43,2.64l15.86-129.52L934.33,445.23z"/>
			<path class="st3" d="M1011.81,457.44l-27.4,126.18c3.65,0.03,7.31-0.04,10.97-0.22l26.99-124.29L1011.81,457.44z"/>
			<path class="st3" d="M987.22,453.57l-24.85,128.69c3.52,0.39,7.08,0.71,10.69,0.94l24.71-127.97L987.22,453.57z"/>
		</g>
		
			<rect x="894.09" y="445.41" transform="matrix(0.9878 0.1557 -0.1557 0.9878 81.4888 -144.9924)" class="st3" width="145" height="4.88"/>
		<polygon class="st14" points="1035.07,461.11 1033.75,466.79 944.88,446.9 		"/>
		<path class="st14" d="M1002.99,548.36c-3.88,2.63-8.04,4.91-12.41,6.86c-4.19,1.88-8.57,3.47-13.05,4.8
			c-3.75,1.12-7.57,2.06-11.42,2.84c-4.17,0.85-8.38,1.53-12.57,2.05c-3.69,0.46-7.36,0.8-10.97,1.05
			c-4.21,0.29-8.35,0.44-12.34,0.5c-3.72,0.05-7.32,0.02-10.74-0.08c-3.94-0.11-7.65-0.3-11.05-0.54
			c-4.02-0.28-7.61-0.61-10.63-0.94c-6.5-0.71-10.4-1.39-10.4-1.39s3.72,1.55,10.16,3.78c2.93,1.02,6.42,2.17,10.39,3.39
			c3.24,1,6.8,2.04,10.63,3.07c3.29,0.89,6.78,1.78,10.43,2.64c3.68,0.87,7.54,1.7,11.52,2.48c3.41,0.66,6.92,1.28,10.51,1.84
			c3.7,0.58,7.48,1.09,11.32,1.51c3.52,0.39,7.08,0.71,10.69,0.94c3.76,0.24,7.55,0.39,11.36,0.42c3.65,0.03,7.31-0.04,10.97-0.22
			c3.89-0.2,7.78-0.53,11.64-1.01l11.22-48.54C1014.02,539.6,1008.83,544.39,1002.99,548.36z"/>
	</g>
	<g>
		<g>
			<polygon class="st6" points="1016.85,516.57 1001.86,519.04 1000.36,513.04 1010.19,509.2 1008.09,506.65 1021.21,506.01 
				1023.66,512.06 			"/>
		</g>
		<polygon class="st8" points="1029.52,503.06 1020.48,503.31 1020.48,517.67 1023.66,518.38 		"/>
	</g>
	<path class="st8" d="M571.23,449.27c0,0,31.03,34.6,38.23,37.9c5.34,2.45,33.47,0.67,33.47,0.67l5.71,12.64l-37.83,13.64
		c0,0-26.03-9.18-27.99-9.03c-1.96,0.15-8.31,0.43-8.31,0.43L571.23,449.27z"/>
	<g>
		<g>
			<polygon class="st6" points="646.53,493.46 650.19,490.07 650.45,482.63 651.94,481.96 652.85,483.95 654.7,477.93 
				658.77,475.34 664.69,478.26 667.97,484.65 664.93,490.61 658.47,494.63 650.84,502.36 			"/>
		</g>
	</g>
	<g>
		<path class="st7" d="M491.66,549.01c0,0-11.64,37.59,0.69,39.92c7.06,1.34,4.83,18.21,4.83,18.21l6.55,80.87l-13.67,54.79
			l15.94,0.8c0,0,15.61-23.47,22.99-56.01c8.6-37.94,12.15-80.06,12.44-81.17c0.54-2.06,12.54-54.3,12.54-54.3L491.66,549.01z"/>
	</g>
	<g>
		<polygon class="st7" points="544.05,586.76 541.42,606.43 565.31,689.41 562.39,747.93 576.46,747.13 587.78,680.87 
			592.37,581.18 		"/>
	</g>
	<g>
		<polygon class="st7" points="503.82,741.54 511.22,753.34 506.47,761.04 493.79,758.94 489.43,743.18 		"/>
	</g>
	<g>
		<path class="st7" d="M579,744.72c-1.55-0.91-3.58-1.4-6.62-1.56c-3.63-0.19-7.31-0.58-10.94-0.58c-1.81-0.1,4.76,11.72,5.8,12.65
			c4.77,4.24,11.98,5.96,17.74,2.57c0.52-0.3,1.04-0.68,1.24-1.24c0.26-0.74-0.13-1.54-0.51-2.23
			C583.01,749.39,581.8,746.37,579,744.72z"/>
	</g>
	<g>
		<path class="st8" d="M615.98,631.48c-4.3-10.3-20.52-73.82-20.52-73.82c-5.19-14.14-2.95-28.27-6.38-49.31
			c-2.91-17.8-8.14-64.59-29.15-68.4c-16.7-3.03-35.03,8.6-48.85,22.42l0,0.01c0.01-0.01,0.04-0.04,0.04-0.04
			s-23.25,23.04-25.2,75.72c-0.62,16.77-3.76,30.89-7.31,42.58c-7.61,25.03-17.14,38.89-8,43.58c2.54,1.31,5.68,2.22,9.21,2.81
			c15.07,2.52,37.39-0.88,52.08-5.18c18.14-5.3,55.38,5.88,55.38,5.88s6.14,2.62,12.78,4.77
			C608.82,635.32,618.42,637.34,615.98,631.48z"/>
	</g>
	<g>
		<g>
			<path class="st17" d="M550.91,397.78c6.05,1.56,13.3,7.84,14.41,15.2c0.53,3.54-0.64,6.72,0.07,10.49
				c1.37,7.43-7.04,17.85,0.49,23.35c3.87,2.82,8.92,2.22,13.52,1.52c0.56-0.08,1.14-0.18,1.6-0.56c0.75-0.62,0.93-1.84,0.71-2.85
				c-0.22-1.01-0.77-1.88-1.23-2.78c-4.9-9.35-2.95-22.32-4.51-32.78c-1.56-10.43-5.96-20.97-14.81-25.66
				c-4.68,3.08-8.77,6.22-10.2,12.1L550.91,397.78z"/>
		</g>
		<g>
			<path class="st6" d="M559.88,446.15c6.03-2.55,6.74-12.64,8.38-19.65c1.64-7.02,0.99-14.44-0.4-21.48
				c-4.61-23.44-30.67-18.09-37.66,1.4C524.11,423.41,542.36,453.56,559.88,446.15z"/>
		</g>
		<g>
			<path class="st7" d="M525.69,455.35c2.99-1.88,5.93-3.86,7.79-7.57c3.01-5.98,2.35-15.55,3-22.17
				c0.69-6.98,1.63-14.58,6.14-19.47c2.94-3.2,6.4-3.94,10.28-4.19c2.66-0.17,2.79,0.96,4.99-0.76c1.69-1.31,3.07-5.06,3.41-7.23
				c0.58-3.66-0.81-7.43-3.01-10.16c-3.38-4.2-7.32-6.18-12.25-6.08c-17.32,0.37-30.02,12.54-34.42,31.84
				c-2.11,9.28-0.12,19.41-2.39,28.35c-1.41,5.52-4.41,9.29-5.52,15.15c-2.87,15.2-9.76,34.8-8.8,50.34
				c0.04,0.57,0.11,1.21,0.5,1.58c0.8,0.74,1.94-0.26,2.6-1.18c3.83-5.38,7.66-10.76,11.49-16.14c1.5-2.11,3.03-4.26,3.96-6.75
				c2.33-6.2,0.84-14.02,4.59-19.28C520.11,458.75,522.92,457.09,525.69,455.35z"/>
		</g>
	</g>
	<g>
		<g>
			<g>
				<g>
					<polygon class="st18" points="550.68,394.85 452.18,397.19 453.5,452.5 539.05,450.46 551.54,430.99 557.45,430.84 
						570.85,449.7 656.97,447.65 655.65,392.35 					"/>
				</g>
			</g>
			<polygon class="st13" points="465.38,407.56 538.55,405.82 539.07,427.63 531.53,439.39 466.18,440.94 			"/>
			<polygon class="st10" points="642.96,403.33 569.79,405.07 570.31,426.89 578.4,438.27 643.75,436.71 			"/>
			<polygon class="st14" points="538.51,405.8 466.06,440.84 531.49,439.26 539.09,427.38 			"/>
			<polygon class="st14" points="643.09,403.4 578.39,438.41 643.82,436.83 			"/>
		</g>
	</g>
	<g>
		<g>
			<path class="st8" d="M501.29,462.02l10.39,4.84l-17.72,64.11l-7.38,9.78c0,0-26.47-14.08-16.92-34.77
				C479.2,485.28,501.29,462.02,501.29,462.02z"/>
		</g>
		<g>
			<polygon class="st6" points="500.08,464.71 504.47,457.72 503.27,450.35 504.52,449.26 505.77,450.93 506.33,444.47 
				509.63,440.72 515.75,441.81 520.07,447.09 518.39,453.84 516.64,463.24 507.48,469.57 			"/>
		</g>
	</g>
	<g>
		<g>
			<g>
				<path class="st10" d="M483.11,241.81c-22.47,7.24-49.14,3.45-66.52-11.31c-5.02-4.27-9.24-9.26-13.82-13.92
					c-8.86-9.01-17.75-16.51-27.19-22.47c-6.72-8.66-15.63-15.83-26.39-20.58c-34.57-15.26-75.05,0.25-90.42,34.64
					c-15.37,34.39,0.19,74.63,34.76,89.89c34.57,15.26,75.05-0.25,90.42-34.64c4.07-9.09,5.95-18.6,5.91-27.94
					c8.12,8.19,16.12,16.23,27.36,21.6c20.52,9.81,45.67,17.79,67.83,10.57L483.11,241.81z"/>
				
					<ellipse transform="matrix(0.9973 -0.074 0.074 0.9973 -16.5764 24.4411)" class="st7" cx="321.35" cy="235.79" rx="54.84" ry="54.53"/>
			</g>
		</g>
		<path class="st13" d="M316.96,140.01c-52.99,3.94-92.83,49.12-88.99,100.92c3.85,51.8,49.93,90.61,102.92,86.67
			c52.99-3.94,92.83-49.12,88.99-100.92C416.04,174.87,369.96,136.07,316.96,140.01z M358.83,156.8c6.73,2.26,13.06,5.62,18.7,9.97
			c7.19,5.53,13.09,12.51,17.32,20.45c1.15,2.16,0.22,4.82-2.02,5.79l-48.76,21.02c-2.05,0.88-4.25-0.97-3.7-3.13l13.05-51.19
			C354.01,157.36,356.51,156.02,358.83,156.8z M332.55,241.79c1.4-1.54,3.8-1.67,5.35-0.28c1.55,1.39,1.67,3.77,0.27,5.32
			c-1.4,1.54-3.8,1.67-5.35,0.28C331.27,245.71,331.15,243.33,332.55,241.79z M331.2,220.07c1.37-1.57,3.77-1.73,5.34-0.37
			c1.58,1.37,1.74,3.74,0.37,5.31c-1.37,1.57-3.77,1.73-5.34,0.37C329.99,224.02,329.83,221.64,331.2,220.07z M335.53,233.59
			c-0.09-2.08,1.54-3.83,3.63-3.92c2.09-0.09,3.85,1.53,3.94,3.61c0.09,2.08-1.54,3.83-3.63,3.92
			C337.38,237.29,335.61,235.67,335.53,233.59z M323.1,222.58c-2.09,0.15-3.9-1.4-4.06-3.47c-0.15-2.07,1.41-3.88,3.5-4.04
			c2.09-0.15,3.9,1.4,4.06,3.47C326.75,220.62,325.18,222.43,323.1,222.58z M328.86,249.04c0.15,2.07-1.41,3.88-3.5,4.04
			c-2.09,0.15-3.9-1.4-4.06-3.47c-0.15-2.07,1.41-3.88,3.5-4.04C326.89,245.41,328.71,246.97,328.86,249.04z M310.99,243.13
			c1.37-1.57,3.77-1.73,5.34-0.37c1.58,1.37,1.74,3.74,0.37,5.31c-1.37,1.57-3.77,1.73-5.34,0.37
			C309.78,247.08,309.62,244.7,310.99,243.13z M308.74,238.47c-2.09,0.09-3.85-1.53-3.94-3.61c-0.09-2.08,1.54-3.83,3.63-3.92
			c2.09-0.09,3.85,1.53,3.94,3.61C312.46,236.63,310.83,238.38,308.74,238.47z M315.35,226.36c-1.4,1.54-3.8,1.67-5.35,0.28
			c-1.55-1.39-1.67-3.77-0.27-5.32c1.4-1.54,3.8-1.67,5.35-0.28C316.63,222.43,316.75,224.81,315.35,226.36z M291.85,154.55
			c7.2-3.15,14.92-5.23,22.85-6.14c10.1-1.16,20.28-0.38,29.86,2.25c2.61,0.72,3.92,3.25,2.85,5.52l-23.17,49.24
			c-0.98,2.07-4.19,2.31-5.41,0.4l-29.1-45.39C288.38,158.35,289.36,155.64,291.85,154.55z M245.37,194.51
			c3.76-8.36,9.27-15.9,16.17-22.09c5.42-4.86,11.58-8.8,18.24-11.65c2.3-0.99,4.91,0.15,5.67,2.46l16.48,50.37
			c0.69,2.12-1.41,4.18-3.53,3.47l-50.61-16.91C245.45,199.39,244.34,196.79,245.37,194.51z M244.95,263.25
			c-4.05-9.02-6.35-18.91-6.72-29.01c-0.29-7.93,0.62-15.83,2.67-23.38c0.71-2.61,3.26-3.98,5.53-2.98l49.5,21.78
			c2.08,0.92,2.33,4.11,0.42,5.38l-45.48,30.18C248.77,266.61,246.05,265.71,244.95,263.25z M284.6,310.18
			c-8.48-3.56-16.16-8.88-22.52-15.61c-4.99-5.28-9.07-11.33-12.07-17.89c-1.04-2.27,0.05-4.88,2.37-5.69l50.32-17.46
			c2.12-0.73,4.23,1.31,3.55,3.44l-16.01,50.67C289.5,309.99,286.91,311.15,284.6,310.18z M355.91,313.44
			c-9.06,4.06-19.01,6.38-29.16,6.79c-7.97,0.32-15.92-0.56-23.52-2.57c-2.63-0.7-4.01-3.22-3-5.49l21.81-49.3
			c0.92-2.07,4.13-2.33,5.41-0.43l30.43,45.12C359.29,309.62,358.38,312.33,355.91,313.44z M403.8,268.28
			c-2.61,6.85-6.34,13.27-11.04,19c-5.98,7.29-13.38,13.27-21.68,17.54c-2.26,1.16-4.94,0.2-5.82-2.09l-19.22-49.78
			c-0.81-2.09,1.19-4.32,3.36-3.75l51.67,13.54C403.45,263.36,404.7,265.91,403.8,268.28z M402.74,253.94l-49.44-23.13
			c-2.08-0.97-2.31-4.17-0.38-5.38l45.74-28.85c2.1-1.33,4.82-0.35,5.91,2.13c3.14,7.16,5.21,14.85,6.09,22.73
			c1.13,10.04,0.31,20.17-2.36,29.69C407.57,253.71,405.02,255.01,402.74,253.94z"/>
	</g>
	<polygon class="st6" points="422.38,740.54 409.84,707.75 426.86,704.62 435.35,738.07 	"/>
	<polygon class="st6" points="328.38,738.71 325.98,710.88 343.9,710.88 340.19,737.45 	"/>
	<polygon class="st16" points="321.03,561.95 319.47,583.69 322.59,721.38 348.22,721.38 362.41,619.57 372.04,588.36 370.49,549.6 
			"/>
	<path class="st16" d="M395.07,555.54l-23.98-2.04l-0.02,37.66l37.08,130.31l25.56-4.53l-9.59-109.24c0,0,6.77-38.08,1.88-43.14
		c10.68-1.9,17,3.74,5.88-23.42C410.01,546.59,395.07,555.54,395.07,555.54z"/>
	<g>
		<polygon class="st7" points="328.77,737.65 314.04,747.73 316.06,754.71 344.74,750.83 340.4,737.65 		"/>
	</g>
	<g>
		<polygon class="st7" points="435.35,738.07 422.5,740.35 412.87,754.15 418.74,761.14 432.38,753.9 		"/>
	</g>
	<g>
		<g>
			<path class="st19" d="M310.94,571.31c10.85-2.33,44.12-23.46,53.48-23.25c34.88,0.78,34.11,26.35,72.09,33.33
				c37.98,6.98,61.86,9.32,57.28-0.38c0,0,0,0,0,0c-15.46-32.52-30.16-65.24-43.63-98.96c-6.86-17.19-13.48-34.69-23.47-50.36
				c-7.06-11.08-19.32-29.91-32.44-33c-0.27-0.06-0.55-0.13-0.83-0.19c-13.79-3.03-31.45-1.62-43.91,5.08
				c-2.36,1.27-4.47,2.97-6.55,4.65c-6.09,4.91-11.06,7.58-13.69,15.07c-2.28,6.5-2.81,13.6-4.07,20.34
				c-2.56,13.69-7.61,12.59-6.12,41.32c1.91,36.82-9.09,54.88-14.59,77.7c0,0-0.56,2.33-0.83,3.44
				C303.36,569.08,304.22,572.75,310.94,571.31z"/>
		</g>
	</g>
	<path class="st3" d="M372.18,397.68c0,0-28.68-3.88-34.88,41.08c-5.51,39.96-0.78,68.21-3.88,75.19
		c-3.1,6.98-13.95,54.26-13.95,54.26l37.21-12.4c0,0,14.73-4.65,69.76,23.25c0,0-13.06-49.56-19.38-76.74
		C399.31,468.99,399.31,397.68,372.18,397.68z"/>
	<g>
		<g>
			<path class="st7" d="M349.39,369.92c-2.4,7.2,1.07,14.88,4.12,21.45c2.7,5.82,3.64,9.65-3.22,11.22
				c-3.87,0.89-10.73,2.54-14.12-0.42c-2.57-2.24-1.12-9.17,0.12-11.92c0.95-2.1,3.48-3.17,4.38-5.29c0.37-0.88,0.42-1.85,0.44-2.8
				c0.05-3.88-0.48-7.77-1.59-11.5c-0.75-2.53-1.77-5.01-1.99-7.64c-0.33-3.81,2.37-8.25,3.78-11.75
				c2.63-6.51,11.8-15.25,19.48-10.14c1.75,1.16,2.77,3.13,3.62,5.05c0.51,1.15,0.99,2.34,1.01,3.6c0.06,5-4.51,5.84-7.66,8.22
				C353.87,360.94,350.92,365.33,349.39,369.92z"/>
		</g>
		<g>
			<path class="st6" d="M366.51,401.55c-6.66-1.57-11.87-7.16-14.37-13.53c-2.5-6.37-2.63-13.43-1.94-20.23
				c2.3-22.65,30.48-21.19,40.02-3.84C398.53,379.08,385.87,406.11,366.51,401.55z"/>
		</g>
		<g>
			<path class="st7" d="M384.69,371.1c0.29,3.54-1.57,7.48,0.37,10.45c0.87,1.32,2.32,2.12,3.55,3.11c3.36,2.72,5.1,7.31,4.39,11.57
				c7.09-0.27,14.18-0.55,21.27-0.82c1.07-0.04,2.19-0.1,3.11-0.65c1.96-1.18,2.06-3.93,1.93-6.22c-0.25-4.5-0.62-9.31-3.42-12.84
				c-1.3-1.64-3.04-2.87-4.33-4.51c-6.22-7.88-0.13-21.73-7.71-28.33c-3.38-2.94-8.28-3.16-12.42-4.88
				c-7.22-2.99-11.96-10.47-19.36-12.98c-13.97-4.75-27.51,12.29-19.23,24.74C359.6,359.89,383.53,356.84,384.69,371.1z"/>
		</g>
	</g>
	<g>
		<polygon class="st6" points="307.79,334.53 307.98,320.02 301.78,319.68 302.98,333.1 296.6,328.06 297.96,340.49 304.35,341.72 
					"/>
	</g>
	<g>
		<g>
			<polygon class="st19" points="291.94,340.62 294.75,394.27 322.52,453.07 344.58,412.56 319.47,389.52 305.73,339.38 			"/>
		</g>
	</g>
	<g>
		<polygon class="st6" points="366.78,418.92 365.35,405.15 367.47,401.48 370.46,410.94 372.93,409.58 372.78,421.34 
			367.04,422.32 		"/>
	</g>
	<g>
		<g>
			<polygon class="st19" points="363.68,421.26 386.87,469.59 409.02,501.38 423.41,470.6 375.45,415.3 			"/>
		</g>
	</g>
</g>
</svg>
