<svg xmlns="http://www.w3.org/2000/svg" viewBox="0 0 721.95 325.75"><defs><style>.cls-1{isolation:isolate;}.cls-2{fill:#dae5ef;}.cls-3{fill:#a0a7b5;}.cls-4{fill:#ffbeae;}.cls-5{fill:#ffb1a9;}.cls-6{fill:#322c74;}.cls-23,.cls-29,.cls-35,.cls-37,.cls-41,.cls-42,.cls-7,.cls-9{fill:none;}.cls-7,.cls-9{stroke:#1b1a56;}.cls-23,.cls-29,.cls-42,.cls-7{stroke-linecap:round;}.cls-35,.cls-37,.cls-41,.cls-42,.cls-7,.cls-9{stroke-miterlimit:10;}.cls-23,.cls-29,.cls-35,.cls-7,.cls-9{stroke-width:0.49px;}.cls-8{fill:#242366;}.cls-43,.cls-8{opacity:0.3;}.cls-24,.cls-38,.cls-43,.cls-8{mix-blend-mode:multiply;}.cls-10{fill:#f4a392;}.cls-11{fill:#f29788;}.cls-12{fill:#c7cddb;}.cls-13{fill:#bac1d1;}.cls-14{fill:#ffcf9f;}.cls-15{fill:#fff;}.cls-16{fill:#a54b42;}.cls-17{fill:#f79484;}.cls-18{fill:#e58373;}.cls-19{fill:#aab2c1;}.cls-20{fill:#4185c9;}.cls-21{fill:#173751;}.cls-22{fill:#7e96ba;}.cls-23{stroke:#657996;}.cls-23,.cls-29{stroke-linejoin:round;}.cls-24{fill:#6883aa;opacity:0.2;}.cls-25{fill:#5599e8;}.cls-26{fill:#498fc9;}.cls-27{fill:#20466b;}.cls-28{fill:#ffa3a5;}.cls-29{stroke:#4086cc;}.cls-30{fill:#06131e;}.cls-31{fill:#ff9692;}.cls-32{fill:#ef9d92;}.cls-33{fill:#232360;}.cls-34{fill:#4c4c9b;}.cls-35{stroke:#4c4c9b;}.cls-36,.cls-38{fill:#f7d6c3;}.cls-37{stroke:#ddaf99;stroke-width:0.45px;}.cls-38{opacity:0.5;}.cls-39{fill:#dd8d52;}.cls-40,.cls-43{fill:#6f87aa;}.cls-41{stroke:#89a7cc;}.cls-41,.cls-42{stroke-width:0.51px;}.cls-42{stroke:#6a80a0;}.cls-44{fill:#f6a866;}.cls-45{fill:#ffd3ca;}.cls-46{fill:#8ba6cc;}.cls-47{fill:#873a20;}.cls-48{fill:#4f322a;}.cls-49{fill:#f9c0b9;opacity:0.7;}.cls-50{fill:#a35868;}.cls-51{fill:#6a80a0;}.cls-52{fill:#ffc9c0;}.cls-53{fill:#4086cc;}.cls-54{fill:#ca7988;}.cls-55{fill:#8da5c6;}</style></defs><title>success</title><g class="cls-1"><g id="OBJECTS"><ellipse class="cls-2" cx="129.1" cy="320.06" rx="129.1" ry="5.69"/><path class="cls-3" d="M166.59,175.27s.6,11.59,7.28,11.22c0,0,3.1-.72,3.79-2.63s-4.38-3.36-4.38-3.36l-3.3-2.75" transform="translate(-10.72 -86.89)"/><path class="cls-4" d="M189,385.53l1.26,14.35a39.49,39.49,0,0,0,9.08.31,17.93,17.93,0,0,0,4.2-1.19,10,10,0,0,0,2.59-1.55l.27-12.65-14.39.61Z" transform="translate(-10.72 -86.89)"/><path class="cls-5" d="M189.89,385.73c5,1.24,13.61,1.51,13.61,1.51l.06,11.76a10,10,0,0,0,2.59-1.55l.27-12.65-14.39.61Z" transform="translate(-10.72 -86.89)"/><path class="cls-6" d="M206.15,397.46s-8.72,3.22-16.14.53c0,0-15.5,6.57-16.27,8s31.87.77,32.89.65S207.73,400.41,206.15,397.46Z" transform="translate(-10.72 -86.89)"/><path class="cls-4" d="M244,383.53l5.15,13.55a40.31,40.31,0,0,0,8.92-1.72,18.05,18.05,0,0,0,3.83-2.09,9.93,9.93,0,0,0,2.18-2.08L260.8,379l-13.9,3.78Z" transform="translate(-10.72 -86.89)"/><path class="cls-5" d="M244.89,383.53c5.15.1,13.6-1.55,13.6-1.55l3.41,11.29a9.93,9.93,0,0,0,2.18-2.08L260.8,379l-13.9,3.78Z" transform="translate(-10.72 -86.89)"/><path class="cls-6" d="M264.08,391.19s-7.79,5.08-15.61,4.1c0,0-13.66,9.84-14.08,11.45s31.24-6.32,32.21-6.67S266.28,393.72,264.08,391.19Z" transform="translate(-10.72 -86.89)"/><path class="cls-6" d="M222.7,251.42c-.2,1.32-.43,2.86-.71,4.55-.43,2.8-1,6-1.54,9.55-.82,5-1.76,10.57-2.69,16.15-.78,4.69-1.58,9.39-2.32,13.79-.55,3.25-1.08,6.33-1.55,9.13-1.38,8.14-2.35,13.78-2.35,13.78l-5.13,66.43c-7.92,2.27-17.39.73-17.39.73s-6.85-57.09-6.85-69.12c0-8.75,1.87-41.94,2.91-59.49.08-1.49.16-2.88.24-4.12.25-4.26.41-6.9.41-6.9l34.74,5.19Z" transform="translate(-10.72 -86.89)"/><path class="cls-7" d="M213.63,269.5s-6.45,33.08-9.37,49.62-4.78,66.29-4.78,66.29" transform="translate(-10.72 -86.89)"/><path class="cls-8" d="M217.76,281.67c-1.36,8.16-2.75,16.36-3.87,22.92l-1.56-29-.5-7.83a28.75,28.75,0,0,1,2.65,5.84A83.93,83.93,0,0,0,217.76,281.67Z" transform="translate(-10.72 -86.89)"/><path class="cls-6" d="M260.8,379C254,383.34,244,383.53,244,383.53l-21.14-52.82a85.4,85.4,0,0,1-5.54-21l-1.87-14.28-3.78-29-.95-7.28L222,256l24.4-6.91.13,7.13,1.16,60.22Z" transform="translate(-10.72 -86.89)"/><path class="cls-9" d="M234.66,254.41s-1.2,36.49,2,60.09S254,381.28,254,381.28" transform="translate(-10.72 -86.89)"/><path class="cls-8" d="M246.52,256.19a66.15,66.15,0,0,0-8.06,3.58,69.73,69.73,0,0,1-18,5.75,57.46,57.46,0,0,1-8.79.92,36.69,36.69,0,0,1-6-.35,45.38,45.38,0,0,1-20.6-9.17c.08-1.49.16-2.88.24-4.12a29.17,29.17,0,0,1,3.17,0c.32.12,16.46-.45,17-.45.22,0,6.94-.59,14.95-1.3l2.23.33c-.2,1.32-.43,2.86-.71,4.55l24.4-6.91Z" transform="translate(-10.72 -86.89)"/><path class="cls-10" d="M192.7,181.47s-3.76.88-9.25,1.8l-.83.13c-11.16,1.83-28.57,3.66-36.34-1h0a11,11,0,0,1-4.49-3.4c-.08-.12-.17-.23-.25-.36a21.27,21.27,0,0,1-1.61-3.2l0,0c-4.37-11.05-2.81-29.36-2-36a6.33,6.33,0,0,0-.81-3.9c-1.88-3.29-4-11.1-3-11.91,1.2-1,2.87,3.53,3.35,4.88-.53-1.73-2.71-9.15-1.62-9.69s4,8.8,4.11,9.28c-.12-.51-3-12.84-1.26-13.07s3.95,11,4.19,12.19c-.21-1.13-1.8-10.36-.12-10s2.47,7,3.09,9.52c0,.2.53.66.73-.2.29-1.3.59-5.93,2-5.62.62.14.79,2,1,4.19a26,26,0,0,1-.41,8.19,6.19,6.19,0,0,1-1.21,2.5,5.34,5.34,0,0,0-1.14,4.31c.9,6.4,6.23,23,7.38,26.21,2.56-.62,11.92-3.22,18.7-5.1,7.09-2,16.38-4.14,16.38-4.14Z" transform="translate(-10.72 -86.89)"/><path class="cls-11" d="M183.87,180.89s-.13,1-.42,2.38l-.83.13c-11.16,1.83-28.57,3.66-36.34-1h0a11,11,0,0,1-4.49-3.4s9.74,6.92,31.95,2.94c0,0,2.37-3.79-.85-16.86C170.2,154.26,183.87,180.89,183.87,180.89Z" transform="translate(-10.72 -86.89)"/><path class="cls-10" d="M267.9,204.57c-2.86,3.94-7.95,7.81-10.45,9.58-.9.64-1.47,1-1.47,1l-10.46-8.82,8.4-12.82,2.79-4.27c1.62,2,3.9,5.13,6,8l.09.11C265.53,201.18,267.9,204.57,267.9,204.57Z" transform="translate(-10.72 -86.89)"/><path class="cls-12" d="M249.2,249.5s-.89.56-2.45,1.45c-6.44,3.67-24.47,12.89-39.94,11.33-19.21-1.95-24.64-8.92-24.64-8.92l1.92-67.44-10.21.58a3.27,3.27,0,0,0,1.38-1.42c1.28-2.18,1.59-6.22,1.09-9.8-1.65-11.72-6.37-13.47-6.37-13.47s14-4.17,19.19-5.17c7.45-1.42,42,6,46.16,8.45a3.17,3.17,0,0,1,.88.81L241,203c.75,6.66,2.44,16.45,4.07,25.35C247.16,239.63,249.2,249.5,249.2,249.5Z" transform="translate(-10.72 -86.89)"/><path class="cls-13" d="M245,228.3c-4.49-14.18-7.83-28.61-8-29.25L241,203C241.72,209.61,243.41,219.4,245,228.3Z" transform="translate(-10.72 -86.89)"/><path class="cls-12" d="M259.66,188.93c-5.29-5.93-19.76-19.57-23.45-23L241,203l4.77,3.59C259.66,201,259.66,188.93,259.66,188.93Z" transform="translate(-10.72 -86.89)"/><path class="cls-14" d="M199.84,127.26s-1.05,1.06-1.31,3.87a6.24,6.24,0,0,0,2.1,4.82l2.9-5.88" transform="translate(-10.72 -86.89)"/><path class="cls-10" d="M221.29,163.59c1.92,3.75-1.91,7.77-5.44,8.68s-12.78,1.89-16.69-1.74a5.08,5.08,0,0,1-.76-.85,7.42,7.42,0,0,1-.65-7.43,6.87,6.87,0,0,1,4.81-3.57l.06-1.05A10.19,10.19,0,0,1,196.9,153a9.76,9.76,0,0,1-1.07-7.19,13.08,13.08,0,0,1,.73-2.19c.39-.9.78-1.81,1.15-2.72a35.87,35.87,0,0,0,1.44-4.16c2.94-10.82,13-14,20-9.19,4.56,3.14,6.19,12.14,1.7,20.31l-.85,1.51c-1.15,2.21-3,6.44-2.19,9.67a6.39,6.39,0,0,0,1.88,2.64l.08.09a6.48,6.48,0,0,1,1.49,1.85Z" transform="translate(-10.72 -86.89)"/><path class="cls-14" d="M199.58,121.21s-2,7.77,2.9,11.41c2.91,2.14,13.07,2.19,14.21,3.77s-1.6,7.55-1,8,2.94-4.93,4.75-3.14c1.41,1.39-2.12,12.13-2.12,12.13s2.51-1.56,5.6-7.28,8.73-15.49.83-17.86C221.1,118.31,202.65,122.7,199.58,121.21Z" transform="translate(-10.72 -86.89)"/><path class="cls-11" d="M202.62,157.62s5.19.84,8.41-.94c0,0-4,4.16-8.56,4.54Z" transform="translate(-10.72 -86.89)"/><path class="cls-15" d="M198.43,146.81a19.16,19.16,0,0,0,7.33,3.08s-1.35,4-5.27,2.38S198.43,146.81,198.43,146.81Z" transform="translate(-10.72 -86.89)"/><path class="cls-15" d="M207.6,142c-.42,1.21-.28,2.36.32,2.57s1.41-.62,1.83-1.83.27-2.36-.32-2.56S208,140.75,207.6,142Z" transform="translate(-10.72 -86.89)"/><path class="cls-16" d="M207.54,142.4c-.3.89-.2,1.74.24,1.89s1-.45,1.34-1.35.2-1.73-.23-1.88S207.85,141.51,207.54,142.4Z" transform="translate(-10.72 -86.89)"/><path class="cls-14" d="M210,137.55a3.8,3.8,0,0,1,2.66,2.26c.37,1.26-3.5-1.45-3.66-1.84S209.32,137.39,210,137.55Z" transform="translate(-10.72 -86.89)"/><path class="cls-15" d="M200.15,138.78c-.41,1.21-.27,2.36.32,2.57s1.41-.62,1.83-1.83.27-2.36-.32-2.56S200.57,137.57,200.15,138.78Z" transform="translate(-10.72 -86.89)"/><path class="cls-16" d="M200.1,139.22c-.31.89-.21,1.74.23,1.89s1-.45,1.35-1.35.2-1.73-.24-1.88S200.4,138.33,200.1,139.22Z" transform="translate(-10.72 -86.89)"/><path class="cls-14" d="M201.18,134.28a3.82,3.82,0,0,1,3.17,1.47c.7,1.12-3.75-.46-4-.79S200.5,134.31,201.18,134.28Z" transform="translate(-10.72 -86.89)"/><path class="cls-17" d="M212,148.64a2.42,2.42,0,1,1-1.37-3.32A2.54,2.54,0,0,1,212,148.64Z" transform="translate(-10.72 -86.89)"/><path class="cls-17" d="M199.36,144.25a2.54,2.54,0,0,1-3.16,1.7,1.76,1.76,0,0,1-.37-.17,11.72,11.72,0,0,1,.73-2.19c.39-.91.78-1.82,1.15-2.73a1.64,1.64,0,0,1,.28.07A2.56,2.56,0,0,1,199.36,144.25Z" transform="translate(-10.72 -86.89)"/><path class="cls-18" d="M201.85,143.72s-.84.63-1,1.2.58,1.41,1.37,1.69a2.59,2.59,0,0,1-.4-.33,1.84,1.84,0,0,1-.24-2.23A3.29,3.29,0,0,1,201.85,143.72Z" transform="translate(-10.72 -86.89)"/><path class="cls-10" d="M219.78,140.88s4.22-.22,3.29,4.23c-.81,4-4,5.25-5.85,3.67S217.92,140.91,219.78,140.88Z" transform="translate(-10.72 -86.89)"/><path class="cls-18" d="M219.53,143.73c-.27.61.33,1.51-.11,2s-.9.34-1.07.81.6.94,1.83.19a2.56,2.56,0,0,0,1-2.5C221,143.2,220,142.76,219.53,143.73Z" transform="translate(-10.72 -86.89)"/><path class="cls-10" d="M271,220.39c-1.66,4.06-6.06,9.06-10.56,13.44s-9.13,8.18-11.23,9.85c-1.87,1.52-1.46,3-2.12,4.57-1.14,2.63-3.11,4.76-4.23,4.58s-1.19-1-1.19-1a1.9,1.9,0,0,1-1.55-.34c-.54-.54-.43-.84-.43-.84a2.25,2.25,0,0,1-1.3-.47,1.49,1.49,0,0,1-.43-1.45c-.06,0-1.3,0-1.72-.89s.49-2.08.57-2.2c-.73.35-2,.51-2.14-.18s2.53-3.94,4.3-4.25a6.06,6.06,0,0,0,3-1.45,8.36,8.36,0,0,0,1.23-1.39c.37-.48.63-.88.63-.88,1.56-3,3.77-7.13,5.87-11,0,0,0,0,0,0,3.25-6,6.24-11.34,6.24-11.34l.67-1.78,6-16.12.09.11C264,198.71,274.66,211.34,271,220.39Z" transform="translate(-10.72 -86.89)"/><path class="cls-11" d="M238.78,244.76a16.62,16.62,0,0,1-2.1,1.09l.13-.19a11.17,11.17,0,0,0,1.68-1.11c.58-.45,1.49-1.43,1.71-1.13S239.57,244.25,238.78,244.76Z" transform="translate(-10.72 -86.89)"/><path class="cls-11" d="M257.45,214.15l.75.73s-5.59,7.26-8.46,11.62c3.25-6,6.24-11.34,6.24-11.34l-10.22-8.63c8.68-3.47,11.94-9.48,13.16-13.5-.18.76-2.68,10.06-8.5,14.32l6.23,6Z" transform="translate(-10.72 -86.89)"/><path class="cls-11" d="M215.63,172.52c-4,1.09-12.56,1.64-16.47-2h0s5.09,2.71,12.88,1.62,9.32-5.58,9.24-8.56C223.31,167.54,219.14,171.55,215.63,172.52Z" transform="translate(-10.72 -86.89)"/><path class="cls-13" d="M184.21,184l-.12,1.92-10.21.58a3.27,3.27,0,0,0,1.38-1.42C177,184.93,182,184.44,184.21,184Z" transform="translate(-10.72 -86.89)"/><path class="cls-19" d="M214.35,188.31h12.16a1.28,1.28,0,0,1,1.29,1.22,80.9,80.9,0,0,1,.06,9.73c-.37,3.16-4.14,6.91-6.69,7.59s-6.94-5.77-7.67-8.08c-.57-1.82-.32-7.26-.18-9.49A1,1,0,0,1,214.35,188.31Z" transform="translate(-10.72 -86.89)"/><path class="cls-4" d="M85.55,385.53l-2,14.35a39.57,39.57,0,0,1-9.09.31A18,18,0,0,1,70.26,399a10,10,0,0,1-2.59-1.55l.48-12.65,14.4.61Z" transform="translate(-10.72 -86.89)"/><path class="cls-5" d="M84.69,385.73c-5,1.24-13.62,1.51-13.62,1.51L70.26,399a10,10,0,0,1-2.59-1.55l.48-12.65,14.4.61Z" transform="translate(-10.72 -86.89)"/><path class="cls-20" d="M95.29,249s2.18,4-6.21,6.41-9.49-11.8-9.49-11.8h8l6.49,2.8Z" transform="translate(-10.72 -86.89)"/><path class="cls-4" d="M42.37,386.51l-2.77,11.8c-2.89.41-7.09,1.26-10.12.9a14,14,0,0,1-4.37-1.27,8.63,8.63,0,0,1-1.41-.81l1.06-12.33L37.41,386Z" transform="translate(-10.72 -86.89)"/><path class="cls-5" d="M40.67,386.67c-5.53.78-14.24.11-14.24.11l-1.32,11.16a8.63,8.63,0,0,1-1.41-.81l1.06-12.33L37.41,386Z" transform="translate(-10.72 -86.89)"/><path class="cls-21" d="M23.7,397.13s8.72,3.23,16.14.54c0,0,15.49,6.56,16.26,8s-31.86.77-32.88.64S22.12,400.09,23.7,397.13Z" transform="translate(-10.72 -86.89)"/><path class="cls-22" d="M67,250s-.25,2.48-.67,6.59c-.69,6.86-1.87,18.24-3.23,30.14-.53,4.72-1.1,9.52-1.66,14.15-.34,2.73-.67,5.41-1,8-.94,7.22-1.86,13.56-2.68,17.85-3.56,18.81-15.4,59.85-15.4,59.85a43.91,43.91,0,0,1-17.61-1.71s1.51-25.24,5.77-58.3c-.38-22.38-2.28-57.08-3.07-70.73-.12-2.13-.21-3.75-.28-4.73,0-.7-.06-1.08-.06-1.08Z" transform="translate(-10.72 -86.89)"/><path class="cls-23" d="M56.11,270.48S54,308,50.62,325.85s-12.14,59.68-12.14,59.68" transform="translate(-10.72 -86.89)"/><path class="cls-24" d="M63.12,286.69c-.84,7.5-1.77,15.22-2.67,22.12-3.63-15-9-41.3-9.23-42.2Z" transform="translate(-10.72 -86.89)"/><path class="cls-22" d="M94.56,320.17c-1.43,31.31-9,65.36-9,65.36-8.09,2-17.4-.73-17.4-.73s.45-49.08-.43-60.88c-1.64-6.36-3.92-14.73-6.26-23.08-4.36-15.54-8.9-31-9.8-33.12a61.83,61.83,0,0,1-2.8-8.64A78.6,78.6,0,0,1,47.18,250c0-.39-.09-.75-.14-1.09-.19-1.75-.24-2.8-.24-2.8l43.78-10.22c.24,1.75.49,4.45.73,7.81.18,2.36.35,5.05.54,8C93.1,272.63,94.32,306.15,94.56,320.17Z" transform="translate(-10.72 -86.89)"/><path class="cls-24" d="M91.85,251.65c-5.14.33-15.23,2.86-25.5,4.9a136,136,0,0,1-17.49,2.53c-.7,0-1.39.06-2.06.07-10.89.19-16.92-2.14-19.34-3.38-.12-2.13-.21-3.75-.28-4.73L28.79,250l2.88-2,15.37.86,3.58.19,40.69-5.4C91.49,246,91.66,248.71,91.85,251.65Z" transform="translate(-10.72 -86.89)"/><path class="cls-23" d="M90.53,249.06s.67,18.35-7.24,21.42" transform="translate(-10.72 -86.89)"/><path class="cls-23" d="M81.13,248s4.82,47,5.65,70.36-5,66.43-5,66.43" transform="translate(-10.72 -86.89)"/><path class="cls-4" d="M152.28,173.54s0,0,0,0a19.77,19.77,0,0,1-.63,3c-2.89,9.87-26.24,7.6-40,5.34-5.92-1-10.08-1.93-10.08-1.93l3.53-24.83s7,2.13,13.94,4.47c6.59,2.22,15.08,4.66,17.64,5.27.36-3.4,1.36-17.72.76-24.16a5.49,5.49,0,0,0-2.11-3.93,6.16,6.16,0,0,1-1.77-2.15,26.27,26.27,0,0,1-2.29-7.87c-.34-2.16-.62-4,0-4.29,1.3-.63,2.66,3.8,3.25,5,.4.79.76.22.76,0,0-2.56-.85-9.19.8-10s2.14,8.61,2.19,9.75c0-1.24-.47-12.66,1.25-12.83s1.81,12.49,1.81,13c0-.51.55-10.28,1.84-10s.77,8.39.67,9.93c.12-1.22.68-6.37,2.13-5.66,1.17.56,1,8.64-.11,12.27a6.41,6.41,0,0,0,.12,4C148.21,144.34,154,161.78,152.28,173.54Z" transform="translate(-10.72 -86.89)"/><path class="cls-5" d="M152.27,173.58a19.77,19.77,0,0,1-.63,3c-2.89,9.87-26.24,7.6-40,5.34.74-4.29,3.53-13.68,3.9-15s3.9-6.89,3.9-6.89l6.56,1.83s2.24,7.16-1.41,18.27c0,0,11.38,1.84,18.28.82C149.36,180,151.8,175.73,152.27,173.58Z" transform="translate(-10.72 -86.89)"/><path class="cls-4" d="M42.37,195.62l-10.7,34.59s-1-1.63-2.25-4c-2.42-4.57-5.94-11.9-5.78-15.82.17-4.36,5.2-12.29,7.87-16.19,1-1.41,1.62-2.29,1.62-2.29l.4.16Z" transform="translate(-10.72 -86.89)"/><path class="cls-5" d="M42.37,195.62l-10.7,34.59s-1-1.63-2.25-4c2.44-13,6.55-26.93,6.55-26.93-2-1.41-4.46-5.08-4.46-5.08l2-2.13Z" transform="translate(-10.72 -86.89)"/><path class="cls-25" d="M53.86,165.63l-2.57,11.84s-2.92,24.64-8.92,22.7l-1-.35a33.58,33.58,0,0,1-4.82-2.3,44.17,44.17,0,0,1-5.68-3.84C36,186.34,53.32,166.26,53.86,165.63Z" transform="translate(-10.72 -86.89)"/><path class="cls-26" d="M41.36,199.82a33.58,33.58,0,0,1-4.82-2.3c1.89-3.57,7.75-14.37,12.76-20.71C53.75,171.2,45.89,189.56,41.36,199.82Z" transform="translate(-10.72 -86.89)"/><path class="cls-25" d="M107,155.07a27.91,27.91,0,0,0-7.25-1.31c-8.56-.4-29.19-.28-42.54,8.78C40,174.22,24.85,253.2,24.85,253.2s12.22,6,31.52,2.43,34.09-10.24,39.17-5.7a136.06,136.06,0,0,1,.56-22.68c1.89-16.71,5.94-38,6.65-44.27,0,0,9.57,2.27,17,2.27,0,0,8.22-12,6.19-23.4C118.79,159,111.2,156.42,107,155.07Z" transform="translate(-10.72 -86.89)"/><path class="cls-4" d="M98.48,138.14c0,.5-.52.77-1.08.91a22.88,22.88,0,0,1-1.9,7.31A6.38,6.38,0,0,1,94,148.42a10.91,10.91,0,0,1-9.43,2.22,20.73,20.73,0,0,1-8.2-3.93c-5.6-3.89-9.8-18.06-4.71-25.89s15.84-6.92,21.88-.51c2.89,3.07,4.12,8.84,4.13,14.41A9.17,9.17,0,0,1,98.48,138.14Z" transform="translate(-10.72 -86.89)"/><path class="cls-5" d="M95.5,146.36A6.38,6.38,0,0,1,94,148.42a10.91,10.91,0,0,1-9.43,2.22l1.61-1.76A11.39,11.39,0,0,0,95.5,146.36Z" transform="translate(-10.72 -86.89)"/><path class="cls-4" d="M71.32,138.78s3,10.38-2.22,18.24c2.48,1.41,7.75,1.31,12.19.09a29.73,29.73,0,0,0,7.41-3.32s-2.3-4.65-1-8.9" transform="translate(-10.72 -86.89)"/><path class="cls-21" d="M67.67,397.46s8.72,3.22,16.14.53c0,0,15.49,6.57,16.26,8s-31.86.77-32.89.65S66.08,400.41,67.67,397.46Z" transform="translate(-10.72 -86.89)"/><path class="cls-4" d="M59.34,398.49" transform="translate(-10.72 -86.89)"/><path class="cls-27" d="M97.64,112.65c-4.91-3.6-20.52-3-23.72,5l-.25,0a7.28,7.28,0,0,0-5.65-1,10.48,10.48,0,0,1,3,1.06,6.19,6.19,0,0,0-5.6,5.5c-.73,5,3.73,13.59,5.67,18.72a2.51,2.51,0,0,0,1.68,1.54c1.62.46,3.85.7,7.72-.65a2.05,2.05,0,0,0,1.37-2c-.14-5.48-.1-12.15,3.16-10.32,1,.55,1.78,3.25,3.24,3.34,2.12.12,1.9-3.86,2.33-6.38,1.23-7.24,4-1.86,7.17-4.63S101.53,115.51,97.64,112.65Z" transform="translate(-10.72 -86.89)"/><path class="cls-27" d="M73.62,118.46s-1.43-2.5,0-6.85c0,0,.25,3.78,1.79,5.68" transform="translate(-10.72 -86.89)"/><path class="cls-4" d="M85.31,130.81a3,3,0,0,0-4.87.11c-1.38,1.65-.81,6.12,1,6.93a3.37,3.37,0,0,0,4.34-1.33" transform="translate(-10.72 -86.89)"/><path class="cls-28" d="M95.68,137.73c.16,2.05-.92,3.8-2.42,3.92s-2.84-1.44-3-3.49.92-3.81,2.41-3.93S95.51,135.68,95.68,137.73Z" transform="translate(-10.72 -86.89)"/><path class="cls-29" d="M102.15,154.31A11.87,11.87,0,0,0,90.8,161c-3.65,7.42.72,18.52,11.13,21.72" transform="translate(-10.72 -86.89)"/><path class="cls-29" d="M93.26,176.88s-14.52,36.54-12.82,69" transform="translate(-10.72 -86.89)"/><path class="cls-30" d="M96.86,141.8s-1.1,2.71-4.13.59A4.35,4.35,0,0,0,96.86,141.8Z" transform="translate(-10.72 -86.89)"/><path class="cls-15" d="M96.22,130.53c.12,1.17-.24,2.18-.82,2.24s-1.14-.84-1.27-2,.24-2.18.81-2.24S96.09,129.35,96.22,130.53Z" transform="translate(-10.72 -86.89)"/><path class="cls-27" d="M96.18,130.93c.09.87-.18,1.61-.6,1.66s-.85-.62-.94-1.49.18-1.61.6-1.65S96.08,130.07,96.18,130.93Z" transform="translate(-10.72 -86.89)"/><path class="cls-27" d="M93.88,126a3.52,3.52,0,0,0-1.95,2.58c-.08,1.21,2.86-2,2.93-2.4S94.44,125.73,93.88,126Z" transform="translate(-10.72 -86.89)"/><path class="cls-31" d="M83.81,133c.12.61-.6,1.3-.31,1.85s.74.49.8.94-.73.73-1.69-.2a2.38,2.38,0,0,1-.37-2.45C82.56,132.19,83.64,132,83.81,133Z" transform="translate(-10.72 -86.89)"/><ellipse class="cls-2" cx="622.26" cy="320.06" rx="99.69" ry="5.69"/><path class="cls-32" d="M631.71,165.53s2.14-1.14,3,3.37,2.15,16,5.76,24.78c2.73,6.66,6.18,8.69,6.18,8.69a9.56,9.56,0,0,0,7.58.27c5.07-1.82-9-18.87-9-18.87S638.59,168,638.7,167.1s-.56-7.08-.56-7.08l-5.53-2.44Z" transform="translate(-10.72 -86.89)"/><path class="cls-4" d="M706.53,382.64l4.92,13.55a40.18,40.18,0,0,0,8.86-2.06,17.77,17.77,0,0,0,3.74-2.23,9.93,9.93,0,0,0,2.1-2.16l-3-12.29-13.75,4.3Z" transform="translate(-10.72 -86.89)"/><path class="cls-5" d="M707.42,382.61c5.15-.09,13.54-2.06,13.54-2.06l3.09,11.35a9.93,9.93,0,0,0,2.1-2.16l-3-12.29-13.75,4.3Z" transform="translate(-10.72 -86.89)"/><path class="cls-6" d="M726.15,389.74s-7.59,5.37-15.45,4.69c0,0-13.28,10.34-13.64,12s31-7.47,31.94-7.86S728.45,392.19,726.15,389.74Z" transform="translate(-10.72 -86.89)"/><path class="cls-4" d="M676.49,385.16l1.26,14.35a39.49,39.49,0,0,0,9.08.31,17.93,17.93,0,0,0,4.2-1.19,10,10,0,0,0,2.59-1.55l.27-12.65L679.5,385Z" transform="translate(-10.72 -86.89)"/><path class="cls-5" d="M677.36,385.36c5,1.24,13.61,1.5,13.61,1.5l.06,11.77a10,10,0,0,0,2.59-1.55l.27-12.65L679.5,385Z" transform="translate(-10.72 -86.89)"/><path class="cls-33" d="M693.61,397.09s-8.71,3.22-16.13.53c0,0-15.5,6.57-16.27,8s31.87.77,32.89.65S695.2,400,693.61,397.09Z" transform="translate(-10.72 -86.89)"/><path class="cls-33" d="M669.62,311.1l6.87,74.06a50.81,50.81,0,0,0,17.4-.73l4.35-74.74Z" transform="translate(-10.72 -86.89)"/><path class="cls-33" d="M674.92,246.71s-5.61,61.08-5.3,64.39,22.3,4.6,28.62,1.59c3.18-11,14.7-67.16,14.7-67.16" transform="translate(-10.72 -86.89)"/><path class="cls-6" d="M725.38,245.53l-.2,1c-.68,3.28-2.92,14.14-5.48,26.25-3.4,16-7.35,34.13-9,39.9-6.32,3-28.33,1.71-28.63-1.6s1.51-65.56,1.51-65.56Z" transform="translate(-10.72 -86.89)"/><path class="cls-34" d="M725.18,246.54c-.68,3.28-2.92,14.14-5.48,26.25h0s-3.63-3.06-4.08-5.32.75-19,.75-19l1.13-3,1.73-4.53,5.68,3.9.1.63Z" transform="translate(-10.72 -86.89)"/><path class="cls-6" d="M682,311.39l24.51,71.76a46.5,46.5,0,0,0,16.62-5.7l-13-71.85Z" transform="translate(-10.72 -86.89)"/><path class="cls-35" d="M701.46,249.87s-6.1,48.45-4.4,59.88,17,68.84,17,68.84" transform="translate(-10.72 -86.89)"/><path class="cls-35" d="M690.56,252.65s-3,18.81,8.2,21.51" transform="translate(-10.72 -86.89)"/><path class="cls-35" d="M691.61,254s-1.53,16.89,7.28,18.78" transform="translate(-10.72 -86.89)"/><path class="cls-4" d="M683.24,147.87s-.5,8.45,4,13.06-5.49,5.37-5.49,5.37l-6.25,2.26a10,10,0,0,0-1.55-5.45,17.86,17.86,0,0,1-1.91-3.58l2.79-6.62" transform="translate(-10.72 -86.89)"/><path class="cls-36" d="M726.87,245s-6.26,7.4-20.61,10.27a2.23,2.23,0,0,1-2-.6c-.77-.74-1.74-1.41-2.58-1.19a2.76,2.76,0,0,0-1.58,1.55,2.23,2.23,0,0,1-1.86,1.26h0c-10.12.6-18.47-7.86-24-7.71,0,0-.12-31.56-2.94-47.9A43.57,43.57,0,0,0,670,195c0-.1-.05-.18-.07-.27-3.59-13,26-33.84,26-33.84s12.07,9.43,20.32,42.35C721.6,224.88,726.87,245,726.87,245Z" transform="translate(-10.72 -86.89)"/><path class="cls-37" d="M690.19,187.59s7.88,21.11,11.16,63.21" transform="translate(-10.72 -86.89)"/><path class="cls-38" d="M699.38,182.74c-7.8,9.74-19,15.23-19,15.23l-1.73-1.73a81.89,81.89,0,0,1-7.34,4.45A43.57,43.57,0,0,0,670,195c0-.1-.05-.18-.07-.27l14.76-8.91,10.06-4.36Z" transform="translate(-10.72 -86.89)"/><path class="cls-4" d="M694.12,182.6s-3.27,2.71-8.16,6.23l-2.08,1.48c-11.55,8.06-29.56,18.66-36.13,11.56a22.92,22.92,0,0,1-1.9-2.39l0,0c-3-4.27-5.1-10.15-6.67-16a133,133,0,0,1-3.06-15.64,6.49,6.49,0,0,0-1-2.85c-.69-.71-1.52-.54-2-2.44s.31-6.73,0-9.21-3.13-9.07-3.08-10.3.89-1.41,2,.41,4,7.9,4.8,9.21,3.2,6.6,4.77,10.35a5.37,5.37,0,0,1,.35,1.23c2.39,6.06,12.21,17.62,14,20.5,2-1.69,8.53-7.66,13.45-12.58a72.45,72.45,0,0,1,11.3-9Z" transform="translate(-10.72 -86.89)"/><path class="cls-5" d="M683.88,190.31c-11.55,8.06-29.56,18.66-36.13,11.56a19.45,19.45,0,0,0,12.16-1.18c6-2.83,15.91-8,15.91-8s-6.13-13.4-6.5-15.89,13.27,9.56,13.27,9.56S683.2,188.13,683.88,190.31Z" transform="translate(-10.72 -86.89)"/><path class="cls-36" d="M668,173.33s4.25,13,13.62,22.38c0,0,13.95-6.74,18-13.34s1-23.45-9.63-23.66C681.42,158.53,668,173.33,668,173.33Z" transform="translate(-10.72 -86.89)"/><path class="cls-4" d="M675.44,131.18c-5.09-2.63-18.28.6-15.65,10.08a16.73,16.73,0,0,1,.75,4.07,25.16,25.16,0,0,1-.79,6,7.4,7.4,0,0,0-.62,2.79,1.87,1.87,0,0,0,2.58,1.08h0c1.07,6,3,9.22,7,9.34,4.78.15,11.4-4.81,13.51-10.83S683.74,135.46,675.44,131.18Z" transform="translate(-10.72 -86.89)"/><path class="cls-27" d="M655.36,134.37c-.62,1.18.25,2.65,1.37,3.38a5.62,5.62,0,0,0,4.77.6,1,1,0,0,1,.73-.08.94.94,0,0,1,.38.45,8.62,8.62,0,0,0,1.93,2.68,3.24,3.24,0,0,0,3.09.72c.88-.32,1.62-1.16,2.55-1.07s1.44,1,1.78,1.82a3.84,3.84,0,0,0,1.46,2.18c1,.52,2.24-.12,3.2-.75s2.15-1.3,3.2-.83a2.75,2.75,0,0,1,1.35,1.87,12.9,12.9,0,0,0,.65,2.28c.19.39,1,1,1.65.6a2.82,2.82,0,0,0,1.32-2.6c-.09-.9-.62-1.7-.78-2.58-.32-1.77.84-3.45,1.06-5.24a5.19,5.19,0,0,0-1.44-4.25c-.75-.76-1.74-1.3-2.26-2.22-.61-1.09-.42-2.43-.63-3.66a5.32,5.32,0,0,0-2.55-3.7,4.85,4.85,0,0,0-4.46-.18c-1.54.74-2.61,2.32-4.24,2.84a3.67,3.67,0,0,1-3.09-.43c-.8-.53-1.37-1.36-2.19-1.86a3.31,3.31,0,0,0-5,2.26c-.19,1.06.12,2.24-.44,3.15-.86,1.42-3.51,1.4-3.7,3.52C655,134.18,655.36,134.37,655.36,134.37Z" transform="translate(-10.72 -86.89)"/><path class="cls-28" d="M671.84,151.76c.56,1.87-.18,3.75-1.66,4.19s-3.13-.71-3.69-2.58.18-3.74,1.66-4.19S671.28,149.89,671.84,151.76Z" transform="translate(-10.72 -86.89)"/><path class="cls-4" d="M675.07,145.1s-.34-2.81,2.14-3.21c3.32-.53,3.82,3.47,3.69,5.84-.17,3-3.44,3.28-4.37,2A11.59,11.59,0,0,1,675.07,145.1Z" transform="translate(-10.72 -86.89)"/><path class="cls-31" d="M675.07,145.1a3,3,0,0,1,0-.8,2.53,2.53,0,0,1,2.16-2.57,3.28,3.28,0,0,1,1.63.1,2.93,2.93,0,0,1,1.36,1.13,5.47,5.47,0,0,1,.7,1.65,10.38,10.38,0,0,1,.23,1.74,9.75,9.75,0,0,1-.05,1.71,3,3,0,0,1-.63,1.51,2.78,2.78,0,0,1-1.2.83,2.62,2.62,0,0,1-2.1-.14,1.5,1.5,0,0,1-.47-.36l-.13-.16.15.14a1.48,1.48,0,0,0,.49.3,2.56,2.56,0,0,0,2,0,2.51,2.51,0,0,0,1-.79,2.83,2.83,0,0,0,.5-1.36,8.83,8.83,0,0,0,0-1.63,10.52,10.52,0,0,0-.25-1.67,3.39,3.39,0,0,0-1.76-2.51,3.12,3.12,0,0,0-1.46-.14,2.4,2.4,0,0,0-1.19.49,2.81,2.81,0,0,0-.91,1.76A3.36,3.36,0,0,0,675.07,145.1Z" transform="translate(-10.72 -86.89)"/><path class="cls-31" d="M676.87,144.9c.16.6,1.1.92,1.07,1.54s-.47.76-.33,1.19,1,.35,1.45-.89a2.39,2.39,0,0,0-.7-2.38C677.68,143.66,676.63,144,676.87,144.9Z" transform="translate(-10.72 -86.89)"/><path class="cls-27" d="M662.69,142.89s3.16,0,3.73.57-.59.73-1.51.69-2.51-.17-2.8-.53S662.07,142.88,662.69,142.89Z" transform="translate(-10.72 -86.89)"/><path class="cls-15" d="M664.09,158.93a12.28,12.28,0,0,0,4.34-.53,2.2,2.2,0,0,1-1.85,2.53C664.44,161.25,664.09,158.93,664.09,158.93Z" transform="translate(-10.72 -86.89)"/><path class="cls-27" d="M662,146.33a2,2,0,0,1,2-1.52,2.11,2.11,0,0,1,2,1.79c0,.28-.44-1.11-1.92-1.13-1,0-1.31.95-1.45,1.17C662.25,147.13,661.85,146.74,662,146.33Z" transform="translate(-10.72 -86.89)"/><path class="cls-39" d="M602,259.64s.89,3.37-6.33,4.33-4.57-10-4.57-10l3.72-.56a14.32,14.32,0,0,1,2.94.67l1.8,1.81,1.47.56Z" transform="translate(-10.72 -86.89)"/><path class="cls-4" d="M519,339.34l-10.25,2.6a29.32,29.32,0,0,1-2.41-6.23,12.88,12.88,0,0,1-.19-3.2,7.26,7.26,0,0,1,.45-2.17l8.7-3.24,3.07,10.12Z" transform="translate(-10.72 -86.89)"/><path class="cls-5" d="M515.88,339.34c-1.82-3.2-4.38-8.67-4.38-8.67l-5.38,1.84a7.26,7.26,0,0,1,.45-2.17l8.7-3.24,3.07,10.12Z" transform="translate(-10.72 -86.89)"/><path class="cls-22" d="M506.56,330.35s-.12,6.82,3.53,11.32c0,0-.8,12.33-1.64,13.22s-8.24-21.91-8.4-22.65S504.13,330,506.56,330.35Z" transform="translate(-10.72 -86.89)"/><path class="cls-40" d="M571.29,299.58l-57.14,27.87s.2,8.28,4.82,11.89l69.6-17.28" transform="translate(-10.72 -86.89)"/><polygon class="cls-40" points="585.92 172.39 585.23 174.74 569.24 229.03 565.88 228.13 546.08 222.79 545.11 174.17 544.97 167.52 544.86 161.7 551.92 163.54 559.59 165.53 585.92 172.39"/><path class="cls-41" d="M518.34,334.52s44.31-11,47.53-15.06,5.26-32.84,5.26-32.84" transform="translate(-10.72 -86.89)"/><path class="cls-22" d="M601.16,319.53l-17.45,51.05c-5.53,2-12.63-2.25-12.63-2.25L576.59,315l.54-5.16-16.74-47-3.1-8.71,13-1.75L588.68,250l10.67-1.44.5,4.86.82,8.05h0L604,294.34A59,59,0,0,1,601.16,319.53Z" transform="translate(-10.72 -86.89)"/><path class="cls-42" d="M586.24,255.43s5.68,30.76,6.56,47.54-12,63.95-12,63.95" transform="translate(-10.72 -86.89)"/><path class="cls-43" d="M600.67,261.42a16.49,16.49,0,0,0-5.74-.38c-7.72,1-19.7,3.76-27.72,2.67-7.45-1-10.46-2.19-11.38-2.65l-.14-6.65,0-.1s3.38-2.93,4.06-3.54a11.72,11.72,0,0,1,2.84-.34c6.42-.41,21.55-.68,23.41-.86a10.58,10.58,0,0,1,2.63.38c4.17,1,11.17,3.42,11.17,3.42Z" transform="translate(-10.72 -86.89)"/><path class="cls-44" d="M602,259.64c-2.29-5.56-18.5,1.2-31.28,1.74s-19.2-3.9-19.54-4h0l17.15-68.51,22.56-.07L597,203.59a45.8,45.8,0,0,1,3.48,15.86Z" transform="translate(-10.72 -86.89)"/><path class="cls-4" d="M583.71,370.59l-4.24,13.2a50.12,50.12,0,0,1-8.39-2c-1.2-.49-.12-2.77-.81-3.27a2.24,2.24,0,0,1-.79-2.21l1.9-9.1,10.2,2.82Z" transform="translate(-10.72 -86.89)"/><path class="cls-5" d="M582.63,372.22c-3.07-.16-9.94-1.23-9.94-1.23l-1.61,6.82a7.34,7.34,0,0,1-1.6-1.53l1.9-9.1,10.2,2.82Z" transform="translate(-10.72 -86.89)"/><path class="cls-22" d="M569.73,375.1s3.14,6.61,9.74,8.69c0,0,2.92,11.48,2.55,12.64s-16.89-16.21-17.35-16.81S567.36,375.81,569.73,375.1Z" transform="translate(-10.72 -86.89)"/><path class="cls-45" d="M628.6,157.11a17.65,17.65,0,0,0,.24-3.86,45.79,45.79,0,0,0-1.31-6.13c0-.37.29-.77,1,0a11.64,11.64,0,0,1,2,4.28,8.4,8.4,0,0,1,.42,3c-.11.25-1.07,2.47-1.07,2.66a8.68,8.68,0,0,1-.45,1.23" transform="translate(-10.72 -86.89)"/><path class="cls-45" d="M634.6,162.88c-.72,2.44-1.88,2.27-2.56,4.49-1.88,6.13-3.85,18.42-5.06,24.16a15.54,15.54,0,0,1-1.31,3.95h0a8.51,8.51,0,0,1-5.39,4.44c-7.64,2.34-21.1,5.66-27.47,7h0c-1.42.29-2.48.48-3,.55-3.66.38-9.41-3.24-10.06-9-.15-1.32.88-8.88,7.23-9.55l29.63-.56c2.81-6.68,9.74-23.3,10.19-25.41.57-2.64,2.83-7.61,3.06-10.54.28-3.67-2-7.67-1.08-8.75s3.81,6.69,4.34,8.69C634.22,156.64,635.16,161,634.6,162.88Z" transform="translate(-10.72 -86.89)"/><polygon class="cls-46" points="560.35 274.46 575.18 278.79 572.99 285.61 559.56 282.18 560.35 274.46"/><polygon class="cls-46" points="508.11 237.67 512.55 251.94 505.61 253.71 501.08 240.8 508.11 237.67"/><path class="cls-45" d="M590.36,155.05a22.64,22.64,0,0,0,2.27,8.39c2,3.59,4.92,10.25,3.59,13.44s-8.25,6.6-17.84.48c-5.37-3.43-6.92-17.65-4.52-22.31S589.12,149,590.36,155.05Z" transform="translate(-10.72 -86.89)"/><path class="cls-47" d="M590.24,183.81c-1.32-1.45-5.68-2.54-6.87-8.28a27.45,27.45,0,0,0-1.12-3.5c-1-2.65-1.81-5.77-.28-8.14s4.47-2.87,6.52-4.6a7.41,7.41,0,0,0,2.58-6.11,7.25,7.25,0,0,0-.77-2.74,6.05,6.05,0,0,0-4.35-3c-2.13-.41-4.32-1.75-6.21-2.59-2.38-1.07-5.21-1.9-7.54-.72-2.68,1.35-3.55,4.7-5.48,7-1.43,1.69-3.44,2.79-5,4.33-3.85,3.7-4.85,9.77-3.19,14.84a25.24,25.24,0,0,1,.94,3c.68,3.76-1.77,7.34-4.4,10.09s-5.72,5.38-6.83,9a10,10,0,0,0,3.24,10.44c.8.64,1.7,1.15,2.45,1.84a7,7,0,0,1,2.23,5.86c-.31,2.91-2.4,5.3-3.34,8.07a10.77,10.77,0,0,0,.8,8.6,3.82,3.82,0,0,0,1.34,1.5,4.55,4.55,0,0,0,2.2.4l3,0a3.35,3.35,0,0,0,1.91-.36,3,3,0,0,0,1.07-1.64c1.35-3.81,1.76-8.5,5.2-10.63,2.08-1.29,4.77-1.22,6.94-2.38,3.1-1.66,4.42-5.51,4.36-9a34.9,34.9,0,0,0-1.09-7c0-.18-1.07-5.59,1.76-7.64s10.55-1.67,10.55-1.67A4,4,0,0,0,590.24,183.81Z" transform="translate(-10.72 -86.89)"/><path class="cls-45" d="M592.22,162.65l3.84,4.33c.9,1-1.92,2.56-1.92,2.56l-2.3-2.64" transform="translate(-10.72 -86.89)"/><path class="cls-15" d="M595.27,171.51l-3.43,2.65s1.73,1.67,3,.85S595.27,171.51,595.27,171.51Z" transform="translate(-10.72 -86.89)"/><path class="cls-28" d="M590.53,169.05a2.24,2.24,0,1,1-3.06-1.71A2.52,2.52,0,0,1,590.53,169.05Z" transform="translate(-10.72 -86.89)"/><path class="cls-48" d="M591,163.14a2.06,2.06,0,0,0-2.47-.42,2.12,2.12,0,0,0-.94,2.51c.15.24-.12-1.18,1.18-1.89.86-.46,1.6.24,1.82.36C591.07,164,591.25,163.45,591,163.14Z" transform="translate(-10.72 -86.89)"/><path class="cls-48" d="M590,160.76a3,3,0,0,0-2.51.47,7,7,0,0,0-1.81,2.63,10,10,0,0,1,2.66-2.53A3.64,3.64,0,0,1,590,160.76Z" transform="translate(-10.72 -86.89)"/><path class="cls-45" d="M579.68,198.43s.88,14,7.65,14.81,5.34-7.75,5.34-7.75" transform="translate(-10.72 -86.89)"/><path class="cls-49" d="M625.66,195.49a8.51,8.51,0,0,1-5.39,4.44c-7.64,2.34-21.1,5.66-27.47,7h0a3.94,3.94,0,0,1-2.34-.88L608.22,202C623.72,198.43,625.53,195.67,625.66,195.49Z" transform="translate(-10.72 -86.89)"/><ellipse class="cls-2" cx="388.6" cy="320.06" rx="121.78" ry="5.69"/><path class="cls-4" d="M308.23,200s-5,14.24-5.77,17.17,9.78,16.56,9.78,16.56l4.19-13.41s3.18-5.36,3.06-5.79-4.58-10.42-4.58-10.42" transform="translate(-10.72 -86.89)"/><path class="cls-50" d="M358.7,165s4,4.54,2.43,5.76-5.06-1.44-5.06-1.44l-.34-1.86,1-2.25" transform="translate(-10.72 -86.89)"/><path class="cls-22" d="M353.68,299c-2.54.55-5.21,1-7.9,1.29-2.46.31-4.93.52-7.32.68-6.21.4-11.88.4-15.51.32L307.1,265.55l-1.77-8.86,10.88-2.31,18.14-3.84,10.53-2.23.86,4.8,1.42,8L353,293.65C353.32,295.42,353.53,297.21,353.68,299Z" transform="translate(-10.72 -86.89)"/><path class="cls-51" d="M345.78,300.28c-2.46.31-4.93.52-7.32.68L335,279.53l3.47-16.27,6.18-4Z" transform="translate(-10.72 -86.89)"/><path class="cls-4" d="M352,319l-13.57,52.22-3.24,13.49a49.59,49.59,0,0,1-8.52-1.4c-1.23-.39-.32-2.75-1.05-3.2a2.21,2.21,0,0,1-.95-2.15l.61-7.87c0-.32.61-17.68,1.14-32.58.39-11.29.74-21.17.74-21.17l.14-5.18-.57-1.28-3.8-8.59c1.56,0,3.53.05,5.74,0a155.18,155.18,0,0,0,17.09-1c2.69-.32,5.36-.74,7.9-1.29A59.15,59.15,0,0,1,352,319Z" transform="translate(-10.72 -86.89)"/><path class="cls-45" d="M348,217.87s-1.87,11.7-2.21,16.6c-.17,2.55-.59,10-.59,10a101.34,101.34,0,0,1-35.37-6.42c-1-.41-1.59-.66-1.59-.66l5.09-17.29,29.85-1.93Z" transform="translate(-10.72 -86.89)"/><path class="cls-52" d="M346.25,225.48s-13.39,7.08-31.69-1.24l-4.75,13.83c-1-.41-1.59-.66-1.59-.66l5.09-17.29,29.85-1.93.77.45Z" transform="translate(-10.72 -86.89)"/><path class="cls-27" d="M384.2,162.83s-3,7.18,0,10.8,8.83,2.46,8.83,2.29.14-4.06.17-4.09-2.12-5.65-2.12-5.65" transform="translate(-10.72 -86.89)"/><path class="cls-10" d="M371.41,107.06c-1.84-3.24-3.88-10.91-2.9-11.71,1.19-1,2.83,3.47,3.29,4.8-.51-1.7-2.65-9-1.58-9.53s3.89,8.65,4,9.13c-.11-.51-3-12.63-1.23-12.86s3.88,10.79,4.11,12c-.2-1.11-1.77-10.19-.11-9.83s2.43,6.92,3,9.36c0,.19.51.65.72-.2.28-1.27.57-5.83,2-5.52.61.13.77,2,.94,4.11a25.71,25.71,0,0,1-.4,8.06,6.19,6.19,0,0,1-1.19,2.46,5.26,5.26,0,0,0-1.12,4.23c.89,6.3,6.13,22.58,7.26,25.76,1.48,2.12,25.72,31.21,25.72,31.21l-21,12.44s-2.17-3.12-5-7.8l-.42-.71c-3.56-5.94-10.83-18.23-13.27-26.1,0,0,0,0,0,0-4.29-10.87-2.76-28.86-2-35.43A6.26,6.26,0,0,0,371.41,107.06Z" transform="translate(-10.72 -86.89)"/><path class="cls-45" d="M377.66,110.09c1.64-2.87,3.45-9.67,2.57-10.38-1.05-.88-2.5,3.08-2.91,4.26.45-1.51,2.35-8,1.4-8.45s-3.45,7.67-3.58,8.09c.11-.45,2.65-11.2,1.1-11.4s-3.45,9.57-3.65,10.63c.18-1,1.57-9,.1-8.72s-2.15,6.14-2.69,8.3c0,.17-.46.58-.64-.18-.26-1.12-.51-5.16-1.74-4.89-.54.12-.69,1.75-.84,3.65a22.55,22.55,0,0,0,.36,7.14,5.34,5.34,0,0,0,1.06,2.18,4.73,4.73,0,0,1,1,3.76c-.79,5.58-5.44,20-6.44,22.84-1.32,1.88-20.61,28.53-20.61,28.53l14.64,9.11s16-30.2,16-30.21c3.81-9.63,4.81-25,4.13-30.86A5.62,5.62,0,0,1,377.66,110.09Z" transform="translate(-10.72 -86.89)"/><path class="cls-4" d="M506.5,361.3a21.68,21.68,0,0,1-1.76,3.91c-1.31,2-4.7,5.08-6,5.32l-11.38-7.75-9.95-3.15-33.18-25a128.66,128.66,0,0,0,17.54-19.21L488.67,343Z" transform="translate(-10.72 -86.89)"/><path class="cls-44" d="M506.5,361.3a21.68,21.68,0,0,1-1.76,3.91c-1.31,2-7.44,6.94-8.77,7.17l-18.59-12.75c2.81-3,10.59-12.66,11.29-16.6Z" transform="translate(-10.72 -86.89)"/><path class="cls-6" d="M505.7,360.88s-3.22,8.05-9.73,11.5c0,0-5.16,14.84-4.62,16.29s20.49-21.57,21-22.36S508.74,361.63,505.7,360.88Z" transform="translate(-10.72 -86.89)"/><path class="cls-6" d="M429.54,306.38c.47-2.75,1-5.79,1.53-9,.73-4.32,1.51-8.94,2.28-13.55.92-5.48,1.83-11,2.64-15.88.57-3.44,1.09-6.63,1.52-9.38.27-1.67.5-3.18.7-4.48l-2.2-.33-34.15-5.09s-.15,2.59-.4,6.78c-.08,1.22-.15,2.58-.24,4-1,17.25-2.86,49.87-2.86,58.47,0,3.52-.84,10.92,0,19.64a167.74,167.74,0,0,0,27.51,0l1.37-17.72Z" transform="translate(-10.72 -86.89)"/><path class="cls-9" d="M429.87,282s-4.42,22.55-6.3,32.56a34.56,34.56,0,0,0-.57,4.54c-.22,3.62-.6,10.75-.51,16" transform="translate(-10.72 -86.89)"/><path class="cls-4" d="M425.87,337.63l-2.56,37.93L421.73,399a16.76,16.76,0,0,1-6.45,2.07,9.68,9.68,0,0,1-5.79-1.66,77.21,77.21,0,0,1-6.15-23c-1.36-12.88-4-28.57-5-38.77A168,168,0,0,0,425.87,337.63Z" transform="translate(-10.72 -86.89)"/><path class="cls-44" d="M423.31,375.56,421.73,399a16.76,16.76,0,0,1-6.45,2.07c-2.39.09-8.2-1.66-9.29-2.51,0,0-1.41-11-2.65-22.18A86.58,86.58,0,0,0,423.31,375.56Z" transform="translate(-10.72 -86.89)"/><path class="cls-8" d="M433.35,283.85c-1.34,8-2.71,16.07-3.81,22.53L428,277.9l-.49-7.69a27.76,27.76,0,0,1,2.6,5.74A84.67,84.67,0,0,0,433.35,283.85Z" transform="translate(-10.72 -86.89)"/><path class="cls-6" d="M461.72,313.83l-.1-55-.13-7-24,6.79-11.1,3.13.94,7.16,3.72,28.52s2.74,14.47,5.63,26.3a18.74,18.74,0,0,0,8.16,11.41l2.54,1.62c5.89-2,16.47-10.49,19-16.56Z" transform="translate(-10.72 -86.89)"/><path class="cls-9" d="M451.05,254.75s1,38.81,2.27,51.63S461,325,461,325" transform="translate(-10.72 -86.89)"/><path class="cls-8" d="M461.62,258.81a61.65,61.65,0,0,0-7.93,3.51A68.5,68.5,0,0,1,436,268a55.53,55.53,0,0,1-8.64.91,35.47,35.47,0,0,1-5.88-.35,44.68,44.68,0,0,1-20.25-9c.09-1.47.16-2.83.24-4a28.26,28.26,0,0,1,3.12,0c.31.12,16.17-.44,16.74-.44.22,0,6.81-.59,14.69-1.29l2.2.33c-.2,1.3-.43,2.81-.7,4.48l24-6.79Z" transform="translate(-10.72 -86.89)"/><path class="cls-10" d="M479.23,211.19c-3.79,2.92-9.67,4.72-12.52,5.7-1,.35-1.66.54-1.66.54l-7.42-11.22,11.47-9.76-1.93-8.88c.37.92,6.82,9.73,8.8,13.82A43.05,43.05,0,0,1,479.23,211.19Z" transform="translate(-10.72 -86.89)"/><path class="cls-25" d="M384.2,173.63c1.59,1.18,5.59.52,7.25-.5,8.11-5,8.54-17.2,7.69-22.56l3.11,3.22c10.45,10.46,44.78,13.34,48.37,15.46a3.22,3.22,0,0,1,.86.8l4.68,36.42c.73,6.54,2.4,16.17,4,24.91,2.07,11.15,4.08,20.84,4.08,20.84s-.87.56-2.41,1.43c-6.33,3.61-24,12.68-39.25,11.13-18.89-1.91-24.23-8.76-24.23-8.76L400,197.87Z" transform="translate(-10.72 -86.89)"/><path class="cls-26" d="M460.17,231.38c-4.42-13.93-7.7-28.12-7.85-28.75l3.84,3.84C456.9,213,458.56,222.64,460.17,231.38Z" transform="translate(-10.72 -86.89)"/><path class="cls-25" d="M474.49,196.78c-4.12-6.63-19.45-25.46-23.44-27.2l3,37.61,4,4.29C472.45,208.45,474.49,196.78,474.49,196.78Z" transform="translate(-10.72 -86.89)"/><path class="cls-10" d="M436.41,152.28l-.84,1.48a21.7,21.7,0,0,0-2.23,6.44h0a32.48,32.48,0,0,0-.13,6.66,38.27,38.27,0,0,1-4,.09,63.28,63.28,0,0,1-10.87-1.49l.12-3h0l0-.58a10.09,10.09,0,0,1-5.62-4.58,9.61,9.61,0,0,1-1-7.08,12.2,12.2,0,0,1,.72-2.14c.38-.89.76-1.79,1.13-2.68a35.94,35.94,0,0,0,1.41-4.09c2.9-10.63,12.8-13.81,19.69-9C439.22,135.41,440.82,144.25,436.41,152.28Z" transform="translate(-10.72 -86.89)"/><path class="cls-47" d="M440.54,146.51a38.48,38.48,0,0,1-3.39,7.13c-1.91,2.9-3,6-3.71,5.93s.81-4.52,2-6.53,2.54-4.43,2.1-5.31-2.13-2.13-3-1.36-2.18,2.86-2.82,2.7.51-4.42.23-5.31-1.25-.3-2.13-.92-1.4-3,.19-3.71,5.94.53,5.94.53,3.4,2.61,3.46,3S440.54,146.51,440.54,146.51Z" transform="translate(-10.72 -86.89)"/><path class="cls-11" d="M418.47,161.91s5.09.83,8.26-.92c0,0-4,4.09-8.41,4.46Z" transform="translate(-10.72 -86.89)"/><path class="cls-15" d="M414.34,151.29a19.06,19.06,0,0,0,7.21,3s-1.33,3.89-5.18,2.34S414.34,151.29,414.34,151.29Z" transform="translate(-10.72 -86.89)"/><path class="cls-47" d="M425.71,142.18a3.76,3.76,0,0,1,2.61,2.22c.37,1.25-3.43-1.42-3.59-1.8S425.06,142,425.71,142.18Z" transform="translate(-10.72 -86.89)"/><path class="cls-27" d="M417.05,139a3.76,3.76,0,0,1,3.12,1.45c.68,1.1-3.7-.46-3.95-.78S416.38,139,417.05,139Z" transform="translate(-10.72 -86.89)"/><path class="cls-17" d="M427.73,153.08a2.38,2.38,0,1,1-1.35-3.26A2.5,2.5,0,0,1,427.73,153.08Z" transform="translate(-10.72 -86.89)"/><path class="cls-17" d="M415.26,148.77a2.5,2.5,0,0,1-3.11,1.67,2,2,0,0,1-.36-.17,12,12,0,0,1,.72-2.15c.38-.89.76-1.78,1.12-2.68a1.28,1.28,0,0,1,.28.07A2.5,2.5,0,0,1,415.26,148.77Z" transform="translate(-10.72 -86.89)"/><path class="cls-18" d="M417.71,148.25s-.83.62-.95,1.18.57,1.38,1.35,1.66a2.87,2.87,0,0,1-.39-.33,1.81,1.81,0,0,1-.24-2.19A2.35,2.35,0,0,1,417.71,148.25Z" transform="translate(-10.72 -86.89)"/><path class="cls-10" d="M435.3,145.6c1.09-.5,4.18-.36,3.27,4-.8,3.88-3.91,5.16-5.76,3.61S433.18,146.6,435.3,145.6Z" transform="translate(-10.72 -86.89)"/><path class="cls-18" d="M435.08,148.26c-.26.6.33,1.49-.1,2s-.88.33-1.06.79.6.92,1.81.18a2.51,2.51,0,0,0,.95-2.46C436.57,147.74,435.49,147.3,435.08,148.26Z" transform="translate(-10.72 -86.89)"/><path class="cls-15" d="M340.85,166.14l-3.42,2.65s1.73,1.66,3,.85S340.85,166.14,340.85,166.14Z" transform="translate(-10.72 -86.89)"/><path class="cls-45" d="M340.4,144a22.67,22.67,0,0,0,2.26,8.38c2,3.6,4.93,10.25,3.6,13.45s-8.26,6.6-17.84.48c-5.37-3.43-6.92-17.65-4.53-22.31S339.16,137.93,340.4,144Z" transform="translate(-10.72 -86.89)"/><path class="cls-45" d="M342.26,151.6l3.83,4.33c.9,1-1.91,2.55-1.91,2.55l-2.3-2.63" transform="translate(-10.72 -86.89)"/><path class="cls-28" d="M340.57,158a2.24,2.24,0,1,1-3.07-1.72A2.52,2.52,0,0,1,340.57,158Z" transform="translate(-10.72 -86.89)"/><path class="cls-27" d="M341,152.09a2,2,0,0,0-2.46-.42,2.12,2.12,0,0,0-.94,2.51c.15.24-.13-1.18,1.18-1.89.85-.47,1.6.23,1.82.36C341.11,152.94,341.29,152.4,341,152.09Z" transform="translate(-10.72 -86.89)"/><path class="cls-27" d="M340,149.7a3,3,0,0,0-2.51.48,7,7,0,0,0-1.82,2.63,10.15,10.15,0,0,1,2.66-2.53A3.78,3.78,0,0,1,340,149.7Z" transform="translate(-10.72 -86.89)"/><path class="cls-6" d="M421.48,398.07s-8.37,3.09-15.49.51c0,0-14.88,6.3-15.61,7.72s30.58.74,31.57.62S423,400.9,421.48,398.07Z" transform="translate(-10.72 -86.89)"/><path class="cls-10" d="M460.08,218.08c-3.66-2.28-8-7.11-11.67-12.08s-6.74-10-8.09-12.26c-1.22-2-2.75-1.83-4.16-2.68-2.41-1.46-4.22-3.66-3.89-4.74s1.11-1,1.11-1a1.83,1.83,0,0,1,.53-1.46c.6-.46.88-.31.88-.31a2.16,2.16,0,0,1,.63-1.2,1.46,1.46,0,0,1,1.47-.23s.18-1.26,1.1-1.55,1.95.75,2.07.85c-.25-.76-.24-2,.45-2.06s3.5,3,3.57,4.76a6,6,0,0,0,1,3.15,8.81,8.81,0,0,0,1.19,1.39c.42.42.77.72.77.72,2.74,1.94,6.44,4.64,9.93,7.2,0,0,0,0,0,0,5.37,4,10.2,7.59,10.2,7.59l3.91,2.29,4.88-5.07s6.28,13.71,2.47,17.73C474.15,223.64,468.24,223.17,460.08,218.08Z" transform="translate(-10.72 -86.89)"/><path class="cls-11" d="M440.67,183.45a16.64,16.64,0,0,1-.78-2.2l.17.16a11,11,0,0,0,.86,1.78c.36.63,1.19,1.64.87,1.82S441.07,184.28,440.67,183.45Z" transform="translate(-10.72 -86.89)"/><path class="cls-27" d="M440.54,146.51s-13-9.31-23.45-10.93c0,0,4.86-11.28,16-7.08C445.87,133.34,440.54,146.51,440.54,146.51Z" transform="translate(-10.72 -86.89)"/><path class="cls-25" d="M434.53,142.68a80.6,80.6,0,0,1-15.86-1.87c-7.12-1.78-10.23-6.89-1.24-5.9C427,136,434.53,142.68,434.53,142.68Z" transform="translate(-10.72 -86.89)"/><path class="cls-47" d="M423,145.79a2,2,0,0,1,2.46-.42,2.12,2.12,0,0,1,.94,2.51c-.15.25.12-1.18-1.18-1.88-.86-.47-1.6.23-1.82.35C422.9,146.64,422.72,146.1,423,145.79Z" transform="translate(-10.72 -86.89)"/><path class="cls-47" d="M415.74,142.23a2,2,0,0,1,2.46-.42,2.12,2.12,0,0,1,.94,2.51c-.15.25.13-1.18-1.18-1.88-.85-.47-1.6.23-1.82.35C415.63,143.08,415.45,142.54,415.74,142.23Z" transform="translate(-10.72 -86.89)"/><path class="cls-29" d="M422,167s-.51,11.84,0,26.17" transform="translate(-10.72 -86.89)"/><circle class="cls-53" cx="413.29" cy="83.86" r="0.72"/><circle class="cls-53" cx="413.29" cy="92.21" r="0.72"/><circle class="cls-53" cx="413.29" cy="100.69" r="0.72"/><path class="cls-54" d="M348.82,156.22s8.75,13.95,12.31,14.53c0,0-11.12,16.61-18,22.38-7.18,6-22.13-16.55-14.08-19.71C338.14,169.86,348.82,156.22,348.82,156.22Z" transform="translate(-10.72 -86.89)"/><path class="cls-54" d="M347.38,225.14s-18,6.24-35.09-4.34l10.93-52.72L351,173.91l-2.25,5.36s2.36,9,4.39,15.54S349.46,210.91,347.38,225.14Z" transform="translate(-10.72 -86.89)"/><path class="cls-27" d="M334.29,164.82a12.72,12.72,0,0,1-2-3.85c-1-2.64-1.81-5.76-.29-8.13s4.48-2.87,6.53-4.61a7.25,7.25,0,0,0,1.8-8.85,6,6,0,0,0-4.35-3c-10-1.75-19.39,2-24.28,7-3.73,3.82-4.82,10.8-3.17,15.87a23.55,23.55,0,0,1,.94,3c.68,3.75-1.76,7.33-4.4,10.09s-5.71,5.38-6.82,9a10,10,0,0,0,3.24,10.44c.8.64,1.69,1.15,2.45,1.84a7.27,7.27,0,0,1,2.22,5.85c-.83,12.54,15.21,6.47,19.16,3.6C337.49,194.27,345,176.05,334.29,164.82Z" transform="translate(-10.72 -86.89)"/><path class="cls-45" d="M312.14,295.09l4.29,19.5-37.72,28.69v.06l-6.88,4.26a7.39,7.39,0,0,0,0,2.21,13.33,13.33,0,0,0,.81,3.1,29.62,29.62,0,0,0,3.58,5.64l9.55-4.55h0l48.45-22.88a12.2,12.2,0,0,0,6.93-10l2-23.9A94.62,94.62,0,0,1,312.14,295.09Z" transform="translate(-10.72 -86.89)"/><path class="cls-22" d="M345.18,244.49l-2,52.75a95,95,0,0,1-31-2.14l-5.32-24.17-.2-.89-1.43-6.5-1.25-5.69a25.19,25.19,0,0,1,.79-13.6,24.58,24.58,0,0,1,3.49-6.84C321.87,243.09,345.18,244.49,345.18,244.49Z" transform="translate(-10.72 -86.89)"/><path class="cls-6" d="M278.48,371.3c-1.33,1.45-12.36-19.88-12.66-20.57s3.55-3,6-3.13c0,0,1.21,6.72,5.68,10.41C277.51,358,279.11,370.61,278.48,371.3Z" transform="translate(-10.72 -86.89)"/><path class="cls-6" d="M339.31,397.11c1.49.91-4-12.95-4-12.95-6.74-1.58-10.55-7.59-10.55-7.59-2.3.88-4.55,4.52-4.05,5.08C320.74,381.65,334,393.87,339.31,397.11Z" transform="translate(-10.72 -86.89)"/><path class="cls-42" d="M331.28,246s.59,29.56,0,50.66" transform="translate(-10.72 -86.89)"/><path class="cls-42" d="M337.4,246.48s.75,13.22-6,17.16" transform="translate(-10.72 -86.89)"/><path class="cls-55" d="M315.13,248.69s-.34,14.57-2.84,17.76a22.25,22.25,0,0,1-5.47,4.48l-.2-.89-1.43-6.5-1.25-5.69a25.19,25.19,0,0,1,.79-13.6C306.24,245.61,309.25,247.47,315.13,248.69Z" transform="translate(-10.72 -86.89)"/></g></g></svg>