<?xml version="1.0" encoding="utf-8"?>
<!-- Generator: Adobe Illustrator 24.0.1, SVG Export Plug-In . SVG Version: 6.00 Build 0)  -->
<svg version="1.1" xmlns="http://www.w3.org/2000/svg" xmlns:xlink="http://www.w3.org/1999/xlink" x="0px" y="0px"
	 viewBox="0 0 750 500" style="enable-background:new 0 0 750 500;" xml:space="preserve">
<style type="text/css">
	.st0{fill:#E0E0E0;}
	.st1{fill:#F5F5F5;}
	.st2{fill:#EBEBEB;}
	.st3{fill:#FFFFFF;}
	.st4{fill:#FAFAFA;}
	.st5{display:none;}
	.st6{display:inline;fill:#EBEBEB;}
	.st7{fill:#263238;}
	.st8{fill:#E8505B;}
	.st9{opacity:0.5;}
	.st10{fill:#455A64;}
	.st11{fill:#455A64;stroke:#455A64;stroke-miterlimit:10;}
	.st12{font-family:'Montserrat-Bold';}
	.st13{font-size:15.5188px;}
	.st14{font-size:6.3123px;}
	.st15{fill:#C67761;}
	.st16{fill:#9B4E3D;}
</style>
<g id="Background_Complete">
	<g>
		<g>
			<g>
				<rect x="136.89" y="276.15" class="st0" width="94.82" height="179.25"/>
			</g>
			<g>
				<rect x="108.75" y="276.15" class="st1" width="94.82" height="179.25"/>
			</g>
			<g>
				<g>
					<path class="st0" d="M196.59,313.05H115.2v-28.41h81.39V313.05z M116.2,312.05h79.39v-26.41H116.2V312.05z"/>
				</g>
				<g>
					<path class="st2" d="M166.94,290.8h-20.99c-2.73,0-4.95-2.22-4.95-4.95v-0.71h30.89v0.71
						C171.89,288.58,169.67,290.8,166.94,290.8z"/>
				</g>
			</g>
			<g>
				<g>
					<path class="st0" d="M196.59,349.14H115.2v-28.41h81.39V349.14z M116.2,348.14h79.39v-26.41H116.2V348.14z"/>
				</g>
				<g>
					<path class="st2" d="M166.94,326.89h-20.99c-2.73,0-4.95-2.22-4.95-4.95v-0.71h30.89v0.71
						C171.89,324.67,169.67,326.89,166.94,326.89z"/>
				</g>
			</g>
			<g>
				<g>
					<path class="st0" d="M196.59,385.23H115.2v-28.41h81.39V385.23z M116.2,384.23h79.39v-26.41H116.2V384.23z"/>
				</g>
				<g>
					<path class="st2" d="M166.94,362.98h-20.99c-2.73,0-4.95-2.22-4.95-4.95v-0.71h30.89v0.71
						C171.89,360.76,169.67,362.98,166.94,362.98z"/>
				</g>
			</g>
			<g>
				<g>
					<path class="st0" d="M196.59,421.32H115.2v-28.41h81.39V421.32z M116.2,420.32h79.39v-26.41H116.2V420.32z"/>
				</g>
				<g>
					<path class="st2" d="M166.94,399.07h-20.99c-2.73,0-4.95-2.22-4.95-4.95v-0.71h30.89v0.71
						C171.89,396.86,169.67,399.07,166.94,399.07z"/>
				</g>
			</g>
			<g>
				<rect x="104.54" y="269.44" class="st2" width="103" height="8.93"/>
			</g>
			<g>
				<rect x="207.53" y="269.44" class="st0" width="30.97" height="8.93"/>
			</g>
			<g>
				<rect x="108.75" y="455.4" class="st0" width="4.98" height="9.16"/>
			</g>
			<g>
				<rect x="139.53" y="455.4" class="st0" width="4.98" height="9.16"/>
			</g>
			<g>
				<rect x="195.77" y="455.4" class="st0" width="4.98" height="9.16"/>
			</g>
			<g>
				<rect x="223.89" y="455.4" class="st0" width="4.98" height="9.16"/>
			</g>
		</g>
		<g>
			<g>
				<g>
					<g>
						<path class="st2" d="M623.57,244.6c-4.76,0.1-7.63,5.53-7.87,10.28c-0.24,4.75,1.05,9.61-0.12,14.22
							c-1.48,5.86-6.67,10.26-8.02,16.15c-1.59,6.94,2.51,13.87,3.04,20.97c0.26,3.46-0.34,6.99,0.47,10.36
							c1.36,5.68,7.06,10,12.9,9.78c5.84-0.23,11.18-4.98,12.1-10.75c0.85-5.38-1.77-10.93-0.62-16.25
							c0.85-3.94,3.71-7.38,3.76-11.41c0.06-4.79-3.84-8.74-4.76-13.45c-0.92-4.7,1.25-9.45,1.37-14.24
							C636.03,251.65,632.15,245.1,623.57,244.6"/>
					</g>
					<g>
						<g>
							<path class="st0" d="M625.92,267.05c0.02,0,0.01,0.26-0.02,0.76c-0.03,0.54-0.08,1.27-0.14,2.18
								c-0.14,1.94-0.34,4.66-0.59,8.02c-0.51,6.77-1.2,16.12-1.9,26.46c-0.7,10.34-1.27,19.7-1.68,26.47
								c-0.21,3.36-0.38,6.09-0.49,8.03c-0.06,0.92-0.11,1.64-0.15,2.18c-0.04,0.5-0.07,0.76-0.08,0.76c-0.02,0-0.02-0.26-0.01-0.76
								c0.02-0.54,0.04-1.27,0.07-2.18c0.08-1.94,0.2-4.67,0.35-8.03c0.33-6.78,0.85-16.15,1.55-26.49
								c0.7-10.34,1.44-19.69,2.03-26.45c0.31-3.35,0.56-6.07,0.73-8.01c0.1-0.91,0.17-1.64,0.23-2.17
								C625.87,267.31,625.91,267.05,625.92,267.05z"/>
						</g>
					</g>
				</g>
			</g>
			<g>
				<g>
					<path class="st0" d="M622.58,359.59L622.58,359.59c8.38,0,15.17-6.79,15.17-15.17v-15.17h-30.34v15.17
						C607.41,352.8,614.2,359.59,622.58,359.59z"/>
				</g>
				<g>
					<g>
						<path class="st3" d="M607.41,336.71c0.01-0.02,0.19,0.1,0.5,0.33c0.37,0.29,0.81,0.63,1.33,1.03c1.21,0.98,2.8,2.27,4.69,3.8
							l-0.25-0.02c2.53-1.55,5.53-3.39,8.75-5.36l0.02-0.01l0.14-0.09l0.14,0.09c2.98,1.97,5.77,3.8,8.14,5.37l-0.25,0.01
							c2.07-1.53,3.82-2.82,5.14-3.8c0.58-0.41,1.06-0.75,1.46-1.03c0.34-0.23,0.53-0.35,0.54-0.33c0.01,0.02-0.15,0.17-0.46,0.44
							c-0.38,0.31-0.84,0.68-1.38,1.13c-1.29,1.01-3,2.36-5.03,3.94l-0.12,0.1l-0.13-0.09c-2.38-1.54-5.18-3.36-8.18-5.3l0.28,0
							l-0.02,0.01c-3.24,1.95-6.25,3.76-8.79,5.29l-0.14,0.08l-0.12-0.1c-1.84-1.59-3.4-2.93-4.57-3.94
							c-0.49-0.44-0.91-0.82-1.25-1.13C607.54,336.88,607.39,336.73,607.41,336.71z"/>
					</g>
				</g>
				<g>
					<g>
						<path class="st3" d="M607.41,333.68c0.01-0.02,0.19,0.1,0.5,0.33c0.37,0.29,0.81,0.63,1.33,1.03c1.21,0.98,2.8,2.27,4.69,3.8
							l-0.25-0.02c2.53-1.55,5.53-3.39,8.75-5.36l0.02-0.01l0.14-0.09l0.14,0.09c2.98,1.97,5.77,3.8,8.14,5.37l-0.25,0.01
							c2.07-1.53,3.82-2.82,5.14-3.8c0.58-0.41,1.06-0.75,1.46-1.03c0.34-0.23,0.53-0.35,0.54-0.33c0.01,0.02-0.15,0.17-0.46,0.44
							c-0.38,0.31-0.84,0.68-1.38,1.13c-1.29,1.01-3,2.36-5.03,3.94l-0.12,0.1l-0.13-0.09c-2.38-1.54-5.18-3.36-8.18-5.3l0.28,0
							l-0.02,0.01c-3.24,1.95-6.25,3.76-8.79,5.29l-0.14,0.08l-0.12-0.1c-1.84-1.59-3.4-2.93-4.57-3.94
							c-0.49-0.44-0.91-0.82-1.25-1.13C607.54,333.85,607.39,333.7,607.41,333.68z"/>
					</g>
				</g>
				<g>
					<g>
						<path class="st3" d="M607.41,339.8c0.01-0.02,0.19,0.1,0.5,0.33c0.37,0.29,0.81,0.63,1.33,1.03c1.21,0.98,2.8,2.27,4.69,3.8
							l-0.25-0.02c2.53-1.55,5.53-3.39,8.75-5.36l0.02-0.01l0.14-0.09l0.14,0.09c2.98,1.97,5.77,3.8,8.14,5.37l-0.25,0.01
							c2.07-1.53,3.82-2.82,5.14-3.8c0.58-0.41,1.06-0.75,1.46-1.03c0.34-0.23,0.53-0.35,0.54-0.33c0.01,0.02-0.15,0.17-0.46,0.44
							c-0.38,0.31-0.84,0.68-1.38,1.13c-1.29,1.01-3,2.36-5.03,3.94l-0.12,0.1l-0.13-0.09c-2.38-1.54-5.18-3.36-8.18-5.3l0.28,0
							l-0.02,0.01c-3.24,1.95-6.25,3.76-8.79,5.29l-0.14,0.08l-0.12-0.1c-1.84-1.59-3.4-2.93-4.57-3.94
							c-0.49-0.44-0.91-0.81-1.25-1.13C607.54,339.97,607.39,339.82,607.41,339.8z"/>
					</g>
				</g>
			</g>
		</g>
		<g>
			<g>
				<polygon class="st2" points="644.13,436.22 653.81,463.99 648.97,463.99 632.02,436.22 				"/>
			</g>
			<g>
				<polygon class="st2" points="588.56,436.22 578.87,463.99 583.72,463.99 600.67,436.22 				"/>
			</g>
			<g>
				
					<rect x="565.53" y="359.53" transform="matrix(-1 -1.224647e-16 1.224647e-16 -1 1208.4406 796.4425)" class="st2" width="77.39" height="77.39"/>
			</g>
			<g>
				
					<rect x="589.77" y="359.53" transform="matrix(-1 -1.224647e-16 1.224647e-16 -1 1256.9332 796.4425)" class="st1" width="77.39" height="77.39"/>
			</g>
			<g>
				<path class="st0" d="M662.05,432.14h-67.17v-67.17h67.17V432.14z M595.88,431.14h65.17v-65.17h-65.17V431.14z"/>
			</g>
			<g>
				<g>
					<path class="st0" d="M661.16,385.83c-21.84-0.64-43.93-0.47-65.78-0.03c-0.34,0.01-0.34,0.52,0,0.52
						c21.85,0.44,43.93,0.61,65.78-0.03C661.47,386.29,661.47,385.84,661.16,385.83L661.16,385.83z"/>
				</g>
			</g>
			<g>
				<path class="st2" d="M626.58,376.33c0,1.04,0.84,1.88,1.88,1.88c1.04,0,1.88-0.84,1.88-1.88c0-1.04-0.84-1.88-1.88-1.88
					C627.43,374.45,626.58,375.29,626.58,376.33z"/>
			</g>
			<g>
				<path class="st2" d="M653.72,406.56c0,1.04,0.84,1.88,1.88,1.88c1.04,0,1.88-0.84,1.88-1.88c0-1.04-0.84-1.88-1.88-1.88
					C654.56,404.67,653.72,405.52,653.72,406.56z"/>
			</g>
		</g>
		<g>
			<polygon class="st0" points="165.74,245.38 175.34,269.94 169.37,269.91 164.59,254.82 			"/>
			<g>
				<g>
					<polygon class="st2" points="132.96,222.69 129.66,269.74 163.73,270.45 167.56,222.69 					"/>
					<polygon class="st4" points="136.37,226.48 133.63,265.64 158.95,266.83 162.49,226.25 					"/>
				</g>
				<polygon class="st0" points="141.93,232.02 139.87,259.55 153.84,259.55 156.31,232.02 				"/>
			</g>
		</g>
		<g>
			<rect x="505.32" y="88.54" class="st0" width="109.94" height="108.02"/>
			<rect x="509.15" y="91.49" class="st4" width="102.23" height="102.23"/>
			<rect x="543.59" y="125.93" class="st0" width="33.35" height="33.35"/>
		</g>
	</g>
</g>
<g id="Background_Simple" class="st5">
	<path class="st6" d="M591.71,176.22c14.05,64.33-13.38,134-62.65,177.7c-49.26,43.7-117.51,62.7-183.27,59.18
		c-46.94-2.52-94.53-16.6-130.18-47.24s-57.36-79.5-48.19-125.61c3.46-17.41,11.77-34.72,26.51-44.62
		c23.54-15.81,54.97-8.54,82.21-0.69c27.24,7.86,58.63,15.19,82.24-0.51c18.14-12.07,26.03-34.27,38.52-52.12
		c21.24-30.34,58.49-48.76,95.5-47.21c5.14,0.21,10.25,0.81,15.3,1.77c39.23,7.45,70.79,36.68,82.62,74.82L591.71,176.22z"/>
</g>
<g id="Floor">
	<g>
		<g>
			<path class="st7" d="M660.22,464.55c0,0.14-127.71,0.26-285.21,0.26c-157.55,0-285.23-0.12-285.23-0.26
				c0-0.14,127.68-0.26,285.23-0.26C532.51,464.29,660.22,464.41,660.22,464.55z"/>
		</g>
	</g>
</g>
<g id="Credit_Card">
	<g>
		<g>
			<g>
				<g>
					<g>
						<path class="st8" d="M592.7,335.93l-146.57-10.68c-4.15-0.3-7.28-3.92-6.97-8.07l6.56-90.05c0.3-4.15,3.92-7.28,8.07-6.97
							l146.57,10.68c4.15,0.3,7.28,3.92,6.97,8.07l-6.56,90.05C600.46,333.11,596.85,336.23,592.7,335.93z"/>
					</g>
					<g>
						<path class="st3" d="M582.28,254.09c-0.45,6.16-5.81,10.79-11.97,10.34c-6.16-0.45-10.79-5.81-10.34-11.97
							c0.45-6.16,5.81-10.79,11.97-10.34C578.1,242.58,582.73,247.93,582.28,254.09z"/>
					</g>
					<g>
						<path class="st3" d="M584.58,265.95c-0.28,0-0.57-0.01-0.86-0.03c-6.43-0.47-11.27-6.08-10.8-12.5
							c0.47-6.42,6.07-11.27,12.5-10.8c6.43,0.47,11.27,6.08,10.81,12.5l0,0C595.78,261.25,590.64,265.95,584.58,265.95z
							 M584.56,243.58c-5.54,0-10.24,4.3-10.65,9.91c-0.43,5.88,4,11,9.88,11.43c5.87,0.44,11-4,11.43-9.88l0,0
							c0.43-5.87-4-11-9.88-11.43C585.08,243.59,584.82,243.58,584.56,243.58z"/>
					</g>
					<g>
						<path class="st3" d="M455.73,287.88l-0.65,8.97l-0.92-0.07l0.59-8.15l-2.11-0.15l0.06-0.82L455.73,287.88z"/>
						<path class="st3" d="M464.36,296.7l-0.06,0.82l-6.29-0.46l0.05-0.65l4-3.38c1.08-0.92,1.32-1.51,1.37-2.13
							c0.08-1.04-0.61-1.73-1.98-1.83c-1.05-0.08-1.88,0.18-2.52,0.82l-0.61-0.61c0.75-0.77,1.9-1.15,3.27-1.05
							c1.82,0.13,2.91,1.14,2.8,2.64c-0.06,0.86-0.39,1.61-1.68,2.7l-3.27,2.78L464.36,296.7z"/>
						<path class="st3" d="M473.91,295.85l-1.79-0.13l-0.17,2.36l-0.92-0.07l0.17-2.36l-5.06-0.37l0.05-0.67l5.19-5.6l1.02,0.08
							l-5.01,5.46l3.9,0.28l0.15-2.08l0.9,0.07l-0.15,2.08l1.8,0.13L473.91,295.85z"/>
						<path class="st3" d="M487.66,296.85l-1.79-0.13l-0.17,2.36l-0.92-0.07l0.17-2.36l-5.06-0.37l0.05-0.67l5.19-5.6l1.03,0.07
							l-5.01,5.46l3.9,0.28l0.15-2.08l0.9,0.07l-0.15,2.08l1.79,0.13L487.66,296.85z"/>
						<path class="st3" d="M495.52,297.14c-0.11,1.53-1.26,2.64-3.45,2.48c-1.29-0.09-2.49-0.63-3.13-1.39l0.5-0.7
							c0.53,0.64,1.53,1.15,2.68,1.24c1.53,0.11,2.39-0.57,2.47-1.66c0.08-1.15-0.58-1.92-2.86-2.09l-1.91-0.14l0.79-4.46l4.91,0.36
							l-0.06,0.82l-4.1-0.3l-0.51,2.84l1.15,0.08C494.69,294.42,495.64,295.55,495.52,297.14z"/>
						<path class="st3" d="M504.4,297.75c-0.12,1.68-1.52,2.66-3.26,2.53c-2.38-0.17-3.56-1.92-3.35-4.75
							c0.22-3.05,2-4.52,4.44-4.34c0.81,0.06,1.55,0.25,2.09,0.64l-0.42,0.72c-0.44-0.34-1.05-0.5-1.71-0.55
							c-1.94-0.14-3.27,1.01-3.45,3.45c-0.01,0.21-0.02,0.46-0.01,0.73c0.52-0.95,1.61-1.43,2.85-1.34
							C503.35,294.97,504.51,296.11,504.4,297.75z M503.48,297.71c0.09-1.18-0.73-2-2.11-2.1c-1.37-0.1-2.37,0.68-2.45,1.79
							c-0.07,0.99,0.68,1.98,2.23,2.09C502.45,299.59,503.4,298.9,503.48,297.71z"/>
						<path class="st3" d="M516.66,298.75c-0.11,1.5-1.28,2.57-3.45,2.42c-1.3-0.09-2.5-0.63-3.15-1.39l0.5-0.7
							c0.53,0.64,1.54,1.16,2.71,1.24c1.49,0.11,2.36-0.52,2.44-1.64c0.08-1.08-0.63-1.84-2.29-1.96l-0.64-0.05l0.05-0.68l2.71-2.93
							l-4.59-0.33l0.06-0.82l5.77,0.42l-0.05,0.65l-2.77,3.01C515.88,296.23,516.77,297.31,516.66,298.75z"/>
						<path class="st3" d="M525.67,299.3c-0.12,1.68-1.52,2.66-3.26,2.53c-2.38-0.17-3.56-1.92-3.35-4.75
							c0.22-3.05,2-4.52,4.44-4.34c0.81,0.06,1.55,0.25,2.09,0.64l-0.42,0.72c-0.44-0.34-1.05-0.5-1.71-0.55
							c-1.94-0.14-3.27,1.01-3.45,3.45c-0.01,0.2-0.02,0.46-0.01,0.73c0.52-0.95,1.61-1.43,2.85-1.34
							C524.62,296.52,525.78,297.66,525.67,299.3z M524.75,299.26c0.09-1.18-0.73-2-2.11-2.1c-1.37-0.1-2.37,0.68-2.45,1.79
							c-0.07,0.99,0.68,1.98,2.23,2.09C523.72,301.14,524.67,300.45,524.75,299.26z"/>
						<path class="st3" d="M534.38,293.61l-0.05,0.65l-4.36,8.04l-1-0.07l4.28-7.88l-4.61-0.34l-0.12,1.68l-0.91-0.07l0.18-2.5
							L534.38,293.61z"/>
						<path class="st3" d="M547.2,294.55l-0.05,0.65l-4.36,8.04l-1-0.07l4.28-7.88l-4.61-0.34l-0.12,1.68l-0.91-0.07l0.18-2.5
							L547.2,294.55z"/>
						<path class="st3" d="M555.56,301.66c-0.12,1.59-1.53,2.48-3.67,2.32c-2.15-0.16-3.39-1.24-3.27-2.83
							c0.08-1.08,0.75-1.79,1.89-2.08c-0.88-0.42-1.33-1.14-1.27-2.08c0.11-1.46,1.42-2.28,3.31-2.14c1.9,0.14,3.1,1.14,2.99,2.6
							c-0.07,0.94-0.63,1.58-1.58,1.87C555.06,299.78,555.64,300.6,555.56,301.66z M554.61,301.58c0.08-1.1-0.82-1.86-2.41-1.98
							c-1.59-0.12-2.57,0.51-2.65,1.61c-0.08,1.12,0.8,1.88,2.39,1.99C553.53,303.31,554.53,302.69,554.61,301.58z M552.26,298.87
							c1.4,0.1,2.28-0.46,2.35-1.44c0.07-1.01-0.77-1.69-2.11-1.79c-1.36-0.1-2.26,0.45-2.33,1.45
							C550.09,298.08,550.86,298.77,552.26,298.87z"/>
						<path class="st3" d="M564.42,300.23c-0.22,3.05-2,4.52-4.44,4.34c-0.81-0.06-1.55-0.26-2.09-0.64l0.43-0.72
							c0.44,0.34,1.04,0.5,1.71,0.55c1.93,0.14,3.27-1.01,3.45-3.45c0.02-0.21,0.02-0.46,0.01-0.73c-0.52,0.95-1.61,1.43-2.85,1.34
							c-1.78-0.13-2.95-1.27-2.83-2.91c0.12-1.68,1.52-2.66,3.26-2.53C563.45,295.65,564.63,297.4,564.42,300.23z M563.28,298.36
							c0.07-0.99-0.68-1.98-2.23-2.09c-1.29-0.09-2.25,0.6-2.33,1.79c-0.09,1.18,0.73,2,2.11,2.1
							C562.2,300.25,563.2,299.47,563.28,298.36z"/>
						<path class="st3" d="M573.84,296.48l-0.65,8.97l-0.92-0.07l0.59-8.15l-2.11-0.15l0.06-0.82L573.84,296.48z"/>
						<path class="st3" d="M582.47,305.31l-0.06,0.82l-6.29-0.46l0.05-0.65l4-3.38c1.08-0.92,1.32-1.51,1.37-2.13
							c0.08-1.04-0.61-1.73-1.98-1.83c-1.05-0.08-1.88,0.18-2.52,0.82l-0.61-0.61c0.75-0.77,1.9-1.15,3.27-1.05
							c1.82,0.13,2.91,1.14,2.8,2.64c-0.06,0.86-0.39,1.61-1.68,2.7l-3.27,2.78L582.47,305.31z"/>
						<path class="st3" d="M590.65,304.14c-0.11,1.5-1.28,2.57-3.45,2.42c-1.29-0.09-2.5-0.63-3.15-1.39l0.5-0.7
							c0.53,0.64,1.54,1.16,2.71,1.24c1.49,0.11,2.36-0.52,2.44-1.64c0.08-1.08-0.63-1.84-2.29-1.96l-0.64-0.05l0.05-0.68l2.71-2.93
							l-4.59-0.34l0.06-0.82l5.77,0.42l-0.05,0.65l-2.77,3.01C589.86,301.62,590.75,302.7,590.65,304.14z"/>
					</g>
					<g>
						
							<rect x="554.87" y="276.88" transform="matrix(0.0726 -0.9974 0.9974 0.0726 204.3233 845.5504)" class="st3" width="3.91" height="72.05"/>
					</g>
					<g>
						
							<rect x="571.8" y="303.49" transform="matrix(0.0726 -0.9974 0.9974 0.0726 210.9857 870.8291)" class="st3" width="3.91" height="36.95"/>
					</g>
					<g class="st9">
						<path d="M475.97,281.59l-20.25-1.48c-2.73-0.2-4.79-2.58-4.59-5.31l0.92-12.62c0.2-2.73,2.58-4.79,5.31-4.59l20.25,1.48
							c2.73,0.2,4.79,2.58,4.59,5.31L481.29,277C481.09,279.74,478.71,281.79,475.97,281.59z"/>
					</g>
					<g>
						<path class="st8" d="M451.22,273.52l0.11-1.44l15.52,1.13c1.79,0.13,3.35-1.22,3.49-3.01c0.13-1.79-1.24-3.38-3.01-3.48
							l-15.53-1.13l0.11-1.45l15.52,1.13c2.59,0.19,4.54,2.45,4.35,5.03c-0.19,2.59-2.45,4.54-5.04,4.35L451.22,273.52z"/>
					</g>
					<g>
						
							<rect x="475.67" y="265.29" transform="matrix(0.0736 -0.9973 0.9973 0.0736 171.4382 725.8235)" class="st8" width="1.45" height="10.68"/>
					</g>
					<g>
						
							<rect x="456.98" y="241.78" transform="matrix(0.9974 0.0727 -0.0727 0.9974 19.1335 -35.403)" class="st3" width="77.75" height="6.67"/>
					</g>
				</g>
			</g>
		</g>
	</g>
</g>
<g id="Device">
	<g>
		<g>
			<g>
				<g>
					<g>
						<polygon class="st4" points="339.68,150.98 339.68,51.78 346.48,57.27 352.03,51.78 357.91,56.62 363.46,51.78 369.02,56.95 
							375.71,51.78 380.61,56.62 386,51.78 391.39,57.11 397.92,51.78 403.48,56.95 409.35,51.78 415.56,57.11 421.11,51.78 
							426.5,56.46 432.38,51.78 438.59,56.46 443.98,51.78 443.98,150.98 						"/>
					</g>
					<g>
						<g>
							<path class="st7" d="M339.68,150.98c0,0,0.66-0.02,1.93-0.02c1.27-0.01,3.14-0.01,5.57-0.03c4.88-0.01,12.03-0.03,21.14-0.06
								c18.21-0.03,44.25-0.07,75.66-0.11l-0.22,0.22c-0.01-28.8-0.02-62.74-0.04-99.2l0.43,0.2c-1.7,1.47-3.54,3.07-5.39,4.68
								l-0.16,0.14l-0.17-0.13c-1.96-1.48-4.08-3.07-6.21-4.68l0.32,0c-0.55,0.43-1.14,0.9-1.73,1.38c-1.39,1.11-2.78,2.21-4.15,3.3
								l-0.17,0.13l-0.16-0.14c-1.82-1.58-3.61-3.13-5.39-4.68l0.35-0.01c-1.86,1.79-3.71,3.56-5.55,5.33l-0.17,0.16l-0.18-0.15
								c-2.08-1.79-4.15-3.56-6.2-5.33l0.34,0c-1.97,1.73-3.93,3.45-5.88,5.16l-0.17,0.15l-0.17-0.16
								c-1.86-1.74-3.71-3.46-5.55-5.17l0.34,0.01c-2.2,1.79-4.37,3.57-6.53,5.33l-0.18,0.14l-0.16-0.16
								c-1.81-1.79-3.61-3.57-5.39-5.33l0.34,0.01c-1.81,1.63-3.61,3.24-5.39,4.84l-0.17,0.16l-0.17-0.16
								c-1.65-1.63-3.28-3.24-4.9-4.84l0.32,0.02c-2.26,1.74-4.49,3.46-6.7,5.16L369,57.26l-0.15-0.14
								c-1.88-1.75-3.73-3.47-5.55-5.17l0.32,0.01c-1.89,1.65-3.73,3.25-5.56,4.84l-0.15,0.13l-0.15-0.13
								c-2.01-1.65-3.95-3.26-5.88-4.84l0.31-0.01c-1.9,1.88-3.74,3.7-5.56,5.49l-0.14,0.14l-0.16-0.13
								c-2.34-1.89-4.59-3.71-6.8-5.5l0.35-0.17c-0.05,29.88-0.09,54.65-0.11,71.96c-0.02,8.66-0.04,15.46-0.06,20.1
								c-0.01,2.31-0.02,4.09-0.02,5.3C339.7,150.35,339.68,150.98,339.68,150.98s-0.02-0.6-0.02-1.79
								c-0.01-1.2-0.01-2.96-0.02-5.26c-0.01-4.63-0.03-11.41-0.06-20.05c-0.03-17.35-0.07-42.17-0.11-72.1l0-0.46l0.35,0.29
								c2.21,1.78,4.46,3.6,6.8,5.49l-0.3,0.01c1.81-1.79,3.65-3.61,5.55-5.5l0.15-0.15l0.16,0.13c1.92,1.58,3.87,3.18,5.88,4.84
								l-0.3,0c1.82-1.59,3.66-3.19,5.55-4.84l0.16-0.14l0.16,0.15c1.83,1.7,3.67,3.41,5.55,5.16l-0.31-0.01
								c2.2-1.7,4.43-3.42,6.69-5.17l0.17-0.13l0.15,0.15c1.62,1.6,3.25,3.21,4.9,4.84l-0.34-0.01c1.78-1.6,3.57-3.21,5.39-4.84
								l0.18-0.16l0.17,0.17c1.78,1.76,3.58,3.54,5.39,5.33l-0.34-0.02c2.16-1.76,4.33-3.54,6.53-5.33l0.17-0.14l0.16,0.15
								c1.84,1.71,3.69,3.43,5.55,5.16l-0.34,0c1.95-1.71,3.91-3.43,5.88-5.17l0.17-0.15l0.17,0.15c2.06,1.76,4.12,3.54,6.21,5.33
								l-0.35,0.01c1.84-1.77,3.69-3.54,5.55-5.33l0.17-0.16l0.18,0.16c1.78,1.55,3.57,3.1,5.39,4.68l-0.33-0.01
								c1.37-1.09,2.76-2.19,4.15-3.3c0.59-0.47,1.18-0.94,1.73-1.38l0.16-0.13l0.16,0.12c2.13,1.6,4.24,3.2,6.21,4.68l-0.33,0.01
								c1.85-1.6,3.69-3.2,5.39-4.68l0.43-0.37l0,0.57c-0.01,36.46-0.03,70.4-0.04,99.2l0,0.22l-0.22,0
								c-31.47-0.05-57.57-0.09-75.8-0.11c-9.09-0.02-16.22-0.04-21.09-0.06c-2.42-0.01-4.27-0.02-5.53-0.03
								C340.31,151,339.68,150.98,339.68,150.98z"/>
						</g>
					</g>
				</g>
				<g>
					<g>
						<path class="st7" d="M393.94,92.04c0,0.14-9.72,0.26-21.71,0.26c-11.99,0-21.71-0.12-21.71-0.26s9.72-0.26,21.71-0.26
							C384.21,91.78,393.94,91.9,393.94,92.04z"/>
					</g>
				</g>
				<g>
					<g>
						<path class="st7" d="M393.94,103.36c0,0.14-9.72,0.26-21.71,0.26c-11.99,0-21.71-0.12-21.71-0.26c0-0.14,9.72-0.26,21.71-0.26
							C384.21,103.1,393.94,103.22,393.94,103.36z"/>
					</g>
				</g>
				<g>
					<g>
						<path class="st7" d="M393.94,114.68c0,0.14-9.72,0.26-21.71,0.26c-11.99,0-21.71-0.12-21.71-0.26c0-0.14,9.72-0.26,21.71-0.26
							C384.21,114.42,393.94,114.54,393.94,114.68z"/>
					</g>
				</g>
				<g>
					<g>
						<path class="st7" d="M393.94,126c0,0.14-9.72,0.26-21.71,0.26c-11.99,0-21.71-0.12-21.71-0.26c0-0.14,9.72-0.26,21.71-0.26
							C384.21,125.74,393.94,125.85,393.94,126z"/>
					</g>
				</g>
				<g>
					<g>
						<path class="st7" d="M429.74,91.81c0,0.14-3.36,0.26-7.51,0.26c-4.15,0-7.51-0.12-7.51-0.26c0-0.14,3.36-0.26,7.51-0.26
							C426.38,91.55,429.74,91.67,429.74,91.81z"/>
					</g>
				</g>
				<g>
					<g>
						<path class="st7" d="M429.74,103.36c0,0.14-3.36,0.26-7.51,0.26c-4.15,0-7.51-0.12-7.51-0.26c0-0.14,3.36-0.26,7.51-0.26
							C426.38,103.1,429.74,103.22,429.74,103.36z"/>
					</g>
				</g>
				<g>
					<g>
						<path class="st7" d="M429.74,114.91c0,0.14-3.36,0.26-7.51,0.26c-4.15,0-7.51-0.12-7.51-0.26c0-0.14,3.36-0.26,7.51-0.26
							C426.38,114.65,429.74,114.77,429.74,114.91z"/>
					</g>
				</g>
				<g>
					<g>
						<path class="st7" d="M429.74,126.46c0,0.14-3.36,0.26-7.51,0.26c-4.15,0-7.51-0.12-7.51-0.26c0-0.14,3.36-0.26,7.51-0.26
							C426.38,126.2,429.74,126.32,429.74,126.46z"/>
					</g>
				</g>
			</g>
			<polygon class="st2" points="339.75,137.64 339.75,134.51 443.74,129.79 443.74,138.13 			"/>
		</g>
		<g>
			<g>
				<g>
					<g>
						<g>
							<path class="st7" d="M444.76,467.31l-111.52-0.52c-13.41-0.06-24.24-10.98-24.18-24.4l1.18-279.59
								c0.06-13.42,10.98-24.25,24.41-24.19l111.52,0.52c13.41,0.06,24.24,10.98,24.18,24.4l-1.18,279.59
								C469.11,456.54,458.18,467.38,444.76,467.31z"/>
						</g>
						<g>
							<path class="st4" d="M446.01,148.79l-21.62-0.1c-2.9-0.01-5.26,2.43-5.27,5.46l-0.02,3.92c-0.01,3.03-2.37,5.48-5.27,5.46
								l-42.15-0.19c-2.9-0.01-5.24-2.48-5.23-5.51l0.02-3.92c0.01-3.03-2.33-5.5-5.23-5.51l-7.6-0.04l-18.92-0.09
								c-9.4-0.04-17.05,7.54-17.09,16.94l-1.15,272.9c-0.04,9.39,7.54,17.04,16.93,17.09l111.3,0.51
								c9.4,0.04,17.05-7.54,17.09-16.94l1.15-272.9C462.98,156.48,455.4,148.83,446.01,148.79z"/>
						</g>
					</g>
				</g>
				<g>
					<path class="st10" d="M383.02,429.59c0,1.09-1.04,1.97-2.3,1.96c-1.27-0.01-2.29-0.89-2.29-1.98c0-1.09,1.04-1.97,2.3-1.96
						C382,427.61,383.03,428.5,383.02,429.59z"/>
				</g>
				<g>
					<path class="st10" d="M390.14,429.62c0,1.09-1.04,1.97-2.3,1.96c-1.27-0.01-2.29-0.89-2.29-1.98c0-1.09,1.04-1.97,2.3-1.96
						C389.12,427.64,390.14,428.53,390.14,429.62z"/>
				</g>
				<g>
					<path class="st10" d="M397.25,429.65c0,1.09-1.04,1.97-2.3,1.96c-1.27-0.01-2.29-0.89-2.29-1.98c0-1.09,1.04-1.97,2.3-1.96
						C396.23,427.67,397.26,428.56,397.25,429.65z"/>
				</g>
			</g>
		</g>
		<path class="st11" d="M435.22,314.25H344.1c-4.84,0-8.76-3.92-8.76-8.76v-94.57c0-4.84,3.92-8.76,8.76-8.76h91.12
			c4.84,0,8.76,3.92,8.76,8.76v94.57C443.98,310.33,440.06,314.25,435.22,314.25z"/>
		<g>
			<g>
				<text transform="matrix(1 0 0 1 408.6847 340.9804)" class="st12 st13">10</text>
				<text transform="matrix(1 0 0 1 427.8397 334.8029)" class="st7 st12 st14">99</text>
				<rect x="427.84" y="336.39" class="st7" width="7.76" height="0.98"/>
			</g>
			<rect x="341.86" y="333.3" class="st7" width="40.05" height="1.24"/>
			<rect x="341.86" y="337.27" class="st7" width="24.31" height="1.24"/>
			<g>
				<g>
					<g>
						<g>
							<g>
								<path class="st8" d="M428.03,395.27l-80.06-0.37c-0.83,0-1.5-0.91-1.49-2.02l0.09-20.95c0-1.11,0.68-2.01,1.51-2l80.06,0.37
									c0.83,0,1.5,0.91,1.49,2.02l-0.09,20.94C429.53,394.38,428.85,395.27,428.03,395.27z"/>
							</g>
						</g>
						<g class="st9">
							<g>
								<path d="M428.03,395.27l-80.06-0.37c-0.83,0-1.5-0.91-1.49-2.02l0.09-20.95c0-1.11,0.68-2.01,1.51-2l80.06,0.37
									c0.83,0,1.5,0.91,1.49,2.02l-0.09,20.94C429.53,394.38,428.85,395.27,428.03,395.27z"/>
							</g>
						</g>
						<g>
							<g>
								<path class="st8" d="M428.03,388.56l-80.06-0.37c-0.83,0-1.5-0.91-1.49-2.02l0.09-20.95c0-1.11,0.68-2.01,1.51-2l80.06,0.37
									c0.83,0,1.5,0.91,1.49,2.02l-0.09,20.94C429.53,387.66,428.85,388.56,428.03,388.56z"/>
							</g>
						</g>
						<g>
							<path class="st3" d="M384.43,374.38c-0.01,1.33-0.94,2.14-2.46,2.13l-1.61-0.01l-0.01,1.98l-0.63,0l0.03-6.27l2.25,0.01
								C383.51,372.23,384.43,373.04,384.43,374.38z M383.79,374.38c0-1-0.63-1.58-1.83-1.58l-1.59-0.01l-0.01,3.13l1.6,0.01
								C383.15,375.93,383.79,375.36,383.79,374.38z"/>
							<path class="st3" d="M389.25,376.85l-3.34-0.02l-0.73,1.67l-0.66,0l2.77-6.26l0.63,0l2.72,6.28l-0.67,0L389.25,376.85z
								 M389.02,376.31l-1.43-3.38l-1.45,3.36L389.02,376.31z"/>
							<path class="st3" d="M393.34,376.38l-0.01,2.17l-0.62,0l0.01-2.17l-2.38-4.11l0.68,0l2.04,3.53l2.07-3.51l0.63,0
								L393.34,376.38z"/>
						</g>
					</g>
				</g>
			</g>
		</g>
		<g>
			<g>
				<g>
					<g>
						<path class="st3" d="M406.51,276.27c0,0.02-0.24,0.03-0.7,0.05c-0.51,0.01-1.18,0.03-2.02,0.05c-1.81,0.02-4.36,0.05-7.5,0.08
							c-6.4,0.02-15.23,0.05-25.16,0.08l-0.23,0l-0.03-0.22c-0.19-1.33-0.38-2.74-0.58-4.17c-1.71-12.23-3.2-23.15-4.13-30.22
							l0.16,0.14c-2.83-0.03-5.09-0.06-6.7-0.08c-0.74-0.02-1.33-0.03-1.78-0.04c-0.4-0.01-0.61-0.03-0.61-0.05s0.21-0.03,0.61-0.05
							c0.45-0.01,1.04-0.03,1.78-0.04c1.61-0.02,3.87-0.04,6.7-0.08l0.14,0l0.02,0.14c1.04,7.05,2.61,17.96,4.31,30.19
							c0.2,1.43,0.4,2.84,0.58,4.17l-0.26-0.22c9.93,0.03,18.76,0.06,25.16,0.08c3.14,0.03,5.68,0.06,7.5,0.08
							c0.84,0.02,1.52,0.03,2.02,0.05C406.26,276.24,406.51,276.26,406.51,276.27z"/>
					</g>
				</g>
				<g>
					<g>
						<path class="st3" d="M370.1,268.94c0-0.01,0.24-0.03,0.7-0.04c0.5-0.01,1.17-0.02,2.02-0.04c1.81-0.02,4.37-0.04,7.57-0.07
							c6.51-0.02,15.59-0.06,26.11-0.09l-0.25,0.21c0.77-4.4,1.61-9.15,2.48-14.07c0.45-2.53,0.89-5.02,1.31-7.38l0.25,0.3
							c-12.21-0.03-23-0.06-30.78-0.09c-3.84-0.03-6.93-0.06-9.11-0.08c-1.04-0.02-1.86-0.03-2.46-0.04
							c-0.26-0.01-0.46-0.02-0.64-0.02c-0.14-0.01-0.22-0.02-0.22-0.02c0-0.01,0.07-0.02,0.22-0.02c0.17-0.01,0.38-0.01,0.64-0.02
							c0.6-0.01,1.42-0.03,2.46-0.04c2.18-0.02,5.27-0.05,9.11-0.08c7.78-0.02,18.56-0.05,30.78-0.09l0.31,0l-0.05,0.3
							c-0.42,2.37-0.86,4.86-1.3,7.39c-0.87,4.92-1.72,9.67-2.5,14.06l-0.04,0.21l-0.21,0c-10.52-0.04-19.61-0.07-26.11-0.09
							c-3.2-0.03-5.76-0.06-7.57-0.07c-0.85-0.02-1.52-0.03-2.02-0.04C370.34,268.97,370.1,268.96,370.1,268.94z"/>
					</g>
				</g>
				<g>
					<g>
						<path class="st3" d="M379.97,285.88c-0.05,0-0.05-0.31-0.21-0.84c-0.16-0.51-0.52-1.26-1.3-1.83
							c-0.75-0.57-1.98-0.88-3.15-0.43c-1.17,0.41-2.17,1.65-2.15,3.1c-0.01,1.45,0.99,2.69,2.15,3.1c1.18,0.45,2.4,0.14,3.15-0.43
							c0.78-0.57,1.14-1.31,1.3-1.83C379.92,286.19,379.92,285.88,379.97,285.88c0.02,0,0.09,0.32-0.01,0.89
							c-0.1,0.56-0.44,1.4-1.27,2.07c-0.8,0.67-2.18,1.07-3.54,0.59c-1.35-0.44-2.53-1.87-2.51-3.55c-0.02-1.68,1.17-3.11,2.51-3.55
							c1.36-0.48,2.73-0.08,3.54,0.59c0.83,0.67,1.17,1.51,1.27,2.07C380.06,285.56,379.99,285.88,379.97,285.88z"/>
					</g>
				</g>
				<g>
					<g>
						<path class="st3" d="M402.74,285.88c-0.05,0-0.05-0.31-0.21-0.84c-0.16-0.51-0.52-1.26-1.3-1.83
							c-0.75-0.57-1.98-0.88-3.15-0.43c-1.17,0.41-2.17,1.65-2.15,3.1c-0.01,1.45,0.99,2.69,2.15,3.1c1.18,0.45,2.4,0.14,3.15-0.43
							c0.78-0.57,1.14-1.31,1.3-1.83C402.69,286.19,402.69,285.88,402.74,285.88c0.02,0,0.09,0.32-0.01,0.89
							c-0.1,0.56-0.44,1.4-1.27,2.07c-0.8,0.67-2.18,1.07-3.54,0.59c-1.35-0.44-2.53-1.87-2.51-3.55c-0.02-1.68,1.17-3.11,2.51-3.55
							c1.36-0.48,2.73-0.08,3.54,0.59c0.83,0.67,1.17,1.51,1.27,2.07C402.83,285.56,402.76,285.88,402.74,285.88z"/>
					</g>
				</g>
				<g>
					<circle class="st8" cx="408.36" cy="243.91" r="10.1"/>
				</g>
			</g>
			<g>
				<g>
					<path class="st7" d="M413.42,241.26c0.1,0.1-2,2.49-4.7,5.34c-0.5,0.53-0.99,1.03-1.45,1.51l-0.17,0.17l-0.18-0.16
						c-2.18-1.93-3.7-3.39-3.62-3.48c0.08-0.09,1.73,1.22,3.95,3.1l-0.34,0.02c0.45-0.48,0.93-1,1.43-1.53
						C411.04,243.39,413.31,241.16,413.42,241.26z"/>
				</g>
			</g>
		</g>
	</g>
</g>
<g id="Character">
	<g>
		<g>
			<g>
				<path class="st10" d="M303.84,167.99c-0.13,0.35-3.16,28.11-3.16,28.11l11.71-2.06l3.02-22.93L303.84,167.99z"/>
			</g>
			<g>
				<polygon class="st7" points="300.68,196.1 299.8,195.58 302.46,167.61 303.8,167.99 				"/>
			</g>
			<g>
				<circle class="st7" cx="309.44" cy="172.26" r="0.54"/>
			</g>
		</g>
		<g>
			<path class="st15" d="M293.65,211.07l22.46,5.83L312.68,189l0,0l-0.46-1.27l-8.23-1.27l0.99-6.07c0.51-2.84,3.34-4.65,6.13-3.91
				c0.9,0.24,1.85,0.49,2.7,0.72c1.92,0.51,3.55,1.81,4.45,3.58c1.56,3.06,3.08,6.4,2.94,6.12l0,0l0,0l12.05,32.67
				c0,0,3.72,6.61-1.33,13.17c-3.88,5.04-13.26,1.53-17.67,0.68l-28.77-6.34L293.65,211.07z"/>
		</g>
		<g>
			<g>
				<path class="st15" d="M208.38,259.55c-5.06-5.81-5.03-14.47,0.07-20.25l24.56-27.84l6.57,18.37
					c-0.45,0.3-19.12,20.31-19.12,20.31l16.04,20c2.47,3.08,3.19,7.21,1.91,10.95l-0.72,2.94c-1.06,4.29-5.74,6.58-9.77,4.77
					l-4.51-2.02c-0.54-0.24-0.73-0.9-0.41-1.39l0,0c0.18-0.27,0.48-0.43,0.8-0.43h6.12c1.28,0,2.39-0.87,2.7-2.11l0,0l0,0
					L208.38,259.55z"/>
			</g>
			<g>
				<g>
					<path class="st16" d="M217.01,246.57c0.1-0.09,1.04,0.74,2.15,1.83c1.11,1.1,1.83,2.17,1.72,2.26
						c-0.11,0.08-0.98-0.8-2.08-1.89C217.69,247.68,216.9,246.67,217.01,246.57z"/>
				</g>
			</g>
		</g>
		<g>
			<g>
				<g>
					<g>
						<path class="st15" d="M222.85,451.06c0,0,25.22-80.1,25.75-82.7c0.48-2.35-9.15-59.99-10.37-74.91l34.08,1.27
							c0,0,0,0.09,0,0.25l14.48,0.8l-12.97,163.82h-15.68l1.55-54.35c-9.67,25.96-23.53,52.42-23.53,52.42L222.85,451.06z"/>
					</g>
				</g>
				<g>
					<g>
						<path class="st16" d="M259.06,424.72c-0.01-0.5,0.19-18.21,0.19-18.21s6.92-19.7,7.06-19.2
							C266.44,387.82,259.06,424.72,259.06,424.72z"/>
					</g>
				</g>
			</g>
			<g>
				<g>
					<path class="st7" d="M246.57,170.01c-1.81-2.5-5.91-2.33-8.22-0.28c-2.31,2.05-3.12,5.33-3.2,8.42
						c-0.08,2.87,0.12,6.29-2.2,7.98c-0.93,0.68-2.12,0.92-3.13,1.48c-1.78,0.98-2.94,2.98-2.91,5.01c0.03,1.53,0.62,3.28-0.38,4.44
						c-0.5,0.58-1.29,0.82-1.95,1.22c-1.84,1.11-2.63,3.47-2.47,5.62c0.16,2.15,0.51,2.88,1.43,4.82c0,0,16.18-0.16,23.54,0
						C247.08,208.73,246.95,182.79,246.57,170.01"/>
				</g>
				<g>
					<g>
						<g>
							<g>
								<path class="st15" d="M272.81,203.33c-0.05-1.82,0.49-9.06,0.49-9.06s6.74-0.66,7.22-7.51c0.48-6.85,0.24-22.66,0.24-22.66
									l-12.2-6.28l-13.61,10.35l1.35,35.23L272.81,203.33z"/>
							</g>
						</g>
						<g>
							<g>
								<g>
									<path class="st7" d="M279.3,175.61c-0.01,0.48-0.39,0.87-0.86,0.87c-0.47-0.01-0.85-0.4-0.85-0.89
										c0.01-0.48,0.39-0.87,0.86-0.87C278.93,174.72,279.31,175.12,279.3,175.61z"/>
								</g>
							</g>
							<g>
								<g>
									<g>
										<path class="st7" d="M280.14,174.66c-0.11,0.11-0.74-0.45-1.66-0.51c-0.92-0.07-1.62,0.39-1.71,0.26
											c-0.05-0.06,0.07-0.26,0.37-0.47c0.3-0.21,0.8-0.4,1.38-0.36c0.57,0.04,1.05,0.3,1.31,0.55
											C280.11,174.39,280.19,174.61,280.14,174.66z"/>
									</g>
								</g>
							</g>
						</g>
						<g>
							<g>
								<g>
									<path class="st7" d="M269.4,175.5c-0.01,0.48-0.39,0.87-0.86,0.87c-0.47-0.01-0.85-0.4-0.85-0.89
										c0.01-0.48,0.39-0.87,0.86-0.87C269.02,174.62,269.4,175.02,269.4,175.5z"/>
								</g>
							</g>
							<g>
								<g>
									<g>
										<path class="st7" d="M269.94,174.55c-0.11,0.11-0.74-0.45-1.66-0.51c-0.92-0.07-1.62,0.39-1.71,0.26
											c-0.05-0.06,0.07-0.26,0.37-0.47c0.3-0.21,0.8-0.4,1.38-0.36c0.57,0.04,1.05,0.3,1.31,0.55
											C269.9,174.28,269.99,174.5,269.94,174.55z"/>
									</g>
								</g>
							</g>
						</g>
						<g>
							<g>
								<g>
									<path class="st7" d="M273.17,182.57c0-0.06,0.57-0.12,1.51-0.19c0.24-0.01,0.46-0.04,0.51-0.21
										c0.06-0.18-0.02-0.46-0.12-0.76c-0.19-0.62-0.4-1.28-0.61-1.96c-0.85-2.79-1.45-5.09-1.34-5.12c0.1-0.03,0.88,2.2,1.72,5
										c0.2,0.69,0.4,1.35,0.58,1.97c0.08,0.29,0.22,0.63,0.08,1c-0.07,0.18-0.25,0.31-0.4,0.34c-0.15,0.04-0.29,0.03-0.4,0.03
										C273.75,182.66,273.17,182.62,273.17,182.57z"/>
								</g>
							</g>
						</g>
						<g>
							<g>
								<path class="st16" d="M273.3,194.27c0,0-4.5,0-8.82-3.16c0,0,1.95,5.05,8.65,4.84L273.3,194.27z"/>
							</g>
						</g>
						<g>
							<g>
								<path class="st7" d="M245.34,174.61c0.07-0.49-0.07,0.53,0.03-0.23c0,0,0,0,0,0h0c0.13-1.06,0.28-2.17,0.44-2.78
									c3.79-14.26,16.06-16.8,18.49-16.77c2.6,0.03,10.03-0.19,14.16,4.99c5.46,6.84,2.37,13.61,2.37,13.61l0,0L270,171.5
									c0.8-2.7-0.3-6.07-0.93-7.64l-0.06-0.06c-2.06,10.24-13.08,11.19-13.08,11.19l-0.14,16.36
									C247.74,190.2,245.15,180.55,245.34,174.61L245.34,174.61z"/>
							</g>
						</g>
					</g>
					<g>
						<g>
							<path class="st7" d="M252.71,175.99c0.01-0.04,0.35,0.01,0.97,0.07c0.62,0.06,1.52,0.11,2.62,0.02
								c1.1-0.08,2.4-0.32,3.76-0.82c1.36-0.5,2.78-1.28,4.06-2.35c1.27-1.09,2.26-2.37,2.96-3.64c0.71-1.27,1.15-2.52,1.4-3.59
								c0.51-2.15,0.37-3.56,0.47-3.56c0.03,0,0.09,0.34,0.12,0.97c0.03,0.63-0.02,1.55-0.23,2.66c-0.21,1.11-0.63,2.41-1.34,3.74
								c-0.71,1.33-1.72,2.67-3.04,3.81c-1.33,1.12-2.81,1.92-4.23,2.41c-1.42,0.49-2.77,0.7-3.9,0.74
								c-1.13,0.04-2.05-0.06-2.67-0.19C253.04,176.14,252.71,176.02,252.71,175.99z"/>
						</g>
					</g>
					<g>
						<g>
							<g>
								<g>
									<path class="st15" d="M256.05,182.58c0.07-1.03,0.54-3.49,0.2-4.46c-0.34-0.97-1.42-1.19-2.61-1.18
										c-1.18,0.01-2.61,1.1-2.57,2.56c0.03,1.18,0.43,2.4,1.44,3.01c1.02,0.61,2.33,0.63,3.43,0.19"/>
								</g>
							</g>
						</g>
						<g>
							<g>
								<g>
									<g>
										<path class="st16" d="M254.77,181.23c-0.04-0.07-0.34,0.07-0.77-0.07c-0.44-0.12-0.87-0.63-0.89-1.34
											c-0.02-0.35,0.07-0.67,0.24-0.82c0.18-0.16,0.46-0.2,0.68-0.18c0.46,0.05,0.78,0.19,0.81,0.11
											c0.02-0.05-0.2-0.29-0.75-0.47c-0.27-0.07-0.67-0.1-1.04,0.17c-0.37,0.29-0.48,0.78-0.46,1.21
											c0.02,0.44,0.17,0.86,0.43,1.17c0.25,0.31,0.61,0.47,0.9,0.51C254.53,181.59,254.82,181.27,254.77,181.23z"/>
									</g>
								</g>
							</g>
						</g>
					</g>
					<g>
						<g>
							<path class="st10" d="M251.91,182.41c0.07,0.04-0.2,0.44-0.12,1.11c0.04,0.33,0.19,0.7,0.51,0.98
								c0.31,0.28,0.78,0.46,1.25,0.4c0.47-0.06,0.88-0.37,1.1-0.72c0.23-0.35,0.28-0.75,0.23-1.08c-0.1-0.67-0.48-0.98-0.42-1.04
								c0.02-0.06,0.54,0.17,0.78,0.96c0.11,0.38,0.11,0.92-0.18,1.4c-0.27,0.48-0.79,0.89-1.44,0.98
								c-0.65,0.08-1.26-0.18-1.65-0.56c-0.4-0.39-0.55-0.91-0.55-1.31C251.43,182.71,251.88,182.36,251.91,182.41z"/>
						</g>
					</g>
				</g>
				<g>
					<g>
						<path class="st10" d="M246.95,178.72c-0.05,0.04-0.47-0.37-0.94-1.19c-0.47-0.82-0.93-2.07-1.04-3.52
							c-0.11-1.45,0.16-2.76,0.51-3.64c0.34-0.88,0.7-1.35,0.75-1.32c0.15,0.06-0.98,2.14-0.74,4.92
							C245.67,176.75,247.09,178.64,246.95,178.72z"/>
					</g>
				</g>
				<g>
					<g>
						<path class="st7" d="M219.75,205.86c-0.01,0.01-0.11-0.14-0.27-0.45c-0.13-0.31-0.32-0.79-0.4-1.44
							c-0.08-0.65-0.05-1.47,0.21-2.36c0.27-0.89,0.79-1.87,1.71-2.65c0.9-0.79,2.21-1.15,3.04-2.1c0.41-0.48,0.58-1.12,0.56-1.8
							c-0.02-0.69-0.18-1.4-0.3-2.16c-0.13-0.75-0.18-1.6,0.07-2.42c0.24-0.81,0.72-1.54,1.31-2.16c1.18-1.25,2.77-2.06,4.27-2.9
							c1.49-0.85,2.92-1.86,3.58-3.31c0.66-1.44,0.51-3.07,0.54-4.59c0.02-3.1,1.27-5.85,3.01-7.43c1.76-1.6,3.75-2.02,5.04-2.01
							c0.65,0.01,1.15,0.11,1.48,0.2c0.33,0.1,0.49,0.17,0.49,0.18c-0.01,0.06-0.69-0.22-1.96-0.18c-1.24,0.04-3.14,0.51-4.79,2.07
							c-1.63,1.54-2.79,4.18-2.78,7.17c-0.03,1.48,0.16,3.17-0.56,4.79c-0.73,1.62-2.27,2.68-3.78,3.55
							c-1.54,0.86-3.05,1.63-4.16,2.8c-0.55,0.57-0.99,1.23-1.21,1.95c-0.22,0.72-0.19,1.46-0.07,2.2c0.11,0.74,0.27,1.48,0.28,2.23
							c0.01,0.75-0.2,1.54-0.69,2.09c-1,1.08-2.3,1.38-3.14,2.11c-0.86,0.7-1.38,1.61-1.66,2.45c-0.27,0.85-0.33,1.63-0.28,2.26
							C219.4,205.21,219.81,205.83,219.75,205.86z"/>
					</g>
				</g>
				<g>
					<g>
						<path class="st16" d="M270.42,183.13c0.47-0.18,1.01-0.2,1.46,0.01c0.45,0.21,0.81,0.66,0.86,1.15
							c0.05,0.5-0.22,1.03-0.68,1.23c-0.44,0.2-0.97,0.08-1.39-0.16c-0.4-0.23-0.74-0.6-0.83-1.05c-0.09-0.45,0.15-0.98,0.59-1.11"
							/>
					</g>
					<g>
						<g>
							<path class="st7" d="M269.76,181.85c0.14-0.05,0.45,1.23,1.64,2.12c1.19,0.89,2.5,0.82,2.5,0.97
								c0.01,0.07-0.31,0.18-0.85,0.16c-0.53-0.02-1.29-0.21-1.96-0.71c-0.67-0.5-1.07-1.17-1.24-1.68
								C269.68,182.2,269.7,181.86,269.76,181.85z"/>
						</g>
					</g>
				</g>
			</g>
			<g>
				<g>
					<g>
						<g>
							<g>
								<g>
									<path class="st8" d="M240.99,204.91c-3.89,0.94-6.07,2.19-11.87,8.48l-15.54,17.46l21.36,15.53l8.74-11.87l1.85,26.01
										c0,0-4.84,5.94-9.13,22.47c-3.47,13.37-3.8,26.96-4.78,37.37l-2.65,65.28l60.81,1.66c0,0-2.29-19.33-1.19-60.52
										c0.62-23.42-3.17-46.84-5.22-53.32l-3.13-16.95c0,0-0.21-4.72,2.65-8.74c4.94-6.94,1.42-15.14,1.42-15.14l16.23,6.01
										l10.71-24.17l-22.15-8.35c-8.02-3.31-17.53-2.83-17.53-2.83l-16.86-0.19C254.71,203.1,246.79,202.49,240.99,204.91"/>
								</g>
							</g>
						</g>
					</g>
				</g>
			</g>
			<g>
				<g>
					<g>
						<g>
							<g>
								<path class="st8" d="M274.12,460.4l0.01-1.47l-16.06-0.7l-0.04,6.07l0.99,0.07c4.41,0.26,22.44,1,25.39,0.12
									C287.69,463.5,274.12,460.4,274.12,460.4z"/>
							</g>
						</g>
						<g class="st9">
							<g>
								<path class="st3" d="M263.81,464.19c-0.22-1.34-0.96-2.58-2.03-3.41c-1.07-0.83-2.38-1.28-3.73-1.17l-0.02,4.47
									L263.81,464.19z"/>
							</g>
						</g>
					</g>
					<g>
						<g class="st9">
							<path class="st3" d="M280.75,462.15c0,0,4.75,1.39,4.16,2.17c-0.6,0.78-18.84,0.72-26.89-0.02l0.03-0.36l21.28,0.26
								C279.33,464.2,279.82,462.18,280.75,462.15z"/>
						</g>
					</g>
					<g>
						<g>
							<g>
								<path class="st7" d="M257.79,463.93c0,0.01,0.09,0.02,0.27,0.03c0.24,0.02,0.5,0.03,0.79,0.05c0.79,0.04,1.76,0.08,2.9,0.14
									c2.45,0.1,5.84,0.19,9.59,0.2c3.75,0.02,7.14-0.04,9.59-0.12c1.15-0.04,2.12-0.08,2.9-0.11c0.29-0.02,0.55-0.03,0.79-0.04
									c0.18-0.01,0.27-0.02,0.27-0.03c0-0.01-0.1-0.01-0.28-0.01c-0.24,0-0.5,0-0.79,0.01c-0.79,0.01-1.76,0.03-2.91,0.05
									c-2.45,0.04-5.84,0.08-9.59,0.06c-3.74-0.02-7.13-0.08-9.59-0.15c-1.15-0.03-2.12-0.05-2.91-0.07
									c-0.29-0.01-0.55-0.01-0.79-0.01C257.89,463.92,257.79,463.92,257.79,463.93z"/>
							</g>
						</g>
					</g>
					<g>
						<g>
							<g>
								<path class="st7" d="M279.32,464.45c0.06,0.01,0.11-0.69,0.55-1.38c0.43-0.71,1.03-1.06,0.99-1.11
									c-0.01-0.05-0.7,0.25-1.16,1.01C279.23,463.71,279.27,464.46,279.32,464.45z"/>
							</g>
						</g>
					</g>
					<g>
						<g>
							<g>
								<path class="st7" d="M274.61,462.04c0.05,0.03,0.27-0.24,0.51-0.61c0.23-0.37,0.39-0.69,0.34-0.72
									c-0.05-0.03-0.27,0.24-0.51,0.61C274.72,461.69,274.57,462.01,274.61,462.04z"/>
							</g>
						</g>
					</g>
					<g>
						<g>
							<g>
								<path class="st7" d="M273.32,461.35c0.04,0.04,0.29-0.13,0.56-0.37c0.28-0.25,0.47-0.48,0.44-0.52
									c-0.04-0.04-0.29,0.13-0.56,0.37C273.48,461.08,273.29,461.31,273.32,461.35z"/>
							</g>
						</g>
					</g>
					<g>
						<g>
							<g>
								<path class="st7" d="M272.51,459.84c0,0.05,0.37,0.1,0.83,0.11c0.46,0.01,0.84-0.03,0.84-0.08c0-0.05-0.37-0.1-0.83-0.11
									C272.89,459.75,272.51,459.79,272.51,459.84z"/>
							</g>
						</g>
					</g>
					<g>
						<g>
							<g>
								<path class="st7" d="M272.23,458.77c-0.02,0.05,0.39,0.23,0.93,0.27c0.54,0.04,0.97-0.07,0.96-0.12
									c-0.01-0.06-0.43-0.03-0.95-0.07C272.66,458.82,272.25,458.72,272.23,458.77z"/>
							</g>
						</g>
					</g>
					<g>
						<g>
							<g>
								<path class="st7" d="M275.16,460.65c0,0.02,0.39,0.07,1.03,0c0.32-0.04,0.69-0.11,1.09-0.24c0.2-0.07,0.41-0.12,0.63-0.26
									c0.1-0.07,0.21-0.16,0.26-0.32c0.04-0.15-0.04-0.33-0.15-0.41c-0.98-0.51-1.96,0.04-2.33,0.54
									c-0.2,0.26-0.29,0.51-0.34,0.68c-0.04,0.18-0.04,0.28-0.03,0.28c0.04,0.01,0.07-0.4,0.47-0.87c0.2-0.23,0.5-0.45,0.88-0.57
									c0.36-0.11,0.88-0.13,1.22,0.09c0.16,0.12,0.1,0.31-0.08,0.42c-0.17,0.11-0.39,0.17-0.58,0.24
									c-0.39,0.13-0.75,0.22-1.06,0.27C275.55,460.62,275.16,460.62,275.16,460.65z"/>
							</g>
						</g>
					</g>
					<g>
						<g>
							<g>
								<path class="st7" d="M275.43,460.7c0.01,0.01,0.17-0.25,0.12-0.71c-0.02-0.23-0.11-0.5-0.28-0.75
									c-0.18-0.23-0.41-0.54-0.85-0.53c-0.24,0.03-0.36,0.3-0.32,0.47c0.02,0.18,0.1,0.33,0.17,0.46
									c0.15,0.26,0.32,0.47,0.48,0.62c0.32,0.32,0.57,0.44,0.59,0.42c0.02-0.02-0.2-0.18-0.49-0.51
									c-0.14-0.16-0.29-0.37-0.43-0.62c-0.14-0.22-0.24-0.61,0.02-0.65c0.26-0.02,0.52,0.23,0.67,0.44
									c0.16,0.22,0.25,0.46,0.29,0.67C275.49,460.42,275.39,460.69,275.43,460.7z"/>
							</g>
						</g>
					</g>
					<g>
						<g>
							<g>
								<path class="st7" d="M258.14,459.56c0,0.04,0.46-0.04,1.18,0.05c0.72,0.08,1.71,0.38,2.57,1.07c0.86,0.69,1.37,1.6,1.6,2.28
									c0.24,0.69,0.26,1.15,0.3,1.14c0.01,0,0.02-0.12,0-0.32c-0.02-0.21-0.06-0.51-0.17-0.86c-0.21-0.71-0.71-1.67-1.61-2.39
									c-0.9-0.72-1.94-1.01-2.68-1.06c-0.37-0.03-0.67-0.01-0.88,0.02C258.25,459.52,258.13,459.55,258.14,459.56z"/>
							</g>
						</g>
					</g>
					<g>
						<g>
							<g>
								<path class="st7" d="M265.83,462.66c-0.01,0.05,1.04,0.22,2.33,0.22c1.3,0.01,2.34-0.15,2.34-0.2
									c-0.01-0.06-1.05,0.01-2.34,0C266.88,462.68,265.83,462.6,265.83,462.66z"/>
							</g>
						</g>
					</g>
					<g>
						<g>
							<g>
								<path class="st7" d="M262.7,462.62c-0.04,0.04,0.08,0.22,0.19,0.46c0.11,0.24,0.16,0.45,0.22,0.45
									c0.05,0,0.08-0.25-0.04-0.53C262.94,462.73,262.73,462.59,262.7,462.62z"/>
							</g>
						</g>
					</g>
					<g>
						<g>
							<g>
								<path class="st7" d="M261.52,461.15c-0.04,0.04,0.06,0.2,0.23,0.37c0.16,0.17,0.33,0.27,0.37,0.24
									c0.04-0.04-0.06-0.2-0.23-0.37C261.73,461.22,261.56,461.11,261.52,461.15z"/>
							</g>
						</g>
					</g>
					<g>
						<g>
							<g>
								<path class="st7" d="M259.84,460.47c0.01,0.05,0.22,0.05,0.46,0.14c0.24,0.08,0.4,0.21,0.45,0.17
									c0.04-0.03-0.09-0.26-0.38-0.36C260.07,460.33,259.82,460.42,259.84,460.47z"/>
							</g>
						</g>
					</g>
					<g>
						<g>
							<g>
								<path class="st7" d="M258.63,460.15c-0.02,0.05,0.07,0.13,0.2,0.18c0.13,0.05,0.26,0.05,0.28,0
									c0.02-0.05-0.07-0.13-0.2-0.18C258.78,460.1,258.65,460.1,258.63,460.15z"/>
							</g>
						</g>
					</g>
				</g>
			</g>
			<g>
				<g>
					<g>
						<g>
							<g>
								<path class="st8" d="M236.49,458.98l0.61-1.34l-14.37-7.22l-2.53,5.52l0.88,0.47c3.92,2.04,20.06,10.1,23.11,10.51
									C247.59,467.36,236.49,458.98,236.49,458.98z"/>
							</g>
						</g>
						<g class="st9">
							<g>
								<path class="st3" d="M225.53,458.22c0.34-1.31,0.18-2.75-0.45-3.94c-0.63-1.2-1.65-2.14-2.92-2.6l-1.84,4.07L225.53,458.22z
									"/>
							</g>
						</g>
					</g>
					<g>
						<g class="st9">
							<path class="st3" d="M241.82,463.29c0,0,3.77,3.21,2.91,3.68c-0.86,0.47-17.48-7.06-24.52-11.03l0.17-0.31l19.31,8.95
								C239.68,464.58,240.95,462.94,241.82,463.29z"/>
						</g>
					</g>
					<g>
						<g>
							<g>
								<path class="st7" d="M220.15,455.52c0,0.01,0.08,0.05,0.24,0.14c0.21,0.11,0.44,0.23,0.7,0.37c0.7,0.36,1.57,0.8,2.59,1.31
									c2.2,1.09,5.25,2.56,8.66,4.11c3.41,1.55,6.53,2.88,8.8,3.82c1.06,0.43,1.96,0.79,2.7,1.09c0.27,0.11,0.52,0.2,0.74,0.28
									c0.17,0.06,0.26,0.09,0.26,0.09c0-0.01-0.08-0.05-0.25-0.12c-0.22-0.1-0.46-0.2-0.72-0.32c-0.73-0.31-1.62-0.69-2.67-1.15
									c-2.25-0.97-5.36-2.32-8.77-3.87c-3.41-1.55-6.47-3-8.68-4.06c-1.03-0.5-1.91-0.92-2.62-1.26c-0.27-0.12-0.5-0.24-0.72-0.34
									C220.24,455.55,220.15,455.51,220.15,455.52z"/>
							</g>
						</g>
					</g>
					<g>
						<g>
							<g>
								<path class="st7" d="M239.57,464.81c0.05,0.03,0.38-0.58,1.07-1.04c0.68-0.47,1.37-0.55,1.36-0.6
									c0.01-0.05-0.74-0.06-1.47,0.44C239.79,464.1,239.52,464.8,239.57,464.81z"/>
							</g>
						</g>
					</g>
					<g>
						<g>
							<g>
								<path class="st7" d="M236.27,460.68c0.03,0.04,0.35-0.11,0.71-0.35c0.36-0.24,0.64-0.47,0.61-0.51
									c-0.03-0.04-0.35,0.11-0.71,0.35C236.51,460.41,236.24,460.64,236.27,460.68z"/>
							</g>
						</g>
					</g>
					<g>
						<g>
							<g>
								<path class="st7" d="M235.37,459.52c0.02,0.05,0.32,0,0.67-0.11c0.35-0.11,0.63-0.24,0.61-0.29c-0.02-0.05-0.32,0-0.67,0.11
									C235.63,459.34,235.35,459.47,235.37,459.52z"/>
							</g>
						</g>
					</g>
					<g>
						<g>
							<g>
								<path class="st7" d="M235.25,457.81c-0.02,0.05,0.3,0.25,0.72,0.44c0.42,0.2,0.77,0.31,0.8,0.27
									c0.02-0.05-0.3-0.25-0.72-0.44C235.63,457.88,235.27,457.76,235.25,457.81z"/>
							</g>
						</g>
					</g>
					<g>
						<g>
							<g>
								<path class="st7" d="M235.43,456.73c-0.04,0.04,0.26,0.37,0.74,0.63c0.48,0.26,0.92,0.33,0.93,0.28
									c0.01-0.05-0.38-0.2-0.83-0.45C235.81,456.94,235.47,456.69,235.43,456.73z"/>
							</g>
						</g>
					</g>
					<g>
						<g>
							<g>
								<path class="st7" d="M237.34,459.64c-0.01,0.02,0.33,0.23,0.94,0.42c0.3,0.1,0.68,0.18,1.1,0.23
									c0.21,0.02,0.42,0.06,0.68,0.02c0.12-0.02,0.26-0.06,0.36-0.19c0.1-0.12,0.1-0.31,0.03-0.44c-0.68-0.87-1.81-0.77-2.35-0.46
									c-0.29,0.15-0.48,0.35-0.59,0.49c-0.11,0.14-0.15,0.24-0.14,0.24c0.03,0.03,0.23-0.34,0.79-0.6
									c0.27-0.13,0.64-0.21,1.03-0.16c0.37,0.05,0.86,0.24,1.08,0.58c0.1,0.18-0.04,0.33-0.25,0.35c-0.2,0.03-0.43,0-0.63-0.01
									c-0.41-0.04-0.77-0.11-1.08-0.19C237.71,459.77,237.35,459.61,237.34,459.64z"/>
							</g>
						</g>
					</g>
					<g>
						<g>
							<g>
								<path class="st7" d="M237.56,459.79c0.01,0.02,0.25-0.16,0.4-0.6c0.07-0.22,0.11-0.5,0.05-0.8
									c-0.07-0.28-0.15-0.66-0.56-0.83c-0.23-0.07-0.77,0.39-0.8,0.56c-0.06,0.17,0.27,0.08,0.29,0.23
									c0.03,0.3,0.1,0.56,0.19,0.77c0.16,0.42,0.35,0.63,0.36,0.62c0.03-0.02-0.11-0.25-0.23-0.67c-0.06-0.21-0.12-0.46-0.14-0.74
									c-0.04-0.26,0.03-0.65,0.29-0.59c0.24,0.08,0.38,0.43,0.44,0.68c0.06,0.27,0.04,0.52-0.01,0.73
									C237.73,459.57,237.53,459.77,237.56,459.79z"/>
							</g>
						</g>
					</g>
					<g>
						<g>
							<g>
								<path class="st7" d="M222.25,451.67c-0.01,0.03,0.43,0.15,1.06,0.53c0.62,0.37,1.4,1.05,1.91,2.03
									c0.5,0.99,0.59,2.02,0.53,2.74c-0.06,0.72-0.23,1.15-0.19,1.16c0.01,0,0.06-0.1,0.13-0.29c0.07-0.2,0.15-0.49,0.2-0.86
									c0.1-0.73,0.03-1.81-0.49-2.84c-0.53-1.03-1.36-1.71-2.01-2.06c-0.33-0.18-0.61-0.29-0.81-0.34
									C222.37,451.68,222.25,451.66,222.25,451.67z"/>
							</g>
						</g>
					</g>
					<g>
						<g>
							<g>
								<path class="st7" d="M228,457.65c-0.03,0.04,0.86,0.62,2.04,1.16c1.18,0.54,2.2,0.83,2.21,0.78
									c0.02-0.05-0.96-0.42-2.13-0.95C228.94,458.1,228.03,457.6,228,457.65z"/>
							</g>
						</g>
					</g>
					<g>
						<g>
							<g>
								<path class="st7" d="M225.15,456.33c-0.05,0.02-0.01,0.24-0.02,0.5c0,0.26-0.04,0.48,0.02,0.5c0.05,0.02,0.18-0.2,0.18-0.5
									C225.33,456.53,225.2,456.31,225.15,456.33z"/>
							</g>
						</g>
					</g>
					<g>
						<g>
							<g>
								<path class="st7" d="M224.69,454.51c-0.05,0.02-0.02,0.21,0.06,0.43c0.08,0.22,0.19,0.39,0.24,0.37
									c0.05-0.02,0.02-0.21-0.06-0.43C224.84,454.65,224.74,454.49,224.69,454.51z"/>
							</g>
						</g>
					</g>
					<g>
						<g>
							<g>
								<path class="st7" d="M223.43,453.2c-0.01,0.05,0.18,0.14,0.36,0.31c0.18,0.17,0.28,0.36,0.34,0.34
									c0.05-0.01,0.02-0.27-0.2-0.48C223.7,453.16,223.43,453.15,223.43,453.2z"/>
							</g>
						</g>
					</g>
					<g>
						<g>
							<g>
								<path class="st7" d="M222.46,452.41c-0.04,0.04,0.01,0.15,0.11,0.25c0.1,0.1,0.21,0.15,0.25,0.12
									c0.04-0.04-0.01-0.15-0.11-0.25C222.61,452.43,222.5,452.38,222.46,452.41z"/>
							</g>
						</g>
					</g>
				</g>
			</g>
		</g>
		<g>
			<g>
				<path class="st16" d="M320.38,221.12c-0.11,0.1-1.12-0.85-2.26-2.11c-1.14-1.26-1.98-2.37-1.87-2.46
					c0.11-0.1,1.12,0.85,2.26,2.11C319.65,219.92,320.49,221.03,320.38,221.12z"/>
			</g>
		</g>
		<g>
			<g>
				<path class="st7" d="M295.82,208.73c0,0.02-0.22,0.04-0.63,0.05c-0.47,0.01-1.06,0.03-1.8,0.05c-1.63,0.02-3.87,0.05-6.62,0.08
					c-5.65,0.02-13.34,0.05-21.83,0.08c-8.5-0.03-16.19-0.06-21.84-0.08c-2.74-0.03-4.99-0.06-6.62-0.08
					c-0.74-0.02-1.33-0.04-1.8-0.05c-0.41-0.02-0.63-0.03-0.63-0.05c0-0.02,0.22-0.04,0.63-0.05c0.47-0.01,1.06-0.03,1.8-0.05
					c1.63-0.02,3.87-0.05,6.62-0.08c5.65-0.02,13.34-0.05,21.84-0.08c8.5,0.03,16.19,0.06,21.83,0.08c2.74,0.03,4.99,0.06,6.62,0.08
					c0.74,0.02,1.33,0.04,1.8,0.05C295.6,208.69,295.82,208.71,295.82,208.73z"/>
			</g>
		</g>
		<g>
			<g>
				<path class="st7" d="M309.46,218.36c0,0.02-0.3,0.04-0.86,0.05c-0.61,0.01-1.43,0.03-2.47,0.05c-2.19,0.02-5.28,0.05-9.07,0.08
					c-7.7,0.02-18.26,0.05-29.93,0.08c-11.67-0.03-22.23-0.06-29.93-0.08c-3.79-0.03-6.88-0.06-9.07-0.08
					c-1.03-0.02-1.86-0.04-2.47-0.05c-0.56-0.02-0.86-0.03-0.86-0.05c0-0.02,0.3-0.04,0.86-0.05c0.61-0.01,1.43-0.03,2.47-0.05
					c2.19-0.02,5.28-0.05,9.07-0.08c7.7-0.02,18.26-0.05,29.93-0.08c11.66,0.03,22.22,0.06,29.93,0.08
					c3.79,0.03,6.88,0.06,9.07,0.08c1.03,0.02,1.86,0.04,2.47,0.05C309.16,218.32,309.46,218.34,309.46,218.36z"/>
			</g>
		</g>
		<g>
			<g>
				<path class="st7" d="M302.78,229.89c0,0.02-0.31,0.04-0.89,0.05c-0.63,0.01-1.48,0.03-2.56,0.05c-2.27,0.02-5.47,0.05-9.41,0.08
					c-7.99,0.02-18.95,0.05-31.05,0.08c-12.11-0.03-23.07-0.06-31.06-0.08c-3.94-0.03-7.14-0.06-9.41-0.08
					c-1.08-0.02-1.93-0.04-2.56-0.05c-0.58-0.02-0.89-0.03-0.89-0.05c0-0.02,0.31-0.04,0.89-0.05c0.63-0.01,1.48-0.03,2.56-0.05
					c2.27-0.02,5.47-0.05,9.41-0.08c7.99-0.02,18.95-0.05,31.06-0.08c12.1,0.03,23.06,0.06,31.05,0.08
					c3.94,0.03,7.14,0.06,9.41,0.08c1.08,0.02,1.93,0.04,2.56,0.05C302.48,229.85,302.78,229.87,302.78,229.89z"/>
			</g>
		</g>
		<g>
			<g>
				<path class="st7" d="M284.78,241.72c0,0.04-0.57,0.07-1.6,0.1c-1.12,0.02-2.59,0.05-4.36,0.08c-3.68,0.05-8.76,0.08-14.37,0.08
					c-5.61,0-10.7-0.03-14.38-0.08c-1.77-0.03-3.24-0.06-4.36-0.08c-1.03-0.03-1.6-0.07-1.6-0.1c0-0.04,0.57-0.07,1.6-0.1
					c1.12-0.02,2.59-0.05,4.36-0.08c3.68-0.05,8.76-0.08,14.38-0.08c5.61,0,10.69,0.03,14.37,0.08c1.77,0.03,3.24,0.06,4.36,0.08
					C284.21,241.65,284.78,241.68,284.78,241.72z"/>
			</g>
		</g>
		<g>
			<g>
				<path class="st7" d="M280.56,253.3c0,0.04-0.5,0.07-1.39,0.1c-1,0.02-2.27,0.05-3.8,0.08c-3.21,0.05-7.64,0.08-12.53,0.08
					c-4.89,0-9.32-0.03-12.53-0.08c-1.53-0.03-2.8-0.06-3.8-0.08c-0.9-0.03-1.39-0.07-1.39-0.1c0-0.04,0.5-0.07,1.39-0.1
					c1-0.02,2.27-0.05,3.8-0.08c3.21-0.05,7.64-0.08,12.53-0.08c4.89,0,9.32,0.03,12.53,0.08c1.53,0.03,2.8,0.06,3.8,0.08
					C280.07,253.23,280.56,253.26,280.56,253.3z"/>
			</g>
		</g>
		<g>
			<g>
				<path class="st7" d="M282.79,247.83c0,0.04-0.53,0.07-1.49,0.1c-1.06,0.02-2.43,0.05-4.07,0.08c-3.44,0.05-8.19,0.08-13.44,0.08
					c-5.25,0-10-0.03-13.44-0.08c-1.65-0.03-3.02-0.06-4.07-0.08c-0.96-0.03-1.49-0.07-1.49-0.1c0-0.04,0.53-0.07,1.49-0.1
					c1.06-0.02,2.43-0.05,4.07-0.08c3.44-0.05,8.19-0.08,13.44-0.08c5.25,0,10,0.03,13.44,0.08c1.65,0.03,3.02,0.06,4.07,0.08
					C282.26,247.76,282.79,247.8,282.79,247.83z"/>
			</g>
		</g>
		<g>
			<g>
				<path class="st7" d="M285.24,235.96c0,0.04-0.58,0.07-1.63,0.1c-1.14,0.02-2.64,0.05-4.44,0.08c-3.75,0.05-8.94,0.08-14.66,0.08
					c-5.73,0-10.91-0.03-14.66-0.08c-1.81-0.03-3.3-0.06-4.44-0.08c-1.05-0.03-1.63-0.07-1.63-0.1c0-0.04,0.58-0.07,1.63-0.1
					c1.14-0.02,2.64-0.05,4.44-0.08c3.75-0.05,8.94-0.08,14.66-0.08c5.73,0,10.91,0.03,14.66,0.08c1.81,0.03,3.3,0.06,4.44,0.08
					C284.66,235.89,285.24,235.92,285.24,235.96z"/>
			</g>
		</g>
		<g>
			<g>
				<path class="st7" d="M242.6,235.94c0,0.07-1.23,0.14-3.23,0.18c-2,0.05-4.75,0.08-7.8,0.08c-3.05,0-5.8-0.03-7.8-0.08
					c-2-0.05-3.23-0.11-3.23-0.18s1.23-0.14,3.23-0.18s4.75-0.08,7.8-0.08c3.04,0,5.8,0.03,7.8,0.08S242.6,235.87,242.6,235.94z"/>
			</g>
		</g>
		<g>
			<g>
				<path class="st7" d="M302.09,235.32c0,0.14-2.44,0.26-5.46,0.26c-3.01,0-5.46-0.12-5.46-0.26c0-0.14,2.44-0.26,5.46-0.26
					C299.65,235.06,302.09,235.18,302.09,235.32z"/>
			</g>
		</g>
		<g>
			<g>
				<path class="st7" d="M306.16,223.91c0,0.02-0.3,0.04-0.88,0.05c-0.62,0.01-1.46,0.03-2.52,0.05c-2.24,0.02-5.39,0.05-9.26,0.08
					c-7.86,0.02-18.65,0.05-30.56,0.08c-11.92-0.03-22.7-0.06-30.56-0.08c-3.87-0.03-7.02-0.06-9.26-0.08
					c-1.06-0.02-1.9-0.04-2.52-0.05c-0.58-0.02-0.88-0.03-0.88-0.05c0-0.02,0.3-0.04,0.88-0.05c0.62-0.01,1.46-0.03,2.52-0.05
					c2.24-0.02,5.39-0.05,9.26-0.08c7.86-0.02,18.65-0.05,30.56-0.08c11.91,0.03,22.69,0.06,30.56,0.08
					c3.87,0.03,7.03,0.06,9.26,0.08c1.06,0.02,1.9,0.04,2.52,0.05C305.86,223.87,306.16,223.89,306.16,223.91z"/>
			</g>
		</g>
		<g>
			<g>
				<path class="st7" d="M307.83,213.15c0,0.02-0.28,0.04-0.8,0.05c-0.57,0.01-1.33,0.03-2.29,0.05c-2.04,0.02-4.91,0.05-8.43,0.08
					c-7.16,0.02-16.97,0.05-27.8,0.08c-10.84-0.03-20.64-0.06-27.81-0.08c-3.52-0.03-6.38-0.06-8.43-0.08
					c-0.96-0.02-1.72-0.04-2.29-0.05c-0.52-0.02-0.8-0.03-0.8-0.05c0-0.02,0.28-0.04,0.8-0.05c0.57-0.01,1.33-0.03,2.29-0.05
					c2.04-0.02,4.91-0.05,8.43-0.08c7.16-0.02,16.97-0.05,27.81-0.08c10.83,0.03,20.64,0.06,27.8,0.08
					c3.52,0.03,6.38,0.06,8.43,0.08c0.96,0.02,1.72,0.04,2.29,0.05C307.55,213.11,307.83,213.13,307.83,213.15z"/>
			</g>
		</g>
	</g>
</g>
<g id="Speech_Bubble">
	<g>
		<g>
			<g>
				<g>
					<path class="st7" d="M153.05,141.55c0,0-0.04-0.22-0.11-0.65c-0.06-0.45-0.15-1.08-0.26-1.9c-0.04-0.42-0.14-0.89-0.16-1.41
						c-0.01-0.52-0.03-1.09-0.05-1.71c-0.01-0.62-0.06-1.28-0.03-1.99c0.05-0.71,0.11-1.47,0.17-2.27
						c0.33-3.18,1.05-7.11,2.92-11.29c1.83-4.18,4.76-8.63,9.06-12.47c0.54-0.47,1.09-0.95,1.64-1.44c0.58-0.45,1.2-0.87,1.81-1.31
						c1.19-0.94,2.57-1.63,3.92-2.43c2.8-1.41,5.85-2.69,9.18-3.36c1.64-0.45,3.36-0.58,5.1-0.81c0.87-0.1,1.76-0.06,2.64-0.1
						c0.44-0.01,0.89-0.02,1.34-0.03c0.45,0.01,0.9,0.06,1.35,0.1c3.61,0.16,7.28,1.02,10.84,2.37c7.16,2.64,13.71,7.93,18.14,14.95
						c2.24,3.5,3.8,7.5,4.7,11.68c1,4.17,1.12,8.6,0.52,12.95c-0.08,0.56-0.17,1.12-0.27,1.67l-0.04-0.2
						c4.02,5.59,7.95,11.06,11.77,16.36l0.36,0.5l-0.61-0.09c-5.99-0.93-11.8-1.84-17.38-2.7l0.24-0.11
						c-3.58,5.3-8.38,9.45-13.61,12.17c-2.62,1.35-5.34,2.36-8.06,3.03c-1.36,0.35-2.72,0.61-4.08,0.74
						c-0.68,0.08-1.35,0.16-2.02,0.24c-0.67,0.08-1.34,0.04-2,0.07c-5.31,0.13-10.3-0.92-14.59-2.66c-4.3-1.74-7.91-4.15-10.81-6.73
						c-0.7-0.67-1.39-1.32-2.06-1.95c-0.6-0.69-1.19-1.37-1.76-2.03c-0.6-0.63-1.05-1.35-1.53-2.01c-0.46-0.67-0.96-1.28-1.33-1.95
						c-1.57-2.6-2.65-4.98-3.34-6.97c-0.33-1-0.61-1.89-0.86-2.66c-0.17-0.78-0.31-1.45-0.43-1.99c-0.11-0.52-0.19-0.93-0.25-1.22
						C153.07,141.7,153.05,141.55,153.05,141.55s0.05,0.14,0.11,0.41c0.07,0.29,0.17,0.69,0.29,1.21c0.13,0.54,0.28,1.2,0.47,1.98
						c0.26,0.76,0.56,1.64,0.9,2.64c0.71,1.97,1.81,4.32,3.39,6.9c0.37,0.66,0.88,1.26,1.34,1.93c0.48,0.65,0.93,1.36,1.53,1.98
						c0.57,0.65,1.15,1.31,1.76,2c0.67,0.62,1.35,1.27,2.05,1.93c2.89,2.53,6.47,4.91,10.74,6.61c4.25,1.71,9.19,2.72,14.44,2.58
						c0.65-0.03,1.32,0,1.98-0.08c0.66-0.08,1.33-0.16,2-0.25c1.34-0.14,2.69-0.4,4.03-0.75c2.69-0.68,5.37-1.68,7.95-3.01
						c5.16-2.69,9.89-6.8,13.41-12.03l0.09-0.13l0.16,0.02c5.58,0.86,11.39,1.76,17.38,2.69l-0.25,0.4
						c-3.81-5.3-7.75-10.77-11.77-16.36l-0.06-0.09l0.02-0.11c0.1-0.55,0.19-1.1,0.27-1.65c0.59-4.29,0.47-8.66-0.52-12.77
						c-0.89-4.12-2.42-8.07-4.63-11.52c-4.36-6.92-10.82-12.16-17.88-14.77c-3.51-1.34-7.13-2.2-10.69-2.36
						c-0.44-0.03-0.89-0.08-1.33-0.1l-1.32,0.03c-0.88,0.03-1.75-0.01-2.61,0.09c-1.72,0.22-3.42,0.35-5.04,0.79
						c-3.29,0.65-6.31,1.91-9.08,3.29c-1.34,0.79-2.71,1.47-3.89,2.39c-0.6,0.44-1.22,0.85-1.8,1.29c-0.55,0.48-1.09,0.95-1.63,1.42
						c-4.27,3.79-7.2,8.18-9.04,12.32c-1.88,4.14-2.62,8.04-2.98,11.2c-0.07,0.8-0.13,1.55-0.19,2.25c-0.04,0.71,0.01,1.37,0,1.99
						c0.01,0.61,0.02,1.18,0.02,1.7c0.01,0.52,0.1,0.99,0.14,1.4c0.09,0.83,0.16,1.46,0.21,1.91
						C153.04,141.33,153.05,141.55,153.05,141.55z"/>
				</g>
			</g>
		</g>
		<g>
			<g>
				<polygon class="st10" points="177.25,121.25 172.86,154.51 205.37,154.51 200.64,121.25 				"/>
			</g>
			<g>
				<g>
					<path class="st3" d="M198,126.08c0.03,0.01,0,0.36-0.19,0.96c-0.19,0.6-0.53,1.45-1.17,2.4c-0.63,0.94-1.58,1.96-2.9,2.71
						c-1.31,0.76-2.98,1.18-4.71,1.18c-1.73,0.02-3.41-0.35-4.74-1.09c-1.34-0.72-2.27-1.79-2.87-2.74c-0.6-0.97-0.9-1.84-1.06-2.45
						c-0.15-0.61-0.17-0.96-0.13-0.97c0.09-0.03,0.28,1.39,1.5,3.21c0.61,0.89,1.52,1.87,2.79,2.52c1.26,0.67,2.84,1,4.5,0.99
						c1.66,0,3.23-0.39,4.48-1.08c1.26-0.69,2.19-1.63,2.83-2.5C197.62,127.44,197.91,126.05,198,126.08z"/>
				</g>
			</g>
		</g>
	</g>
</g>
</svg>
